<?xml version="1.0" standalone="no"?>
<!DOCTYPE svg PUBLIC "-//W3C//DTD SVG 1.1//EN" "http://www.w3.org/Graphics/SVG/1.1/DTD/svg11.dtd" >
<svg xmlns="http://www.w3.org/2000/svg" xmlns:xlink="http://www.w3.org/1999/xlink" version="1.1">
<metadata>
Created by FontForge 20190801 at Mon Jan 18 09:29:35 2016
 By Jimmy Wärting
Created by gluk (gluksza@wp.pl | www.glukfonts.pl) with FontForge.
This Font is licensed unter SIL Open Font License v.1.1.
</metadata>
<defs>
<font id="FogtwoNo5" horiz-adv-x="833" >
  <font-face 
    font-family="FogtwoNo5"
    font-weight="400"
    font-stretch="normal"
    units-per-em="1000"
    panose-1="0 0 6 0 0 0 0 0 0 0"
    ascent="773"
    descent="-227"
    x-height="491"
    cap-height="599"
    bbox="-129 -229 2190 775"
    underline-thickness="14"
    underline-position="-117"
    stemh="17"
    stemv="65"
    unicode-range="U+0020-FB03"
  />
<missing-glyph horiz-adv-x="268" 
d="M49 24h147v444h-147v-444zM24 0v492h197v-492h-197z" />
    <glyph glyph-name="f_c" unicode="fc" horiz-adv-x="826" 
d="M329 248c0 138 119 250 266 250c58 0 99 -16 139 -16c10 0 24 3 33 5l6 -204h-15l-2 67c-2.37988 79.5596 -86 133 -168 133c-111 0 -186 -88 -186 -222c0 -162.99 104.12 -244 207 -244c68 0 138 31 174 105l14 -5c-33 -83 -113 -124 -201 -124
c-160 0 -267 103 -267 255zM15 0v8h35c32 0 38 12 38 44v408h-73v22h73c-5 15 -18 75 -18 107c0 67 73 109 172 109c78.2803 0 98.6104 -23 131 -23v-133h-15v8c0 106 -54 132 -116 132c-69 0 -122 -37 -122 -93c0 -46 19 -84 32 -107h116v-22h-115v-429c0 -13 0 -16 -6 -22
v-1h70v-8h-202z" />
    <glyph glyph-name="f_e" unicode="fe" horiz-adv-x="811" 
d="M329 248c0 138 114 250 254 250c117 0 194 -65 194 -167c0 -21 -11 -35 -28 -35h-345.64c-2.2207 -16.5 -3.36035 -33.8604 -3.36035 -52c0 -128 78 -227 198 -227c63 0 132 23 173 79l12 -9c-44 -59 -115 -94 -203 -94c-150 0 -251 103 -251 255zM405.74 311l288.26 6
c8 0 14 5 14 15c0 93 -52 150 -129 150c-90.0195 0 -154.35 -66.2002 -173.26 -171zM15 0v8h35c32 0 38 12 38 44v408h-73v22h73c-5 15 -18 75 -18 107c0 67 73 109 172 109c78.2803 0 98.6104 -23 131 -23v-133h-15v8c0 106 -54 132 -116 132c-69 0 -122 -37 -122 -93
c0 -46 19 -84 32 -107h116v-22h-115v-429c0 -13 0 -16 -6 -22v-1h70v-8h-202z" />
    <glyph glyph-name="g_j" unicode="gj" horiz-adv-x="763" 
d="M661 658c22 0 37 -13 37 -36c0 -22 -14 -38 -37 -38c-22 0 -38 15 -38 38c0 22 15 36 38 36zM628 453c0 18 -10.7998 30 -27 30h-31v8h113c7.2998 0 10 -2.7002 10 -10v-529c0 -84 -55 -141 -131 -141c-9 0 -22 1 -34 6l5 14c9 -4 21 -5 29 -5c43 0 66 29 66 87v540z
M107 352c0 -90 65 -163 145 -163c91 0 152 58 152 142s-69 152 -152 152c-87 0 -145 -52 -145 -131zM44 341c0 86 94 157 208 157c85.04 0 151.39 -27.3799 186.74 -72.96c0 45.96 22.5693 92.46 58.2598 112.96l14 8c5.57031 -7.80957 9 -15.6299 9 -25
c0 -13 -6 -25 -17 -31c-30.0996 -17.75 -50 -42.0596 -50 -71.54c0 -8.70996 1.09961 -17.8896 4.98047 -27.4697c5.90918 -15.4004 9.01953 -32.1299 9.01953 -49.9902c0 -94 -90 -167 -215 -167c-17.6904 0 -34.3701 1.16016 -50 3.42969v-19.4297c0 -67 44 -75 104 -75
h22c84 0 185 -26 185 -131c0 -76 -106 -141 -227 -141c-141 0 -244 60 -244 137c0 63.6904 74.5 116.61 171.53 125.64c-17.6807 19.9502 -28.5303 47.2402 -28.5303 84.3604v22.4199c-90.3799 18.7305 -141 77.3301 -141 160.58zM228.49 59.6396
c-92.1904 -4.59961 -164.49 -52.6992 -164.49 -111.64c0 -47 90 -81 222 -81c113 0 212 37 212 85c0 37 -48 70 -118 70c-53.1797 0 -112.43 7.13965 -151.51 37.6396z" />
    <glyph glyph-name="t_o" unicode="to" horiz-adv-x="971" 
d="M172 463v-355c0 -54.5996 27.5996 -91 69 -91c55.2002 0 87 39.2002 87 98v25h15v-25c0 -73.2002 -42.7998 -122 -107 -122c-76.7998 0 -128 51.5996 -128 129v341h-100v21h48c76 0 101 100 101 122v93h15v-172c0 -18 -3 -32 -10 -35v-1h207l-5 -28h-192zM669 -7
c-160.8 0 -268 101.2 -268 253c0 138.6 121.14 252 268 252c160.53 0 268 -101.3 268 -252c0 -138.9 -120.06 -253 -268 -253zM671 8c116.22 0 195 90.0498 195 224c0 137.5 -90.25 250 -201 250c-115.99 0 -193 -88.9805 -193 -223c0 -137.8 88.75 -251 199 -251z" />
    <glyph glyph-name="t_a" unicode="ta" horiz-adv-x="834" 
d="M172 463v-355c0 -54.5996 27.5996 -91 69 -91c55.2002 0 87 39.2002 87 98v25h15v-25c0 -73.2002 -42.7998 -122 -107 -122c-76.7998 0 -128 51.5996 -128 129v341h-100v21h48c76 0 101 100 101 122v93h15v-172c0 -18 -3 -32 -10 -35v-1h207l-5 -28h-192zM407 97
c0 91 75 140 215 140h70v136c0 72 -35 109 -99 109c-82 0 -124 -49 -128 -114l-4 -50h-15l9 173c6.94043 -1.74023 16 -3 24 -3c27 0 64.8896 10 113 10c108 0 167 -48 167 -136v-315c0 -21 11 -28 23 -28c13 0 24 10 24 29v13h8v-13c0 -28.7002 -23.7402 -52 -53 -52
c-24.9502 0 -45.2598 21.5195 -47 49l-5 83h-8c-22 -102 -90 -135 -150 -135c-90 0 -144 42 -144 104zM474 97c0 -50 39 -81 87 -81c61 0 131 51 131 172v34h-66c-98 0 -152 -44 -152 -125z" />
    <glyph glyph-name="t_w" unicode="tw" horiz-adv-x="1091" 
d="M108 122v341h-100v21h48c76 0 101 100 101 122v93h15v-172c0 -18 -3 -32 -10 -35v-1h152l-5 -28h-137v-355c0 -54.5996 27.5996 -91 69 -91c55.2002 0 87 39.2002 87 98v25h15v-25c0 -73.2002 -42.7998 -122 -107 -122c-76.7998 0 -128 51.5996 -128 129zM570 -4
l-165 436c-15 40 -20 51 -48 51h-12v8h120v-12c0 -12 0.450195 -24.5 5 -36l127 -321c2.53027 -6.38965 5 -26 5 -34h9c0 3 2 13 7 30l88.9502 294.21l-5.9502 19.79c-12 39 -19 51 -49 51h-19v8h191v-8h-42c-11.7803 0 -18.6699 -9.2998 -18.6699 -23.4199
c0 -4.99023 0.860352 -10.5801 2.66992 -16.5801l98 -325c4 -14 5 -24 5 -30h9c0 4 4 16 10 32l94.1201 245.5l15.8799 67.5c1.74023 7.40039 2.74023 14.0303 2.74023 19.8496c0 19.6504 -11.3398 30.1504 -43.7402 30.1504h-15v8h143v-8h-5c-27 0 -36.29 -19.6904 -50 -51
l-31.1904 -71.25l-138.81 -363.75l-28 -1l-115.32 384.15l-115.68 -384.15h-31z" />
    <glyph glyph-name="t_y" unicode="ty" horiz-adv-x="827" 
d="M108 122v341h-100v21h48c76 0 101 100 101 122v93h15v-172c0 -18 -3 -32 -10 -35v-1h152l-5 -28h-137v-355c0 -54.5996 27.5996 -91 69 -91c55.2002 0 87 39.2002 87 98v25h15v-25c0 -73.2002 -42.7998 -122 -107 -122c-76.7998 0 -128 51.5996 -128 129zM578 -5
c2.99023 7.53027 4.75 15.79 4.75 24.2002c0 7.62012 -1.4502 15.3701 -4.75 22.7998l-169 390c-16 38 -22 51 -50 51h-13v8h161v-8h-59v-1c11 -4 20.3701 -24.8701 27 -40l134 -306c5 -12 6 -30 6 -35v-2h3l104 265l20 68c2.87988 9.33008 4.36035 17.2002 4.36035 23.7402
c0 19.4697 -13.1006 27.2598 -41.3604 27.2598h-28v8h145v-7c-24 0 -34 -16 -50 -53l-32 -72l-177 -449c-22 -56 -62 -99 -111 -99c-35 0 -63 35 -63 78c24 -11 44 -19 70 -19c36 0 73.6602 10.7305 94 62z" />
    <glyph glyph-name="w_w_w" unicode="www" horiz-adv-x="2196" 
d="M1675 -4l-165 436c-6.37988 16.8604 -17 40 -27 50l-6 5v4h92v-12c0 -12 1.4502 -24.5 6 -36l127 -321c2.53027 -6.38965 5 -26 5 -34h9c0 3 2 13 7 30l88.9502 294.21l-5.9502 19.79c-12 39 -19 51 -49 51h-19v8h191v-8h-42
c-11.7803 0 -18.6699 -9.2998 -18.6699 -23.4199c0 -4.99023 0.859375 -10.5801 2.66992 -16.5801l98 -325c4 -14 5 -24 5 -30h9c0 4 4 16 10 32l94.1201 245.5l15.8799 67.5c1.74023 7.40039 2.74023 14.0303 2.74023 19.8496c0 19.6504 -11.3398 30.1504 -43.7402 30.1504
h-15v8h143v-8h-5c-27 0 -36.29 -19.6904 -50 -51l-31.1895 -71.25l-138.811 -363.75l-28 -1l-115.32 384.15l-115.68 -384.15h-31zM955 -4l-165 436c-6.37988 16.8604 -17 40 -27 50l-6 5v4h92v-12c0 -12 1.4502 -24.5 6 -36l127 -321c2.53027 -6.38965 5 -26 5 -34h9
c0 3 2 13 7 30l88.9502 294.21l-5.9502 19.79c-12 39 -19 51 -49 51h-19v8h191v-8h-42c-11.7803 0 -18.6699 -9.2998 -18.6699 -23.4199c0 -4.99023 0.859375 -10.5801 2.66992 -16.5801l98 -325c4 -14 5 -24 5 -30h9c0 4 4 16 10 32l94.1201 245.5l15.8799 67.5
c1.74023 7.40039 2.74023 14.0303 2.74023 19.8496c0 19.6504 -11.3398 30.1504 -43.7402 30.1504h-15v8h143v-8h-5c-27 0 -36.29 -19.6904 -50 -51l-31.1895 -71.25l-138.811 -363.75l-28 -1l-115.32 384.15l-115.68 -384.15h-31zM233 -4l-165 436c-15 40 -20 51 -48 51
h-12v8h120v-12c0 -12 0.450195 -24.5 5 -36l127 -321c2.53027 -6.38965 5 -26 5 -34h9c0 3 2 13 7 30l88.9502 294.21l-5.9502 19.79c-12 39 -19 51 -49 51h-19v8h191v-8h-42c-11.7803 0 -18.6699 -9.2998 -18.6699 -23.4199c0 -4.99023 0.860352 -10.5801 2.66992 -16.5801
l98 -325c4 -14 5 -24 5 -30h9c0 4 4 16 10 32l94.1201 245.5l15.8799 67.5c1.74023 7.40039 2.74023 14.0303 2.74023 19.8496c0 19.6504 -11.3398 30.1504 -43.7402 30.1504h-15v8h143v-8h-5c-27 0 -36.29 -19.6904 -50 -51l-31.1904 -71.25l-138.81 -363.75l-28 -1
l-115.32 384.15l-115.68 -384.15h-31z" />
    <glyph glyph-name="r_y" unicode="ry" 
d="M584 42l-169 390c-7.30957 16.8701 -19 40 -29 50l-5 5v4h132v-8h-59v-1c11 -5 20.3604 -24.8398 27 -40l134 -306c5.20996 -11.9102 6 -30 6 -35v-2h3l104 265l20 68c2.58984 8.65039 4.26953 16.5498 4.26953 23.4102c0 16.9502 -10.2393 27.5898 -42.2695 27.5898h-27
v8h145v-7c-24 0 -34 -16 -50 -53l-32 -72l-177 -449c-22.3096 -56.5996 -62 -99 -111 -99c-35 0 -63 35 -63 78c24 -11 44 -19 70 -19c36 0 73 11 94 62l26 63c2 6 4 14 4 22s-1.08008 15.96 -5 25zM15 0v8h29c40 0 44 12 44 127v318c0 18 -10.7998 30 -27 30h-31v8h101
c10.9502 0 15 -4.0498 15 -15v-62c0 -28 -3 -64 -7 -76v-2h7c22 103 79 162 151 162c48.0996 0 71 -16.4502 71 -47c0 -24.29 -18.3701 -44 -41 -44c-23.7402 0 -43 19.2598 -43 43c0 8 4 20 10 26v1c-84 0 -141 -94 -141 -234v-109c0 -115 5 -127 45 -127h53v-7h-236z" />
    <glyph glyph-name="f_h" unicode="fh" horiz-adv-x="851" 
d="M336 0v8h29c40 0 44 12 44 127v433c0 98 -3 108 -25 108h-39v7h48c34 0 74 11 74 45v3h7v-188c0 -80 -14 -208 -15 -216h6c2 15 8 40 13 54c24 71 84 117 153 117c90 0 140 -50 140 -126v-237c0 -115 4 -127 44 -127h30v-8h-212v8h29c40 0 44 12 44 127v214
c0 82 -24 126 -82 126c-85 0 -150 -77 -150 -195v-145c0 -115 5 -127 45 -127h29v-8h-212zM15 0v8h35c32 0 38 12 38 44v408h-73v22h73c-5 15 -18 75 -18 107c0 67 60 109 142 109c43.8701 0 66.0996 -16.6904 90.1602 -16.6904c4.57031 0 8.42969 0.510742 12.8398 1.69043
v-141h-15v8c0 106 -41 132 -88 132c-53 0 -92 -37 -92 -93c0 -46 19 -84 32 -107h150v-22h-149v-429c0 -13 0 -16 -6 -22v-1h70v-8h-202z" />
    <glyph glyph-name="f_k" unicode="fk" horiz-adv-x="831" 
d="M409 134v517c0 16 -9 25 -25 25h-39v7h48c34 0 70 8 78 40l2 8h6l-5 -143v-320c30 0 47 2 55 12l95 108l31 41c8.87988 11.71 14.1797 22.7598 14.1797 31.7803c0 13.3301 -11.5596 22.2197 -40.1797 22.2197h-4v8h184v-8h-7c-35 0 -82 -21 -120 -59l-47 -46l-90 -103v-3
c128 -29 144 -94 152 -158c8 -66 22 -103 71 -103c11 0 26 4 41 16l11 9l4 -6l-10 -8c-24.2695 -19.4102 -47 -31 -68 -31c-80 0 -105 53 -120 137c-11 65 -25 133 -141 133h-11v-127c0 -114 5 -126 45 -126h29v-8h-212v8h29c40 0 44 12.002 44 126zM15 0v8h35
c32 0 38 12 38 44v408h-73v22h73c-5 15 -18 75 -18 107c0 67 60 109 142 109c43.8701 0 66.0996 -16.6904 90.1602 -16.6904c4.57031 0 8.42969 0.510742 12.8398 1.69043v-141h-15v8c0 106 -41 132 -88 132c-53 0 -92 -37 -92 -93c0 -46 19 -84 32 -107h150v-22h-149v-429
c0 -13 0 -16 -6 -22v-1h70v-8h-202z" />
    <glyph glyph-name="t_e" unicode="te" horiz-adv-x="883" 
d="M401 248c0 138 114 250 254 250c117 0 194 -65 194 -167c0 -21 -11 -35 -28 -35h-345.64c-2.2207 -16.5 -3.36035 -33.8604 -3.36035 -52c0 -128 78 -227 198 -227c63 0 132 23 173 79l12 -9c-44 -59 -115 -94 -203 -94c-150 0 -251 103 -251 255zM477.74 311l288.26 6
c8 0 14 5 14 15c0 93 -52 150 -129 150c-90.0195 0 -154.35 -66.2002 -173.26 -171zM172 463v-355c0 -54.5996 27.5996 -91 69 -91c55.2002 0 87 39.2002 87 98v25h15v-25c0 -73.2002 -42.7998 -122 -107 -122c-76.7998 0 -128 51.5996 -128 129v341h-100v21h48
c76 0 101 100 101 122v93h15v-172c0 -18 -3 -32 -10 -35v-1h207l-5 -28h-192z" />
    <glyph glyph-name="f_o" unicode="fo" horiz-adv-x="899" 
d="M597 -7c-160.8 0 -268 101.2 -268 253c0 138.6 121.14 252 268 252c160.53 0 268 -101.3 268 -252c0 -138.9 -120.06 -253 -268 -253zM599 8c116.22 0 195 90.0498 195 224c0 137.5 -90.25 250 -201 250c-115.99 0 -193 -88.9805 -193 -223c0 -137.8 88.75 -251 199 -251
zM15 0v8h35c32 0 38 12 38 44v408h-73v22h73c-5 15 -18 75 -18 107c0 67 73 109 172 109c78.2803 0 98.6104 -23 131 -23v-133h-15v8c0 106 -54 132 -116 132c-69 0 -122 -37 -122 -93c0 -46 19 -84 32 -107h116v-22h-115v-429c0 -13 0 -16 -6 -22v-1h70v-8h-202z" />
    <glyph glyph-name="w_w" unicode="ww" horiz-adv-x="1475" 
d="M233 -4l-165 436c-15 40 -20 51 -48 51h-12v8h120v-12c0 -12 0.450195 -24.5 5 -36l127 -321c2.53027 -6.38965 5 -26 5 -34h9c0 3 2 13 7 30l88.9502 294.21l-5.9502 19.79c-12 39 -19 51 -49 51h-19v8h191v-8h-42c-11.7803 0 -18.6699 -9.2998 -18.6699 -23.4199
c0 -4.99023 0.860352 -10.5801 2.66992 -16.5801l98 -325c4 -14 5 -24 5 -30h9c0 4 4 16 10 32l94.1201 245.5l15.8799 67.5c1.74023 7.40039 2.74023 14.0303 2.74023 19.8496c0 19.6504 -11.3398 30.1504 -43.7402 30.1504h-15v8h143v-8h-5c-27 0 -36.29 -19.6904 -50 -51
l-31.1904 -71.25l-138.81 -363.75l-28 -1l-115.32 384.15l-115.68 -384.15h-31zM954 -4l-165 436c-6.37988 16.8604 -17 40 -27 50l-6 5v4h92v-12c0 -12 1.4502 -24.5 6 -36l127 -321c2.53027 -6.38965 5 -26 5 -34h9c0 3 2 13 7 30l88.9502 294.21l-5.9502 19.79
c-12 39 -19 51 -49 51h-19v8h191v-8h-42c-11.7803 0 -18.6699 -9.2998 -18.6699 -23.4199c0 -4.99023 0.859375 -10.5801 2.66992 -16.5801l98 -325c4 -14 5 -24 5 -30h9c0 4 4 16 10 32l94.1201 245.5l15.8799 67.5c1.74023 7.40039 2.74023 14.0303 2.74023 19.8496
c0 19.6504 -11.3398 30.1504 -43.7402 30.1504h-15v8h143v-8h-5c-27 0 -36.29 -19.6904 -50 -51l-31.1895 -71.25l-138.811 -363.75l-28 -1l-115.32 384.15l-115.68 -384.15h-31z" />
    <glyph glyph-name="r_p" unicode="rp" horiz-adv-x="919" 
d="M411 496h12v-55c0 -57.4199 12.4199 -80.2803 27.5098 -80.2803c15.4004 0 21.1201 36.71 62.9902 79.5801c37.2402 38.1201 89.6299 57.7002 143.5 57.7002c152 0 228 -127 228 -253s-76 -252 -228 -252c-77 0 -149 39 -176 117l-5 15.5v-173.5c0 -115 5 -128 45 -128
h30v-7h-213v7h29c40 0 44 13 44 128v544zM476 211c0 -131 82 -195 165 -195c116 0 173 99 173 214s-57 245 -173 245c-83 0 -165 -64 -165 -195v-69zM15 0v8h29c40 0 44 12 44 127v318c0 18 -10.7998 30 -27 30h-31v8h101c10.9502 0 15 -4.0498 15 -15v-62
c0 -28 -3 -64 -7 -76v-2h7c22 103 79 162 151 162c48.0996 0 71 -16.4502 71 -47c0 -24.29 -18.3701 -44 -41 -44c-23.7402 0 -43 19.2598 -43 43c0 8 4 20 10 26v1c-84 0 -141 -94 -141 -234v-109c0 -115 5 -127 45 -127h53v-7h-236z" />
    <glyph glyph-name="f_f" unicode="ff" horiz-adv-x="671" 
d="M340 0v8h35c32 0 38 12 38 44v408h-73v22h73c-5 15 -18 75 -18 107c0 68 66 109 155 109c68 0 84.75 -23 115 -23v-133h-15v8c0 106 -47 132 -100 132c-60 0 -105 -37 -105 -93c0 -46 19 -84 32 -107h132v-22h-131v-429c0 -13 0 -16 -6 -22v-1h70v-8h-202zM15 0v8h35
c32 0 38 12 38 44v408h-73v22h73c-5 15 -18 75 -18 107c0 67 60 109 142 109c43.8701 0 66.0996 -16.6904 90.1602 -16.6904c4.57031 0 8.42969 0.510742 12.8398 1.69043v-141h-15v8c0 106 -41 132 -88 132c-53 0 -92 -37 -92 -93c0 -46 19 -84 32 -107h150v-22h-149v-429
c0 -13 0 -16 -6 -22v-1h70v-8h-202z" />
    <glyph glyph-name="f_l" unicode="fl" horiz-adv-x="566" 
d="M15 0v8h35c32 0 38 12 38 44v408h-73v22h73c-5 15 -18 75 -18 107c0 67 60 109 142 109c43.8701 0 66.0996 -16.6904 90.1602 -16.6904c4.57031 0 8.42969 0.510742 12.8398 1.69043v-141h-15v8c0 106 -41 132 -88 132c-53 0 -92 -37 -92 -93c0 -46 19 -84 32 -107h150
v-22h-149v-429c0 -13 0 -16 -6 -22v-1h70v-8h-202zM339 0v8h29c40 0 45 12 45 126v517c0 16 -9 25 -25 25h-39v7h48c34 0 75 11 75 45v3h6v-597c0 -114 5 -126 45 -126h30v-8h-214z" />
    <glyph glyph-name="uniFB03" unicode="ffi" horiz-adv-x="913" 
d="M793 658c22 0 37 -13 37 -36c0 -22 -14 -38 -37 -38c-22 0 -38 15 -38 38c0 22 15 36 38 36zM760 134v319c0 18 -10.7998 30 -27 30h-31v8h113c7.2998 0 10 -2.7002 10 -10v-347c0 -114 5 -126 45 -126h30v-8h-213v8h29c40 0 44 12 44 126zM15 0v8h35c32 0 38 12 38 44
v408h-73v22h73c-5 15 -18 75 -18 107c0 67 60 109 142 109c43.8701 0 66.0996 -16.6904 90.1602 -16.6904c4.57031 0 8.42969 0.510742 12.8398 1.69043v-141h-15v8c0 106 -41 132 -88 132c-53 0 -92 -37 -92 -93c0 -46 19 -84 32 -107h150v-22h-149v-429
c0 -13 0 -16 -6 -22v-1h70v-8h-202zM340 0v8h35c32 0 38 12 38 44v408h-73v22h73c-5 15 -18 75 -18 107c0 68 66 109 155 109c68 0 84.75 -23 115 -23v-133h-15v8c0 106 -47 132 -100 132c-60 0 -105 -37 -105 -93c0 -46 19 -84 32 -107h132v-22h-131v-429
c0 -13 0 -16 -6 -22v-1h70v-8h-202z" />
    <glyph glyph-name=".notdef" horiz-adv-x="268" 
d="M49 24h147v444h-147v-444zM24 0v492h197v-492h-197z" />
    <glyph glyph-name="space" unicode=" " horiz-adv-x="221" 
 />
    <glyph glyph-name="exclam" unicode="!" horiz-adv-x="192" 
d="M59 671c0 4 18 12 37 12s37 -6 37 -11c0 -162 -29 -328 -29 -490h-15c0 162 -30 327 -30 489zM96 67c22 0 37 -15 37 -38c0 -22 -14 -37 -37 -37c-22 0 -37 14 -37 37c0 22 14 38 37 38z" />
    <glyph glyph-name="quotedbl" unicode="&#x22;" horiz-adv-x="191" 
d="M118 541l11 133c28.3418 -1.23242 41.6406 -8.65137 41.6406 -26.5479c0 -9.78418 -4.50293 -22.4697 -11.6406 -39.4521l-29 -69zM27 541l11 133c28.3418 -1.23242 41.6406 -8.65137 41.6406 -26.5479c0 -9.78418 -4.50293 -22.4697 -11.6406 -39.4521l-29 -69z" />
    <glyph glyph-name="numbersign" unicode="#" horiz-adv-x="384" 
d="M112 46l-16 2l14 138h-88v16h90l13 124h-88v16h89l14 135l16 -2l-14 -133h110l14 135l16 -2l-14 -133h94v-16h-96l-13 -124h95v-16h-96l-14 -140l-16 2l14 138h-110zM140 326l-12 -124h110l13 124h-111z" />
    <glyph glyph-name="dollar" unicode="$" horiz-adv-x="407" 
d="M26 237l15 1l3 -47c7 -98 70 -149 149 -149v246c-73 30 -150 61 -150 150c0 77 59 129 150 134v96h15v-96c43 0 72 -8 105 -8c9 0 18 0 29 2l9 -174h-15l-2 34c-3 66 -45 130 -126 131v-210c78 -33 172 -62 172 -166c0 -96 -65 -150 -172 -154v-96h-15v96
c-47 0 -97 14 -129 14c-10 0 -22 -2 -29 -4zM193 353v204c-59 -5 -92 -40 -92 -101c0 -54 41 -80 92 -103zM208 282v-239c68 5 109 49 109 125c0 62 -51 89 -109 114z" />
    <glyph glyph-name="percent" unicode="%" horiz-adv-x="539" 
d="M383 18c43.2695 0 72 38.0996 72 95c0 60.1699 -33 109 -74 109c-42.3896 0 -71 -37.9004 -71 -95c0 -59.9502 32.8496 -109 73 -109zM382 5c-72 0 -120 45.8799 -120 115c0 63.25 53.6396 115 120 115c72.2402 0 121 -46.3398 121 -115
c0 -63.25 -54.4502 -115 -121 -115zM465 519l11 -10l-396 -435l-11 11zM158 377c43.2695 0 72 38.0996 72 95c0 60.1699 -33 109 -74 109c-42.3896 0 -71 -37.9102 -71 -95c0 -59.9502 32.8496 -109 73 -109zM157 364c-72 0 -120 45.8896 -120 115
c0 63.25 53.6396 115 120 115c72.2402 0 121 -46.3398 121 -115c0 -63.25 -54.4502 -115 -121 -115z" />
    <glyph glyph-name="ampersand" unicode="&#x26;" horiz-adv-x="512" 
d="M223 568c38.4199 0 64.2402 -6.5293 83.3799 -11.5391c11.4297 -2.99023 21.5596 -4.45996 31.6191 -4.45996l3 -140h-15l-2 35c-2.50977 43.9502 -24 106 -102 106c-60.5996 0 -101 -41.5 -101 -104c0 -58 43 -120 96 -120h13v-15h-18c-76 0 -120 -57 -120 -158
c0 -85.7998 62.7998 -143 157 -143c100.2 0 167 52 167 130c0 53 -36 106 -94 106c-39 0 -65 -24.7598 -65 -59c0 -25.3896 21.5 -46 48 -46l-0.00976562 -12c-36.5898 0 -66.8994 31.8896 -66.8994 68.2695c0 42.1699 39.0098 90.0195 128.91 95.7295c62 4 127 10 127 71
v10h11c1.5498 -12.9297 2 -23.9697 2 -37c0 -81 -52 -90 -116 -90h-17c36 -21 58 -65 58 -109c0 -88.7998 -80 -148 -200 -148c-123.6 0 -206 65.2002 -206 163c0 88 57 157 139 168v1c-44 8 -91 66 -91 119c0 68.4502 66.75 124 149 124z" />
    <glyph glyph-name="quotesingle" unicode="'" horiz-adv-x="104" 
d="M27 541l11 133.001c28.3418 -1.23242 41.6406 -8.65137 41.6406 -26.5488c0 -9.78418 -4.50293 -22.4697 -11.6406 -39.4521l-29 -69z" />
    <glyph glyph-name="parenleft" unicode="(" horiz-adv-x="226" 
d="M28 246c0 166 66 340 175 449l11 -11c-75 -75 -115 -265 -115 -438s40 -363 115 -438l-11 -11c-109 109 -175 283 -175 449z" />
    <glyph glyph-name="parenright" unicode=")" horiz-adv-x="226" 
d="M198 246c0 -166 -66 -340 -175 -449l-11 11c75 75 115 265 115 438s-40 363 -115 438l11 11c109 -109 175 -283 175 -449z" />
    <glyph glyph-name="asterisk" unicode="*" horiz-adv-x="221" 
d="M123 581l70 -33l1 -3l-9 -16h-3l-64 43l-1 2l-2 -1l2 -2l5 -77l-1 -3h-19l-2 3l5 77l2 2l-2 1l-1 -2l-64 -43h-3l-9 16l1 3l69 33h2v3l-2 -1l-69 34l-1 3l9 16h3l64 -43l1 -2l2 1l-2 2l-5 77l2 3h19l1 -3l-5 -77l-2 -2l2 -1l1 2l64 43h3l9 -16l-1 -3l-70 -34l-1 1v-3h1z
" />
    <glyph glyph-name="plus" unicode="+" horiz-adv-x="361" 
d="M195 275h145l-2 -23h-143v-146l-23 2v144h-150l1 23h149v150l23 -1v-149z" />
    <glyph glyph-name="comma" unicode="," horiz-adv-x="162" 
d="M50 -68c22 0 44 23 48 46c1 7 1 16 3 19l-3 1c-2 -3 -10 -6 -16 -6c-24 0 -38 13 -38 37s14 38 38 38c22 0 36 -16 36 -38c0 -62 -27 -104 -68 -104v7z" />
    <glyph glyph-name="hyphen" unicode="-" horiz-adv-x="310" 
d="M292 252h-277l3 23h278z" />
    <glyph glyph-name="period" unicode="." horiz-adv-x="162" 
d="M82 67c22 0 36 -15 36 -38c0 -22 -13 -37 -36 -37c-22 0 -38 14 -38 37c0 22 15 38 38 38z" />
    <glyph glyph-name="slash" unicode="/" horiz-adv-x="468" 
d="M15 -188l415 880l22 -11l-416 -880z" />
    <glyph glyph-name="zero" unicode="0" horiz-adv-x="484" 
d="M238 591c-81 0 -135 -105 -135 -262c0 -177 63 -321 141 -321c75 0 136 118 136 262c0 192 -57 321 -142 321zM241 606c125 0 209 -122 209 -306c0 -169 -94 -307 -209 -307c-124 0 -207 123 -207 307c0 169 92 306 207 306z" />
    <glyph glyph-name="one" unicode="1" horiz-adv-x="270" 
d="M262 0h-254v8h54c40 0 45 12 45 134v307c0 19 0 37 2 49l-3 1c-3 -5 -9 -14 -21 -26l-55 -63l-6 4l32 41c64 82 105 133 105 151h11v-464c0 -122 4 -134 44 -134h46v-8z" />
    <glyph glyph-name="two" unicode="2" horiz-adv-x="388" 
d="M358 0l-328.999 0.000976562v52c8 1 44 20 71 55c102 134 185 260 185 358c0 78 -39 126 -104 126c-71 0 -106 -56 -114 -112v-28h-15v110c4 0 8 1 9 2c31 28 77 43 120 43c102 0 169 -61 169 -151c0 -116 -127 -252 -254 -373l-35 -30l3 -4c6 1 35 4 48 4h120
c78 0 119.56 7.01953 124.449 82.9893l1.5498 24.0098l10 -1z" />
    <glyph glyph-name="three" unicode="3" horiz-adv-x="397" 
d="M29 52v106h15v-26c5 -58 48 -124 126 -124s130 62 130 154c0 101 -48 175 -124 175h-76v15h63c68 0 110 57 110 130c0 60 -45 109 -102 109c-78 0 -107 -62 -111 -115v-28h-14v121c6 0 17 6 28 12c27 16 66 24 96 25c96 0 161 -49 161 -123c0 -62 -47 -126 -101 -136v-1
c82 -11 138 -96 138 -184c0 -93 -89 -169 -198 -169c-44 0 -100 19 -141 59z" />
    <glyph glyph-name="four" unicode="4" horiz-adv-x="413" 
d="M38 148h232v200h60v-200h55v-30h-55v-9c0 -74 14 -101 52 -101h16v-8h-219v8h38c38 0 53 27 53 101v9h-255v19c114.5 237 159 397.67 159 454v8c56.5 0 88 1 105 33l5 -1z" />
    <glyph glyph-name="five" unicode="5" horiz-adv-x="405" 
d="M29 55v103h15v-26c2 -54 48 -124 126 -124s130 74 130 184c0 101 -58 184 -130 184c-42 0 -87 -16 -115 -38h-14l15 233c1 18 2 28 4 28h222c40 0 45 2 50 40l1 5l8 -1l-6 -95h-214c-50 0 -51 -2 -54 -48l-10 -142c32 21 74 33 113 33c120 0 199 -80 199 -199
c0 -110 -89 -199 -199 -199c-44 1 -102 20 -141 62z" />
    <glyph glyph-name="six" unicode="6" horiz-adv-x="432" 
d="M222 -7c-109.38 0 -184 113.24 -184 281c0 199 81 332 195 332c67 0 113 -24 126 -24v-121h-8v11c-10 51 -40 119 -118 119c-82 0 -129 -137 -129 -309h4c26 64 77 96 128 96c100.46 0 168 -78.0098 168 -196c0 -103.57 -81.9004 -189 -182 -189zM222 8
c62.04 0 113 78.1299 113 174c0 99.9004 -46.7002 180 -104 180c-58 0 -122 -70 -123 -175c9 -113 52 -179 114 -179z" />
    <glyph glyph-name="seven" unicode="7" horiz-adv-x="376" 
d="M191 0h-69v40c0 185 135 430 180 484c8 9 18 20 23 22l-1 5c-7 -2 -49 -3 -62 -3h-184c-41 0 -47 -2 -49 -40l-3 -47h-8l9 138h335v-41c-32 -9 -170 -210 -171 -468v-90z" />
    <glyph glyph-name="eight" unicode="8" horiz-adv-x="450" 
d="M225 8c78.6504 0 130 65.2002 130 163c0 99.7656 -51.3496 166 -130 166c-77.6104 0 -130 -66.2344 -130 -166c0 -89.9756 58.6299 -163 130 -163zM225 352c58 0 96 48 96 121c0 65 -43 118 -96 118c-57 0 -95 -48 -95 -118c0 -73 38 -121 95 -121zM225 -7
c-118.604 0 -199 72.0898 -199 178c0 88 65 164 147 175v1c-54 10 -100 66 -100 128c0 72 68 131 152 131c92 0 153 -53 153 -131c0 -62 -47 -118 -101 -128v-1c82 -11 147 -87 147 -175c0 -97.9004 -89.749 -178 -199 -178z" />
    <glyph glyph-name="nine" unicode="9" horiz-adv-x="432" 
d="M210 606c109.38 0 184 -113.24 184 -281c0 -199 -81 -332 -195 -332c-67 0 -113 24 -126 24v121h8v-11c10 -51 40 -119 118 -119c82 0 129 137 129 309h-4c-26 -64 -77 -96 -128 -96c-100.46 0 -168 78.0098 -168 196c0 103.57 81.9004 189 182 189zM210 591
c-62.04 0 -113 -78.1299 -113 -174c0 -99.9004 46.7002 -180 104 -180c58 0 122 70 123 175c-9 113 -52 179 -114 179z" />
    <glyph glyph-name="colon" unicode=":" horiz-adv-x="162" 
d="M82 67c22 0 36 -15 36 -38c0 -22 -13 -37 -36 -37c-22 0 -38 14 -38 37c0 22 15 38 38 38zM82 359c22 0 36 -14 36 -37c0 -22 -13 -37 -36 -37c-22 0 -38 14 -38 37c0 22 15 37 38 37z" />
    <glyph glyph-name="semicolon" unicode=";" horiz-adv-x="162" 
d="M82 359c22 0 36 -14 36 -37c0 -22 -13 -37 -36 -37c-22 0 -38 14 -38 37c0 22 15 37 38 37zM118 29c0 -62 -27 -104 -68 -104v15c22 0 39 24 42 42c1 7 4 12 6 15l-3 1c-2 -3 -7 -6 -13 -6c-24 0 -38 13 -38 37s14 38 38 38c22 0 36 -16 36 -38z" />
    <glyph glyph-name="less" unicode="&#x3c;" horiz-adv-x="310" 
d="M255 461l29 -30l-187 -125c-28 -18 -57 -40 -69 -42v-3c12 -2 41 -23 69 -42l187 -125l-29 -30l-243 194v10z" />
    <glyph glyph-name="equal" unicode="=" horiz-adv-x="384" 
d="M352 310h-323l3 22h322zM352 192h-323l3 22h322z" />
    <glyph glyph-name="greater" unicode="&#x3e;" horiz-adv-x="310" 
d="M55 461l243 -193v-10l-243 -194l-29 30l187 127c28 18 53 38 65 40v3c-12 2 -37 22 -65 40l-187 127z" />
    <glyph glyph-name="question" unicode="?" horiz-adv-x="335" 
d="M309 549c0 -113.66 -178 -204.199 -178 -303.999c0 -30 16 -44 30 -44c12 0 23 10 23 29v13h8v-13c0 -31 -19 -48 -40 -48c-23 0 -48 21 -48 67c0 93.7998 142 212.899 142 299.999c0 72 -35 116 -101 116c-66.9502 0 -103 -38.1504 -103 -109v-39h-15v158
c4.41992 -0.669922 14.9199 -2 21 -2c24.1699 0 76.5 10 96 10c98 0 165 -54 165 -134zM151 67.001c22 0 37 -15 37 -38c0 -22 -14 -37 -37 -37c-22 0 -37 14 -37 37c0 21 16 38 37 38z" />
    <glyph glyph-name="at" unicode="@" horiz-adv-x="715" 
d="M520 530l-4 -29h1l-30 -273c-1 -9 -3 -20 -3 -29c0 -43 15 -70 43 -70c80 0 144 100 144 223c0 147 -132 267 -293 267c-184 0 -333 -142 -333 -317c0 -177 133 -321 296 -321c67 0 143 25 183 67l11 -10c-43 -45 -123 -72 -194 -72c-172 0 -311 151 -311 336
c0 184 156 332 348 332c170 0 308 -127 308 -282c0 -132 -73 -238 -162 -238c-38 0 -69 32 -83 98h-6c-20 -46 -61 -99 -126 -99c-70 0 -134 59 -134 170c0 106 62 215 200 215c33 0 66 -8 97 -24c25 0 32 9 37 35l2 22zM453 466c0 0 -34 16 -74 16
c-102 0 -144 -112 -144 -210c0 -85 33 -142 81 -142c43 0 98 52 116 137z" />
    <glyph glyph-name="A" unicode="A" horiz-adv-x="590" 
d="M7 0v8.00098c7 0 30 3 54 51l37 75l184 424c6.51953 15.0098 14 33 15 45h17l213 -544c16 -40 21 -51 49 -51h6v-8h-163v8h19c8.07031 0 27.8398 2.59961 27.8398 22.5c0 4.76953 -1.12988 10.5391 -3.83984 17.499l-51.1699 131h-178.83l-96 -1.74023l-21 -49.2598
l-23 -69c-3 -8 -4 -15 -4 -21c0 -19 15 -30 40 -30h28v-8h-149zM144.24 196.571l91.7598 -2.57031h168.97l-108.97 279c-6 17 -8 31 -8 49h-5z" />
    <glyph glyph-name="B" unicode="B" horiz-adv-x="508" 
d="M156 55c0 -26 8 -40 23 -40h58c103 0 173 63 173 158c0 100 -75 172 -178 172h-44v15h33c73 0 127 46 127 112c0 68 -55 112 -138 112h-68v-1c10 -10 14 -24 14 -43v-485zM15 0v8h29c39.5996 0 44 12.7002 44 127v329c0 114.3 -4.40039 127 -44 127h-29v8h206
c118 0 198 -50 198 -126c0 -48 -44 -106 -120 -116v-4c107 -8 183 -95 183 -180c0 -104 -101 -173 -230 -173h-237z" />
    <glyph glyph-name="C" unicode="C" horiz-adv-x="543" 
d="M29 302c0 168 130 304 291 304c50 0 96 -15 135 -15c12 0 25 1 37 4l6 -213h-15l-2 72c-2.29004 82.3096 -86 138 -168 138c-126 0 -210 -111 -210 -277c0 -199.06 112.17 -298 223 -298c80.79 0 150.6 36.1299 182 105l14 -5c-33 -83 -113 -124 -201 -124
c-175 0 -292 124 -292 309z" />
    <glyph glyph-name="D" unicode="D" horiz-adv-x="597" 
d="M179 15h43c180 0 277 100 277 285c0 157 -120 284 -270 284h-87v-1c10 -10 14 -20 14 -39v-489c0 -26 8 -40 23 -40zM15 0v8h29c39.5996 0 44 12.7002 44 127v329c0 114.3 -4.40039 127 -44 127h-29v8h230c196 0 326 -119 326 -299s-130 -300 -326 -300h-230z" />
    <glyph glyph-name="E" unicode="E" horiz-adv-x="463" 
d="M291 172h-11v46c0 80 -43 89 -90 89h-34v-252c0 -27 9 -40 23 -40h121c80 0 116 36 123 113l6 66h13l-11 -186c-6 -6 -18 -8 -31 -8h-385v8h29c40 0 44 12 44 127v329c0 115 -4 127 -44 127h-29v8h344c13 0 25 -1 31 -7l12 -187h-15l-4 58c-6 88 -48 121 -128 121h-117
v-1c10 -10 18 -25 18 -43v-218h34c47 0 90 8 90 88v29h11v-267z" />
    <glyph glyph-name="F" unicode="F" horiz-adv-x="424" 
d="M15 0v8h29c40 0 44 12 44 127v329c0 115 -4 127 -44 127h-29v8h359c13 0 16 -1 22 -7l12 -187h-15l-4 58c-6 87 -70 121 -150 121h-101v-1c10 -10 18 -25 18 -43v-248h30c47 0 104 8 104 88v50h11v-276h-11v34c0 57 -37 89 -104 89h-30v-142c0 -115 5 -127 45 -127h54v-8
h-240z" />
    <glyph glyph-name="G" unicode="G" horiz-adv-x="584" 
d="M515 -33h-7v58c-1 21 -16 41 -34 41c-8 0 -16 -4 -24 -12c-38 -40 -91 -61 -148 -61c-164 0 -274 124 -274 309c0 168 127 304 285 304c55 0 92 -15 133 -15c12 0 24 2 36 4l11 -213l-15 0.00976562l-3 55.9902c-5.2002 97.0801 -85 153 -170 153
c-123 0 -205 -110 -205 -276c0 -169 92 -307 205 -307c55 1 108 23 142 69v67c0 107 -7 119 -77 119h-95v15h248c-7 -23 -8 -47 -8 -83v-228z" />
    <glyph glyph-name="H" unicode="H" horiz-adv-x="542" 
d="M15 0v8h29c39.5996 0 44 12.5996 44 126v330c0 114.3 -4.40039 127 -44 127h-29v8h208v-8h-22c-40.5 0 -45 -12.7002 -45 -127v-141h229v138c0 117 -4.5 130 -45 130h-22v8h209v-8h-30c-39.5996 0 -44 -13 -44 -130v-326c0 -114.3 4.40039 -127 44 -127h30v-8h-209v8h23
c39.5996 0 44 12.7002 44 127v173h-229v-174c0 -113.4 4.5 -126 45 -126h22v-8h-208z" />
    <glyph glyph-name="I" unicode="I" horiz-adv-x="244" 
d="M15 0v8h29c39.5996 0 44 12.7002 44 127v331c0 112.5 -4.40039 125 -44 125h-29v8h214v-10h-29c-39.5996 0 -44 -12.5 -44 -125v-329c0 -114.3 4.40039 -127 44 -127h29v-8h-214z" />
    <glyph glyph-name="J" unicode="J" horiz-adv-x="344" 
d="M42 599h291v-8h-21c-40 0 -45 -12 -45 -127v-333c0 -84 -58 -140 -136 -140c-64 0 -107 42 -107 105h8c0 -55 35 -84 96 -84c38 0 71 24 71 89v466c0 13 1 16 7 22v2h-25c-76 0 -124 -32 -132 -118l-5 -56h-13z" />
    <glyph glyph-name="K" unicode="K" horiz-adv-x="506" 
d="M15 0v8h29c40 0 44 12 44 134v322c0 114.3 -4.40039 127 -44 127h-29v8h194v-8h-7c-41 0 -46 -12 -46 -127v-104c30 0 47 2 55 12l99 125l28 41c8.30957 11.6396 13.6895 22.75 13.6895 31.7695c0 12.6904 -10.6396 21.2305 -38.6895 21.2305h-6v8h184v-8h-3
c-35 0 -82 -21 -120 -59l-47 -46l-95 -119l1 -4c132 -29 148 -137 160 -234c8 -66 15 -118 64 -118c11 0 25 4 40 16l11 9l4 -6l-10 -8c-24.2695 -19.4102 -47 -31 -68 -31c-82 0 -97 79 -111 163c-16 98 -35 198 -150 198h-11v-210c0 -122 5 -134 46 -134h29v-8h-216z" />
    <glyph glyph-name="L" unicode="L" horiz-adv-x="432" 
d="M15 0v8h29c40 0 44 13 44 133v324c0 114 -4 126 -44 126h-29v8h216v-8h-30c-40 0 -45 -12 -45 -126v-406c0 -18 -8 -33 -18 -43v-1h113c80 0 133 16 140 96l6 83h17l-13 -186c-6 -6 -10 -8 -23 -8h-363z" />
    <glyph glyph-name="M" unicode="M" horiz-adv-x="724" 
d="M8 0v8h8c46 0 56 14 56 142v398c0 32 -4 43 -41 43h-23v8h116l220 -452c8 -16 13 -31 13 -36h5c0 5 6.24023 23.8799 12 36l215 452h128v-8h-25c-43 0 -46 -19 -46 -59v-382c0 -128 5 -142 53 -142h18v-8h-220v8h30c46 0 51 13 51 134v351c0 13 0 28 1 37h-6
c-1 -2 -6 -16 -14 -34l-223 -470l-2 -6h-2l-2 6l-228 469c-8 16 -11 33 -11 35h-3c1 -8 1 -13 1 -28v-360c0 -121 9 -134 55 -134h26v-8h-162z" />
    <glyph glyph-name="N" unicode="N" horiz-adv-x="490" 
d="M15 0v8h17c32 0 49 21 49 127v413c0 40 -5 43 -45 43h-21v8h129l233 -420c9 -16 15 -28 15 -31h5c-1 9 -1 21 -1 35v266c0 104 -13 142 -49 142h-42v8h175v-8h-17c-36 0 -50 -22 -50 -142v-461h-9c0 4 -12 27 -24 48l-262 469c-9 15 -17 32 -17 33h-4c1 -9 1 -22 1 -36
v-367c0 -93 13 -127 49 -127h17v-8h-149z" />
    <glyph glyph-name="O" unicode="O" horiz-adv-x="644" 
d="M322 -7c-178 0 -296 123 -296 307c0 169 132 306 296 306c177 0 296 -122 296 -306c0 -169 -133 -307 -296 -307zM325 8c132 0 220 110 220 276c0 169 -101 307 -226 307c-132 0 -221 -111 -221 -276c0 -169 102 -307 227 -307z" />
    <glyph glyph-name="P" unicode="P" horiz-adv-x="483" 
d="M156 248h75c97 0 161 68 161 168c0 92 -72 167 -161 167h-89v-4c10 -13 14 -32 14 -51v-280zM15 0v8h29c40 0 44 12 44 127v329c0 115 -4 127 -44 127h-29v8h238c126 0 209 -73 209 -183c0 -101 -94 -183 -209 -183h-97v-98c0 -115 5 -127 45 -127h21v-8h-207z" />
    <glyph glyph-name="Q" unicode="Q" horiz-adv-x="653" 
d="M930 -68c-82 -90 -172 -121 -264 -121c-96 0 -193 33 -285 70c-58 24 -120 45 -211 45v13c38 0 78 18 118 36c86 40 264 138 264 346c0 148 -103 270 -228 270c-134 0 -222 -108 -222 -270c0 -121 58 -235 192 -294l-16 -9c-164 56 -249 175 -249 303
c0 157 135 285 299 285c178 0 296 -115 296 -285c0 -167 -159 -284 -322 -356l-60 -27c71 -2 282 -76 460 -76c90 0 172 19 223 75z" />
    <glyph glyph-name="R" unicode="R" horiz-adv-x="521" 
d="M15 0v8h29c40 0 44 12 44 127v329c0 115 -4 127 -44 127h-29v8h216c136 0 226 -71 226 -177c0 -96 -91 -157 -187 -169l-21 -3v-5c78.3701 -8.04004 116.37 -78.8096 149 -140c18.0996 -33.9404 51 -86 80 -86c8 0 17 3 25 10l19 16l4 -6l-18 -16
c-27 -23 -49 -32 -69 -32c-43 0 -74.0801 43.9502 -98 84c-86.2002 144.34 -104.94 171 -153 171h-8v14h38c92 0 167 73 167 163c0 89 -72 161 -160 161h-83v-1c10 -10 14 -24 14 -43v-405c0 -115 5 -127 45 -127h49v-8h-235z" />
    <glyph glyph-name="S" unicode="S" horiz-adv-x="398" 
d="M25 204l15 1l3 -47c7 -98 68 -149 147 -149c75 0 125 48 125 121c0 72 -62 113 -127 152c-72 43 -150 92 -150 189c0 81 67 135 165 135c44 0 73 -9 106 -9c9 0 18 0 29 2l9 -173l-15 -1l-2 35c-3 66 -45 131 -127 131c-68 0 -107 -36 -107 -102c0 -69 63 -107 128 -146
c74 -44 154 -95 154 -200c0 -90 -75 -149 -186 -149c-47 0 -97 14 -129 14c-10 0 -22 -2 -29 -4z" />
    <glyph glyph-name="T" unicode="T" horiz-adv-x="448" 
d="M82 0v8h64c40 0 44 12 44 127v449h-27c-72 0 -127 -15 -133 -96l-3 -34l-15 1l10 144h405l9 -144l-15 -1l-3 34c-6 80 -61 96 -133 96h-27v-449c0 -115 4 -127 44 -127h61v-8h-281z" />
    <glyph glyph-name="U" unicode="U" horiz-adv-x="487" 
d="M82 137v327c0 115 -5 127 -45 127h-22v8h216v-8h-37c-40 0 -44 -12 -44 -127v-349c0 -64 35 -99 101 -99c89 0 136 43 136 121v312c0 104 -12 142 -47 142h-30v8h163v-8h-21c-35 0 -48 -38 -48 -142v-312c0 -93 -54 -144 -153 -144c-100 0 -169 58 -169 144z" />
    <glyph glyph-name="V" unicode="V" horiz-adv-x="553" 
d="M265 -3l-197 542.999c-15 40 -20 51 -48 51h-12v8h120v-11c0 -12 1 -25 5 -36l165 -441c1 -2 4 -18 4 -30h6c0 7 2 16 8 32l126 357l18 71c1.62012 6.70996 2.60059 13 2.60059 18.6904c0 18.9102 -10.7803 31.3105 -44.6006 31.3105h-12v8h141v-8h-3
c-23 0 -38 -20 -51 -51l-32 -75l-167 -468h-29z" />
    <glyph glyph-name="W" unicode="W" horiz-adv-x="844" 
d="M386 540c-12 39 -18.999 50.999 -48.999 50.999h-7v8h191v-8h-54c-12.9902 0 -18.1602 -11.9697 -18.1602 -24.6494c0 -4.90039 0.769531 -9.89062 2.15918 -14.3506l131 -440c3 -10 6 -23 6 -30h9c0 2 2 17 8 33l126 355l17 71
c1.63965 6.84961 2.62988 13.21 2.62988 18.9404c0 18.9805 -10.8301 31.0605 -44.6299 31.0605h-12v8h144v-8h-4c-23 0 -37 -19 -50 -51l-32 -75l-170 -468h-34l-124.01 416.02l-122.99 -416.02h-36l-197 543c-15 40 -18 51 -48 51h-12v8h120v-11c0 -12 1 -25 5 -36
l164 -440c1 -2 4 -18 4 -30h7c0 1 4 16 9 33l97.46 329.6z" />
    <glyph glyph-name="X" unicode="X" horiz-adv-x="478" 
d="M143 129l-27 -62c-6 -14 -11 -26 -11 -36c0 -14 10 -24 36 -24h19v-7h-145v7c16 0 45 9 78 65l36 62l82 161l-108 232c-25 53 -42 64 -65 64h-9v8h143v-8h-45v-2c12 -4 32 -24 42 -45l92 -197l67 124l27 61c5.92969 12.71 10.75 25.2598 10.75 35.5
c0 13.8701 -8.84961 23.5 -35.75 23.5h-19v8h139v-8h-3c-25 0 -39 -13 -69 -64l-36 -62l-73 -135l120 -258c24 -51 33 -64 61 -64h14v-8h-193v8h17c32 0 45 6 45 20c0 5 -8 23 -16 41l-98 209z" />
    <glyph glyph-name="Y" unicode="Y" horiz-adv-x="479" 
d="M96 0v8h71c40 0 44 12 44 127v149l-130 250c-19.8096 38.0996 -31 57 -55 57h-18v8h158v-8h-52v-2c11 -4 21 -20 34 -45l108 -205c4 -8 10 -22 11 -27h5c1 5 7 19 11 27l69 133l27 60c7 15 11 27 11 37c0 14 -10 22 -36 22h-44v8h161v-8h-4c-21 0 -37 -15 -62 -58
l-40 -68l-86 -168v-162c0 -115 4 -127 44 -127h60v-8h-287z" />
    <glyph glyph-name="Z" unicode="Z" horiz-adv-x="437" 
d="M4 0v8c12 0 38 17 60 64l218 459c12 27 40 46 58 51v2h-128c-80 0 -150 -22 -158 -96l-2 -17l-9 1l6 118c6 7 11 9 24 9h337v-7c-9 0 -35 -17 -58 -65l-218 -457c-13 -27 -28 -44 -40 -52v-3h149c78 0 150 25 155 91l3 30h11l-7 -127c-8 -8 -10 -9 -22 -9h-379z" />
    <glyph glyph-name="bracketleft" unicode="[" horiz-adv-x="182" 
d="M26 -194v4c2 17 3 53 3 69v805h147v-15h-96v-1c10 -10 14 -25 14 -43v-759c0 -18 -4 -33 -14 -43v-2h96v-15h-150z" />
    <glyph glyph-name="backslash" unicode="\" horiz-adv-x="468" 
d="M452 -189l-22 -11l-415 880l22 11z" />
    <glyph glyph-name="bracketright" unicode="]" horiz-adv-x="182" 
d="M6 -194v15h96v2c-10 10 -14 25 -14 43v759c0 18 4 33 14 43v1h-96v15h147v-805c0 -16 1 -52 3 -69v-4h-150z" />
    <glyph glyph-name="asciicircum" unicode="^" horiz-adv-x="310" 
d="M24 540l130 127h2l130 -127l-27 -28l-67 77c-21.0303 24.8496 -34 52 -36 64h-2c-2 -12 -14.9697 -39.1504 -36 -64l-67 -77z" />
    <glyph glyph-name="underscore" unicode="_" horiz-adv-x="340" 
d="M340 -118h-340v22h340v-22z" />
    <glyph glyph-name="grave" unicode="`" horiz-adv-x="147" 
d="M130 539l-102 84l-20 25l19 16c3.24023 2.73047 6 3 9 3s5 -1 8 -4l95 -115z" />
    <glyph glyph-name="a" unicode="a" horiz-adv-x="459" 
d="M31 97c0 91 75 140 215 140h70v136c0 72 -35 109 -99 109c-82 0 -124 -49 -128 -114l-4 -50h-15l9 173c6.94043 -1.74023 16 -3 24 -3c27 0 64.8896 10 113 10c108 0 167 -48 167 -136v-315c0 -21 11 -28 23 -28c13 0 24 10 24 29v13h8v-13
c0 -28.7002 -23.7402 -52 -53 -52c-24.9502 0 -45.2598 21.5195 -47 49l-5 83h-8c-22 -102 -90 -135 -150 -135c-90 0 -144 42 -144 104zM98 97c0 -50 39 -81 87 -81c61 0 131 51 131 172v34h-66c-98 0 -152 -44 -152 -125z" />
    <glyph glyph-name="b" unicode="b" horiz-adv-x="570" 
d="M127 212c0 -131 82 -196 165 -196c104 0 173 86 173 214c0 144 -67 241 -169 241c-66.4805 0 -131.03 -33.3604 -169 -112.41v-146.59zM62 651c0 16 -9.00195 25 -25.002 25h-39v7h47c34 0 75 11 75 45v3h7v-337.9c37.7305 65.0801 96.7207 104.9 181.001 104.9
c136 0 228 -101 228 -253c0 -139 -103 -252 -228 -252c-77 0 -150 40 -178 117c-6.25 16.96 -15.3096 27.4795 -24.5195 27.4795c-15.8799 0 -32.2402 -31.2598 -35.5098 -114.649l-0.969727 -24.8301l-11 -3l4 103v553z" />
    <glyph glyph-name="c" unicode="c" horiz-adv-x="531" 
d="M34 248c0 138 119 250 266 250c58 0 99 -16 139 -16c10 0 24 3 33 5l6 -204h-15l-2 67c-2.37988 79.5596 -86 133 -168 133c-111 0 -186 -88 -186 -222c0 -162.99 104.12 -244 207 -244c68 0 138 31 174 105l14 -5c-33 -83 -113 -124 -201 -124c-160 0 -267 103 -267 255
z" />
    <glyph glyph-name="d" unicode="d" horiz-adv-x="580" 
d="M105 261c0 -144 67 -241 169 -241c67.5498 0 131.79 35.7695 169 118.09v141.91c0 131 -81 195 -164 195c-104 0 -174 -86 -174 -214zM34 246c0 139 103.001 252 228.001 252c77 0 151 -39 178 -117l3 -9.28027v279.28c0 16 -8 25 -24 25h-40v7h48c34 0 74 11 74 45v3h7
v-684c0 -21 11 -28 23 -28c13 0 24 10 24 29v13h8v-13c0 -28.7002 -22.7402 -52 -52 -52c-24.9502 0 -45.6904 21.5 -47 49l-4 84h-2.36035c-36 -83.2598 -98.6602 -136 -195.641 -136c-136 0 -228 101 -228 253z" />
    <glyph glyph-name="e" unicode="e" horiz-adv-x="516" 
d="M34 248c0 138 113.999 250 253.999 250c117 0 194 -65 194 -167c0 -21 -11 -35 -28 -35h-345.64c-2.21973 -16.5 -3.35938 -33.8604 -3.35938 -52c0 -128 78 -227 198 -227c63 0 132 23 173 79l12 -9c-44 -59 -115 -94 -203 -94c-150 0 -251 103 -251 255zM110.739 311
l288.26 6c8 0 14 5 14 15c0 93 -52 150 -129 150c-90.0195 0 -154.35 -66.2002 -173.26 -171z" />
    <glyph glyph-name="f" unicode="f" horiz-adv-x="346" 
d="M15 0v8h35c32 0 38 12 38 44v408h-73v22h73c-5 15 -18 75 -18 107c0 68 66 109 155 109c68 0 84.75 -23 115 -23v-133h-15v8c0 106 -47 132 -100 132c-60 0 -105 -37 -105 -93c0 -46 19 -84 32 -107h132v-22h-131v-429c0 -13 0 -16 -6 -22v-1h70v-8h-202z" />
    <glyph glyph-name="g" unicode="g" horiz-adv-x="540" 
d="M107 352c0 -90 65 -163 145 -163c91 0 152 58 152 142s-69 152 -152 152c-87 0 -145 -52 -145 -131zM44 341c0 86 93.999 157 207.999 157c85.04 0 151.39 -27.3799 186.739 -72.96c0 45.96 22.5703 92.46 58.2607 112.96l14 8c5.57031 -7.80957 9 -15.6299 9 -25
c0 -13 -6 -25 -17 -31c-30.0996 -17.75 -50 -42.0596 -50 -71.54c0 -8.70996 1.09961 -17.8896 4.97949 -27.4697c5.91016 -15.4004 9.02051 -32.1309 9.02051 -49.9912c0 -94 -90 -167 -215 -167c-17.6904 0 -34.3701 1.16016 -50 3.42969v-19.4297c0 -67 44 -75 104 -75
h22c84 0 185 -26 185 -131c0 -76 -106 -141 -227 -141c-141 0 -244 60 -244 137c0 63.6904 74.5 116.61 171.53 125.641c-17.6797 19.9502 -28.5293 47.2402 -28.5293 84.3604v22.4199c-90.3799 18.7305 -141 77.3301 -141 160.58zM228.489 59.6396
c-92.1904 -4.59961 -164.49 -52.6992 -164.49 -111.64c0 -47 90 -81 222 -81c113 0 212 37 212 85c0 37 -48 70 -118 70c-53.1797 0 -112.43 7.13965 -151.51 37.6396z" />
    <glyph glyph-name="h" unicode="h" horiz-adv-x="526" 
d="M11 0v8h29c40 0 44 12 44 127v433c0 98 -3 108 -25 108h-39v7h48c34 0 74 11 74 45v3h7v-188c0 -80 -14 -208 -15 -216h6c2 15 8 40 13 54c24 71 84 117 153 117c90 0 140 -50 140 -126v-237c0 -115 4 -127 44 -127h30v-8h-212v8h29c40 0 44 12 44 127v214
c0 82 -24 126 -82 126c-85 0 -150 -77 -150 -195v-145c0 -115 5 -127 45 -127h29v-8h-212z" />
    <glyph glyph-name="i" unicode="i" horiz-adv-x="241" 
d="M121 658c22 0 37 -13 37 -36c0 -22 -14 -38 -37 -38c-22 0 -38 15 -38 38c0 22 15 36 38 36zM88 134v319c0 18 -10.7998 30 -27 30h-31v8h113c7.2998 0 10 -2.7002 10 -10v-347c0 -114 5 -126 45 -126h30v-8h-213v8h29c40 0 44 12 44 126z" />
    <glyph glyph-name="j" unicode="j" horiz-adv-x="223" 
d="M121 658c22 0 37 -13 37 -36c0 -22 -14 -38 -37 -38c-22 0 -38 15 -38 38c0 22 15 36 38 36zM88 453c0 18 -10.7998 30 -27 30h-31v8h113c7.2998 0 10 -2.7002 10 -10v-529c0 -84 -55 -141 -131 -141c-64 0 -107 41 -107 104h7c0 -54 40 -89 100 -89c43 0 66 30 66 88
v539z" />
    <glyph glyph-name="k" unicode="k" horiz-adv-x="506" 
d="M84 134v517.001c0 16 -9 25 -25 25h-39v7h48c34 0 70 8 78 40l2 8h6l-5 -143v-320c30 0 47 2 55 12l95 108l31 41c8.87988 11.71 14.1797 22.7598 14.1797 31.7793c0 13.3301 -11.5596 22.2197 -40.1797 22.2197h-4v8h184v-8h-7c-35 0 -82 -21 -120 -59l-47 -46l-90 -103
v-3c128 -29 144 -94 152 -158c8 -66 22 -103 71 -103c11 0 26 4 41 16l11 9l4 -6l-10 -8c-24.2695 -19.4102 -47 -31 -68 -31c-80 0 -105 53 -120 137c-11 65 -25 133 -141 133h-11v-127c0 -114 5 -126 45 -126h29v-8h-212v8h29c40 0 44 12.002 44 126z" />
    <glyph glyph-name="l" unicode="l" horiz-adv-x="241" 
d="M14 0v8h29c40 0 45 12 45 126v517c0 16 -9 25 -25 25h-39v7h48c34 0 75 11 75 45v3h6v-597c0 -114 5 -126 45 -126h30v-8h-214z" />
    <glyph glyph-name="m" unicode="m" horiz-adv-x="743" 
d="M15 0l0.000976562 7.99902h29c40 0 44 12 44 127v306.99c0 20.7002 -11.2305 29.7305 -23.0508 29.7305c-13.1201 0 -23.9502 -11.1201 -23.9502 -29.7197v-31h-8v31c0 34.5098 27 52 56 52c26 0 48 -14.2305 48 -44v-36c0 -13 -1 -68 -2 -76h7c2 18 8 41 14 57
c25 65 66 103 132 103c87 0 110 -48 110 -110v-50h4c2 28 16 70 20 77c27 51 63 83 124 83c72 0 124 -39 124 -111v-252c0 -115 5 -127 45 -127h22v-8h-185v8h8c40 0 45 12 45 127v236c0 68 -29 104 -67 104c-76 0 -126 -76 -126 -184v-156c0 -115 5 -127 45 -127h21v-8
h-184v8h8c40 0 45 12 45 127v236c0 68 -29 104 -67 104c-76 0 -127 -76 -127 -184v-156c0 -115 5 -127 45 -127h30v-8h-213z" />
    <glyph glyph-name="n" unicode="n" horiz-adv-x="522" 
d="M15 0l0.000976562 8h29c40 0 44 12 44 127v307c0 20.7002 -11.2305 29.7197 -23.0508 29.7197c-13.1201 0 -23.9502 -11.1201 -23.9502 -29.7197v-31h-8v31c0 34.5098 27 52 56 52c26 0 51 -14.2305 51 -44v-36c0 -13 -1 -79 -2 -87h6c2 15 9 40 14 54
c24 71 83 117 152 117c90 0 140 -50 140 -126v-237c0 -115 4 -127 44 -127h22v-8h-204v8h29c40 0 44 12 44 127v214c0 82 -24 126 -82 126c-85 0 -150 -77 -150 -195v-145c0 -115 5 -127 45 -127h30v-8h-213z" />
    <glyph glyph-name="o" unicode="o" horiz-adv-x="604" 
d="M302 -7c-160.8 0 -268 101.2 -268 253c0 138.6 121.14 252 268 252c160.53 0 268 -101.3 268 -252c0 -138.9 -120.06 -253 -268 -253zM304 8c116.22 0 195 90.0498 195 224c0 137.5 -90.25 250 -201 250c-115.99 0 -193 -88.9805 -193 -223c0 -137.8 88.75 -251 199 -251
z" />
    <glyph glyph-name="p" unicode="p" horiz-adv-x="596" 
d="M88 442c0 20.7002 -11.2295 29.7197 -23.0498 29.7197c-13.1201 0 -23.9502 -11.1201 -23.9502 -29.7197v-31h-8v31c0 34.5098 27 52 56 52c26 0 51 -14.2305 51 -44v-36c0 -13 -1 -79 -2 -87h6c2 15 9 40 14 54c26 78 99 117 176 117c152 0 228 -127 228 -253
s-76 -252 -228 -252c-77 0 -149 39 -176 117l-5 15.5v-173.5c0 -115 5 -128 45 -128h30v-7h-213v7h29c40 0 44 13 44 128v490zM153.001 211c0 -131 82 -195 165 -195c116 0 173 99 173 214s-57 245 -173 245c-83 0 -165 -64 -165 -195v-69z" />
    <glyph glyph-name="q" unicode="q" horiz-adv-x="572" 
d="M34 246c0 139 103.001 252 228.001 252c53.8701 0 106.26 -19.5801 143.5 -57.7002c41.8701 -42.8701 47.5898 -79.5801 62.9902 -79.5801c15.0898 0 28.5098 22.8604 28.5098 80.2803v55h12v-635c0 -21 11 -28 23 -28c13 0 24 10 24 29v60h8v-60
c0 -33.79 -31 -51 -62 -51h-45c-7.73047 0 -14 6.71973 -14 15v271.9c-37.7305 -65.0801 -96.7207 -104.9 -181.001 -104.9c-136 0 -228 101 -228 253zM105.001 261c0 -144 67 -241 169 -241c66.4805 0 131.03 33.3604 169 112.41v145.59c0 131 -81 197 -164 197
c-104 0 -174 -86 -174 -214z" />
    <glyph glyph-name="r" unicode="r" horiz-adv-x="371" 
d="M15 0v8h29c40 0 44 12 44 127v318c0 18 -10.7998 30 -27 30h-31v8h101c10.9502 0 15 -4.0498 15 -15v-62c0 -28 -3 -64 -7 -76v-2h7c22 103 79 162 151 162c48.0996 0 71 -16.4502 71 -47c0 -24.29 -18.3701 -44 -41 -44c-23.7402 0 -43 19.2598 -43 43c0 8 4 20 10 26v1
c-84 0 -141 -94 -141 -234v-109c0 -115 5 -127 45 -127h53v-7h-236z" />
    <glyph glyph-name="s" unicode="s" horiz-adv-x="423" 
d="M203 -7c-58 0 -95 17 -127 17c-10 0 -22 -3 -29 -5l-10 203h15l3 -58c4.75977 -92.0098 70 -142 148 -142c74 0 124 46 124 114c0 53 -59 80 -123 106c-73 30 -155 65 -155 143c0 81 71 127 168 127c59 0 84 -11 106 -11c8 0 17 1 28 4l8 -173h-15l-2 34
c-3.66992 62.3604 -43 130 -125 130c-66 0 -110 -27 -110 -93c0 -48 60 -73 122 -98c76 -31 161 -69 161 -155c0 -85 -75 -143 -187 -143z" />
    <glyph glyph-name="t" unicode="t" horiz-adv-x="382" 
d="M108 122v341h-100v21h48c76 0 101 100 101 122v93h15v-172c0 -18 -3 -32 -10 -35v-1h197l-5 -28h-182v-355c0 -54.5996 27.5996 -91 69 -91c55.2002 0 87 39.2002 87 98v25h15v-25c0 -73.2002 -42.7998 -122 -107 -122c-76.7998 0 -128 51.5996 -128 129z" />
    <glyph glyph-name="u" unicode="u" horiz-adv-x="514" 
d="M75 119v334c0 18 -10.7998 30 -27 30h-31v8h108c10.9502 0 15 -4.0498 15 -15v-349c0 -78 34 -119 82 -119c90 0 149 85 149 213v218c0 40 -5 44 -45 44h-15v8l131 3v-6c-2 -15 -4 -30 -4 -45v-396c0 -21 11 -28 23 -28c13 0 24 10 24 29v13h8v-13
c0 -32.7305 -29 -52 -56 -52c-25 0 -49 15.9199 -49 49v118h-7c-18 -120 -88 -170 -166 -170c-82 0 -140 44 -140 126z" />
    <glyph glyph-name="v" unicode="v" horiz-adv-x="509" 
d="M245 -4l-176 436c-15 38 -21 51 -49 51h-12v8h164v-8h-64v-1c11 -4 20.2598 -25.29 26 -39l138 -330c1 -3 6 -18 6 -30h11c0 5 1.7998 15.0801 9 33l99.1201 246.63l17.8799 70.3701c1.71973 6.75977 2.73926 13.0801 2.73926 18.8105
c0 18.7998 -11.0195 31.1895 -44.7393 31.1895h-39v8h168v-8h-3c-23 0 -37.71 -20.1201 -51 -51l-32.0596 -74.46l-145.94 -361.54h-25z" />
    <glyph glyph-name="w" unicode="w" horiz-adv-x="755" 
d="M233 -4l-165 435.999c-15 40 -20 51 -48 51h-12v8h120v-12c0 -12 0.450195 -24.5 5 -36l127 -321c2.53027 -6.38965 5 -26 5 -34h9c0 3 2 13 7 30l88.9502 294.21l-5.9502 19.79c-12 39 -19 51 -49 51h-19v8h191v-8h-42c-11.7803 0 -18.6699 -9.2998 -18.6699 -23.4199
c0 -4.99023 0.860352 -10.5801 2.66992 -16.5801l98 -325c4 -14 5 -24 5 -30h9c0 4 4 16 10 32l94.1201 245.5l15.8799 67.5c1.74023 7.40039 2.74023 14.0303 2.74023 19.8506c0 19.6504 -11.3398 30.1504 -43.7402 30.1504h-15v8h143v-8h-5c-27 0 -36.29 -19.6904 -50 -51
l-31.1904 -71.25l-138.81 -363.75l-28 -1l-115.32 384.15l-115.68 -384.15h-31z" />
    <glyph glyph-name="x" unicode="x" horiz-adv-x="453" 
d="M6 0v8h5c25 0 53 15 85 64l40 62l63 109l-95 175c-28 52 -46 65 -69 65h-12v8h148v-8h-44v-1c12 -4 31.3604 -25.8096 42 -46l79 -148l46 75l33 60c8 14 11 27 11 37c0 14 -10 23 -36 23h-16v8h147v-8h-10c-25 0 -40 -16 -73 -65l-42 -61l-51 -85l107 -200
c26.5898 -49.7002 41 -64 69 -64h14v-8h-200v8h17c32 0 44 6 44 20c0 5 -8 23 -16 41l-85 158l-57 -99l-32 -60c-7 -13 -10 -27 -10 -37c0 -14 9 -23 35 -23h20v-8h-157z" />
    <glyph glyph-name="y" unicode="y" horiz-adv-x="492" 
d="M241 -5c2.99023 7.53027 4.74902 15.79 4.74902 24.2002c0 7.62012 -1.4502 15.3701 -4.75 22.7998l-169 390c-16 38 -22 51 -50 51h-13v8h161v-8h-59v-1c11 -4 20.3701 -24.8701 27 -40l134 -306c5 -12 6 -30 6 -35v-2h3l104 265l20 68
c2.87988 9.33008 4.36035 17.2002 4.36035 23.7402c0 19.4697 -13.0996 27.2598 -41.3594 27.2598h-28v8h145v-7c-24 0 -34 -16 -50 -53l-32 -72l-177 -449c-22 -56 -62 -99 -111 -99c-35 0 -63 35 -63 78c24 -11 44 -19 70 -19c36 0 73.6602 10.7305 94 62z" />
    <glyph glyph-name="z" unicode="z" horiz-adv-x="416" 
d="M0 0v8c12 0 34 19 60 64l200 350c15 27 36 46 56 51v3h-124c-80 0 -126 -23 -134 -97l-2 -16h-11l6 120c5 7 10 8 22 8h316v-8c-9 0 -33 -23 -57 -65l-200 -348c-15 -26 -28 -44 -40 -52v-3h147c78 0 133 24 139 91l2 30h12l-8 -128c-1 -4 -6 -8 -20 -8h-364z" />
    <glyph glyph-name="braceleft" unicode="{" horiz-adv-x="229" 
d="M31.25 244l6.75 -2c29 -17 107 -68 107 -113c0 -17.5 -9.5 -64.7402 -19 -113.62s-19 -99.3799 -19 -123.38c0 -42 25 -71 71 -71h44v-15h-74c-54 0 -94 47 -94 118c0 23.5 8.5 67.5 17 111s17 86.5 17 108c0 44 -33 69 -84 101v2c51 32 84 57 84 101
c0 21.5 -8.5 64.5 -17 108s-17 87.5 -17 111c0 71 40 118 94 118h74v-15h-44c-46 0 -71 -29 -71 -71c0 -24 9.5 -74.5 19 -123.38s19 -96.1201 19 -113.62c0 -45 -78 -96 -107 -113l-6.75 -2v-2z" />
    <glyph glyph-name="bar" unicode="|" horiz-adv-x="125" 
d="M44 651h38v-843h-38v843z" />
    <glyph glyph-name="braceright" unicode="}" horiz-adv-x="229" 
d="M197.75 244v2l-6.75 2c-29 17 -107 68 -107 113c0 17.5 9.5 64.7402 19 113.62s19 99.3799 19 123.38c0 42 -25 71 -71 71h-44v15h74c54 0 94 -47 94 -118c0 -23.5 -8.5 -67.5 -17 -111s-17 -86.5 -17 -108c0 -44 33 -69 84 -101v-2c-51 -32 -84 -57 -84 -101
c0 -21.5 8.5 -64.5 17 -108s17 -87.5 17 -111c0 -71 -40 -118 -94 -118h-74v15h44c46 0 71 29 71 71c0 24 -9.5 74.5 -19 123.38s-19 96.1201 -19 113.62c0 45 78 96 107 113z" />
    <glyph glyph-name="asciitilde" unicode="~" horiz-adv-x="384" 
d="M364 340l-10 -43c-9.7002 -41.7305 -33 -61 -65 -61c-67 0 -164 72 -214 72c-14 0 -25.1699 -7.75 -30 -29l-10 -44l-15 3l10 44c7.66016 33.6904 29 56 62 56c65 0 163 -71 215 -71c15 0 28 9 33 33l10 43z" />
    <glyph glyph-name="uni00A0" unicode="&#xa0;" horiz-adv-x="221" 
 />
    <glyph glyph-name="exclamdown" unicode="&#xa1;" horiz-adv-x="191" 
d="M133 -113c0 -4 -18 -12 -37 -12s-37 6 -37 11c0 162 29 328 29 490h15c0 -162 30 -327 30 -489zM96 491c-22 0 -37 15 -37 38c0 22 14 37 37 37c22 0 37 -14 37 -37c0 -22 -14 -38 -37 -38z" />
    <glyph glyph-name="cent" unicode="&#xa2;" horiz-adv-x="415" 
d="M239 -69l-14.999 0.00195312v154.38c-117.5 6.26953 -194.83 89.8896 -194.83 212.949c0 128.62 77.71 214.99 194.83 217.45v152.22h15v-152.4c54.2402 -2.58984 87.4199 -25.7695 100.75 -25.7695c5.7002 0 11.6104 0.990234 16.25 2l7 -138.83l-14 -1l-2.33008 36.5
c-3.9502 68.5996 -56.29 107.92 -107.67 111.95v-398.45c72.4102 0.240234 109.63 37.8799 139.109 85.0596l12.7197 -7.9502c-32.1699 -51.4902 -73.4004 -93.8701 -151.83 -94.1104v-154zM224.001 500.762c-85.5195 -2.57031 -131.5 -69.4395 -131.5 -191.59
c0 -128.94 45.9102 -199.45 131.5 -206.59v398.18z" />
    <glyph glyph-name="sterling" unicode="&#xa3;" horiz-adv-x="454" 
d="M200 312h126.001v-23h-138v-1c7 -3 12 -9 12 -27c0 -29 -2 -123 -19 -179c71 -18 159 -46 186 -46c20 0 39 10 46 42l16 82l9 -2l-21 -113c-8 -42 -33 -61 -65 -61c-40 0 -118 46 -180 74c-17 -40 -43 -73 -82 -73c-28 0 -50 23 -50 55c0 28 18 53 66 53c8 0 16 0 25 -1
c8 49 10 138 10 181v16h-83v23h83v143c0 90 52 151 132 151c39.96 0 79.2295 -15.1602 104.97 -15.1602c5.37988 0 9.96973 0.450195 15.0293 2.16016l4 -172h-16l-2 53c-2.63965 69.8896 -37 109 -106 109c-48 0 -73 -41 -73 -118v-153zM128.001 74c-12 3 -23 4 -32 4
c-22 0 -41 -20 -41 -38c0 -20 13 -34 31 -34c20 0 34 32 42 68z" />
    <glyph glyph-name="currency" unicode="&#xa4;" horiz-adv-x="280" 
d="M82 319c-16 -16 -22 -35 -22 -57s6 -39 22 -55s35 -25 57 -25s41 9 57 25s23 33 23 55s-7 41 -23 57s-35 23 -57 23s-41 -7 -57 -23zM78 344c18 13 38 21 61 21c25 0 47 -8 65 -23l35 35l15 -17l-34 -34c14 -18 22 -40 22 -64c0 -23 -8 -43 -21 -61l32 -33l-16 -14
l-31 31c-19 -17 -41 -24 -67 -24c-24 0 -44 7 -62 21l-34 -32l-14 17l31 31c-15 18 -22 39 -22 64c0 26 7 48 24 67l-35 35l16 14z" />
    <glyph glyph-name="yen" unicode="&#xa5;" horiz-adv-x="479" 
d="M96 0v8h71c40 0 44 12 44 127v25h-109l4 14h105v69h-109l4 15h105v26l-130 250c-19.8096 38.0996 -31 57 -55 57h-18v8h158v-8h-52v-2c11 -4 21 -20 34 -45l108 -205c4 -8 10 -22 11 -27h5c1 5 7 19 11 27l69 133l27 60c7 15 11 27 11 37c0 14 -10 22 -36 22h-44v8h161
v-8h-4c-21 0 -37 -15 -62 -58l-40 -68l-86 -168v-39h108l-2 -15h-106v-69h108l-2 -14h-106v-25c0 -115 4 -127 44 -127h60v-8h-287z" />
    <glyph glyph-name="brokenbar" unicode="&#xa6;" horiz-adv-x="125" 
d="M44 311v340h38v-340h-38zM82 148v-340h-38v340h38z" />
    <glyph glyph-name="section" unicode="&#xa7;" horiz-adv-x="473" 
d="M223 -156c81 0 125 40 125 118c0 69 -77 94 -147 126c-71 32 -172 70 -172 192c0 50 36 108 67 129c-13 19 -22 43 -22 71c0 80 67 134 167 134c59 0 84 -11 106 -11c8 0 17 1 28 4l8 -173h-15l-2 34c-3.74023 63.5801 -43 130 -125 130c-75 0 -115 -38 -115 -108
c0 -69 77 -95 147 -127c71 -32 171 -69 171 -191c0 -50 -35 -109 -66 -130c13 -19 22 -43 22 -71c0 -85.7998 -71 -143 -177 -143c-59 0 -84 11 -106 11c-8 0 -17 -1 -28 -4l-8 173h15l2 -34c3.66016 -62.3096 43 -130 125 -130zM109 392c-24 -25 -35 -60 -35 -105
c0 -92 88 -117 151 -145c50 -22 105 -45 140 -83c24 25 34 60 34 105c0 92 -87 117 -150 145c-50 22 -105 45 -140 83z" />
    <glyph glyph-name="dieresis" unicode="&#xa8;" horiz-adv-x="302" 
d="M69 644c22 0 38 -14 38 -37c0 -22 -15 -37 -38 -37c-22 0 -36 14 -36 37c0 22 13 37 36 37zM233 644c22 0 36 -14 36 -37c0 -22 -13 -37 -36 -37c-22 0 -38 14 -38 37c0 22 15 37 38 37z" />
    <glyph glyph-name="copyright" unicode="&#xa9;" horiz-adv-x="446" 
d="M224 229c-111 0 -202 84 -202 189c0 98 83 188 202 188c106 0 201 -78 201 -188c0 -112 -97 -189 -201 -189zM224 244c113 0 187 86 187 174c0 100 -88 173 -187 173c-104 0 -187 -77 -187 -173c0 -87 72 -174 187 -174zM311 361c-16 -30 -43 -46.001 -78 -46.001
c-58 0 -100 41 -100 103s40 104 95 104c25.0996 0 39.96 -5.30957 54.79 -5.30957c3.92969 0 6.91992 0.370117 11.21 1.31055l5 -66h-10l-1 8c-4.48047 35.8496 -32 51 -60 51c-41 0 -62 -31 -62 -89c0 -62 24 -96 70 -96c28 0 51 14 65 39z" />
    <glyph glyph-name="ordfeminine" unicode="&#xaa;" horiz-adv-x="378" 
d="M25 383c0 65 66 110 178 110h59v28c0 62 -27 93 -75 93c-69.6992 0 -107 -38 -110 -93h-14l5.54785 102.051c5.89941 -1.47852 13.6006 -2.5498 20.4004 -2.5498c22.9502 0 56.1562 8.5 97.0498 8.5c84.002 -0.000976562 129.003 -41 129.002 -119.001v-166
c0 -21 11 -28 23 -28c12.1436 0 22 12.0957 22 27v13h8v-13c0 -27.5996 -22.4004 -50 -50 -50c-23.4004 0 -39 15.5996 -39 39l-4 83h-5c-22 -90 -79 -122 -133 -122c-72 0 -112 34 -112 90zM84 383c0 -43 20 -70 62 -70c52 0 116 48 116 155v10h-54
c-86 0 -124 -30 -124 -95z" />
    <glyph glyph-name="guillemotleft" unicode="&#xab;" horiz-adv-x="376" 
d="M167 244v2l150 154l29 -30l-94 -84c-24.5996 -21.9805 -47 -38 -59 -40v-2c12 -2 34.9199 -18.4805 59 -40l94 -84l-29 -30zM30 244v2l150 154l29 -30l-94 -84c-24.5996 -21.9805 -47 -38 -59 -40v-2c12 -2 34.9199 -18.4805 59 -40l94 -84l-29 -30z" />
    <glyph glyph-name="logicalnot" unicode="&#xac;" horiz-adv-x="310" 
d="M288 273v-167l-21 2v144h-245l1 21h265z" />
    <glyph glyph-name="uni00AD" unicode="&#xad;" horiz-adv-x="237" 
d="M218 252h-203l3 23h204z" />
    <glyph glyph-name="registered" unicode="&#xae;" horiz-adv-x="446" 
d="M183 526v-1c4 -4 7 -11 7 -19v-91h27c39 0 60 20 60 56s-21 55 -60 55h-34zM135 535l77.999 0.000976562c56 0 94 -25 94 -64c0 -31 -23 -58 -69 -64v-2c22.1904 -4.44043 41.3506 -34.7705 52.001 -55.001c10 -19 16 -27 25 -27c4.16992 0 6.65039 0.0595703 15 2l1 -6
c-15 -5 -25 -7 -33 -7c-13 0 -23 8 -35 30c-24.7402 45.3604 -40 64 -64 64h-9v-40c0 -39.5996 2 -44 20 -44h3v-6h-81v6h11c18 0 20 4.40039 20 44v118c0 39.5996 -2 44 -20 44h-8v7zM223.999 591.001c-104 0 -187 -77 -187 -173c0 -88 73 -174 187 -174
c110 0 187 83 187 174c0 97 -85 173 -187 173zM223.999 606.001c106 0 201 -78 201 -188c0 -112 -97 -189 -201 -189c-111 0 -202 84 -202 189c0 98 83 188 202 188z" />
    <glyph glyph-name="macron" unicode="&#xaf;" horiz-adv-x="302" 
d="M264 597h-227l2 21h227z" />
    <glyph glyph-name="degree" unicode="&#xb0;" horiz-adv-x="191" 
d="M88 622c-25 0 -36 -20 -36 -60s11 -59 36 -59s38 19 38 59s-13 60 -38 60zM88 636c18 0 35 -8 51 -23s23 -32 23 -51s-7 -36 -23 -51s-33 -23 -51 -23s-34 9 -50 24s-23 31 -23 50s7 36 23 51s32 23 50 23z" />
    <glyph glyph-name="plusminus" unicode="&#xb1;" horiz-adv-x="376" 
d="M201 348h148l-1 -22h-147v-146l-22 2v144h-150l2 22h148v151l22 -1v-150zM342 96h-310l3 22h311z" />
    <glyph glyph-name="two.sups" unicode="&#xb2;" horiz-adv-x="314" 
d="M60 597h-15v86c2 0 6 1 8 2c24 19 62 31 95 31c78 0 130 -40 130 -100c0 -34 -34 -88 -80 -128l-111 -98c-5 -4 -21 -11 -24 -12l2 -6c5 1 27 2 37 2h137c30 0 44.21 13.5098 46.6797 44.0098l3.32031 40.9902l9 -1l-10 -123h-259v36c8 1 24 3 53 35l90 97
c32 34 61 83 61 119c0 51 -29 80 -83 80c-57 0 -83 -37 -90 -74v-31z" />
    <glyph glyph-name="three.sups" unicode="&#xb3;" horiz-adv-x="315" 
d="M138 324c-34 1 -80 14 -112 42v83h14v-31c9 -39 38 -80 98 -80c64 0 99 37 99 100c0 66 -31 106 -91 106h-49v12h39c52 0 80 30 80 76c0 44 -27 70 -77 70c-61 0 -72 -37 -80 -74v-18h-14v83c1.36035 -0.349609 2.9707 -0.699219 5.06055 -0.699219
c3.83984 0 9.30957 1.17969 17.9395 5.69922c21 11 47 18 70 18c72 0 120 -33 120 -83c0 -42 -36 -73 -77 -81v-1c62 -8 105 -54 105 -113c0 -68 -60 -114 -148 -114z" />
    <glyph glyph-name="acute" unicode="&#xb4;" horiz-adv-x="147" 
d="M17 539l-9 9l95 115c3 3 5 4 8 4s5.75977 -0.269531 9 -3l19 -16l-20 -25z" />
    <glyph glyph-name="uni00B5" unicode="&#xb5;" horiz-adv-x="514" 
d="M75 453c0 18 -10.7998 30 -27 30h-31v8h108c10.9502 0 15 -4.0498 15 -15v-349c0 -78 34 -119 82 -119c90 0 149 85 149 213v218c0 40 -5 44 -45 44h-15v8l131 3v-6c-2 -15 -4 -30 -4 -45v-396c0 -21 11 -28 23 -28c13 0 24 10 24 29v13h8v-13
c0 -32.7305 -29 -52 -56 -52c-25 0 -49 15.9199 -49 49v118h-7c-18 -120 -88 -170 -166 -170c-57.21 0 -102.74 21.4199 -125.04 62.2197l-2.95996 -2.21973c1 -2 2 -11 2 -19v-111c0 -16 8 -24 23 -24c20 0 36 -17 36 -37s-17 -36 -37 -36c-19.8701 0 -36 16.1299 -36 36
v591z" />
    <glyph glyph-name="paragraph" unicode="&#xb6;" horiz-adv-x="428" 
d="M296 -158v640c0 90 -4.40039 100 -44 100s-44 -10 -44 -100v-640h-120v7c54 0 60 10.0996 60 101v418h-18c-63 0 -115 51 -115 114c0 64 52 116 115 116h284v-7c-53.0996 0 -59 -10 -59 -100v-541c0 -90.9004 5.90039 -101 59 -101v-7h-118zM148 583h-18
c-55 0 -100 -45 -100 -101c0 -55 45 -100 100 -100h18v201z" />
    <glyph glyph-name="periodcentered" unicode="&#xb7;" horiz-adv-x="162" 
d="M82 229c22 0 36 -15 36 -38c0 -22 -13 -37 -36 -37c-22 0 -38 14 -38 37c0 22 15 38 38 38z" />
    <glyph glyph-name="cedilla" unicode="&#xb8;" horiz-adv-x="310" 
d="M136 1l-11 -53c8 3 17 6 28 6c47.21 0 74 -29.5703 74 -62c0 -46.5703 -59.9004 -81 -134 -81l3 15c48.9502 0 89 31.0195 89 73c0 21.9805 -13 41 -33 41c-12 0 -26 -3 -34 -10l-11 2l14 70z" />
    <glyph glyph-name="one.sups" unicode="&#xb9;" horiz-adv-x="174" 
d="M15 335v8h17c32 0 36 4 36 35v240c0 13 0 24 2 32l-3 1c-2 -3 -8 -10 -16 -17l-26 -24l-6 5c54 55 82 100 82 104h11v-341c0 -31 4 -35 36 -35h12v-8h-145z" />
    <glyph glyph-name="ordmasculine" unicode="&#xba;" horiz-adv-x="359" 
d="M282 439c0 114 -36 175 -104 175c-64 0 -100 -44 -100 -127c0 -113 37 -175 104 -175c65 0 100 45 100 127zM330 463c0 -100 -60 -165 -150 -165s-151 65 -151 165s61 166 151 166s150 -66 150 -166z" />
    <glyph glyph-name="guillemotright" unicode="&#xbb;" horiz-adv-x="376" 
d="M209 244l-150 -154l-29 30l94 84c24.0801 21.5195 47 38 59 40v2c-12 2 -34.4004 18.0195 -59 40l-94 84l29 30l150 -154v-2zM346 244l-150 -154l-29 30l94 84c24.0801 21.5195 47 38 59 40v2c-12 2 -34.4004 18.0195 -59 40l-94 84l29 30l150 -154v-2z" />
    <glyph glyph-name="questiondown" unicode="&#xbf;" horiz-adv-x="335" 
d="M27 9c0 113.66 178 204.2 178 304c0 30 -16 44 -30 44c-12 0 -23 -10 -23 -29v-13h-8v13c0 31 19 48 40 48c23 0 48 -21 48 -67c0 -93.7998 -142 -212.9 -142 -300c0 -72 35 -116 101 -116c66.9502 0 103 38.1504 103 109v39h15v-158c-4.41992 0.669922 -14.9199 2 -21 2
c-24.1699 0 -76.5 -10 -96 -10c-98 0 -165 54 -165 134zM185 491c-22 0 -37 15 -37 38c0 22 14 37 37 37c22 0 37 -14 37 -37c0 -21 -16 -38 -37 -38z" />
    <glyph glyph-name="Agrave" unicode="&#xc0;" horiz-adv-x="590" 
d="M333 631l-102 84l-20 25l19 16c3.24023 2.73047 6 3 9 3s5 -1 8 -4l95 -115zM7 0v8c7 0 30 3 54 51l37 75l184 424c6.51953 15.0098 14 33 15 45h17l213 -544c16 -40 21 -51 49 -51h6v-8h-163v8h19c8.07031 0 27.8398 2.59961 27.8398 22.5
c0 4.76953 -1.12988 10.54 -3.83984 17.5l-51.1699 131h-178.83l-96 -1.74023l-21 -49.2598l-23 -69c-3 -8 -4 -15 -4 -21c0 -19 15 -30 40 -30h28v-8h-149zM144.24 196.57l91.7598 -2.57031h168.97l-108.97 279c-6 17 -8 31 -8 49h-5z" />
    <glyph glyph-name="Aacute" unicode="&#xc1;" horiz-adv-x="590" 
d="M261 631l-9 9l95 115c3 3 5 4 8 4s5.75977 -0.269531 9 -3l19 -16l-20 -25zM7 0v8c7 0 30 3 54 51l37 75l184 424c6.51953 15.0098 14 33 15 45h17l213 -544c16 -40 21 -51 49 -51h6v-8h-163v8h19c8.07031 0 27.8398 2.59961 27.8398 22.5
c0 4.76953 -1.12988 10.54 -3.83984 17.5l-51.1699 131h-178.83l-96 -1.74023l-21 -49.2598l-23 -69c-3 -8 -4 -15 -4 -21c0 -19 15 -30 40 -30h28v-8h-149zM144.24 196.57l91.7598 -2.57031h168.97l-108.97 279c-6 17 -8 31 -8 49h-5z" />
    <glyph glyph-name="Acircumflex" unicode="&#xc2;" horiz-adv-x="590" 
d="M309 758.13l88 -81l-16 -18l-41 42c-24.7002 25.2998 -41 45 -41 48h-4c0 -3 -16.2998 -22.7002 -41 -48l-41 -42l-16 18l88 81h24zM7 0v8c7 0 30 3 54 51l37 75l184 424c6.51953 15.0098 14 33 15 45h17l213 -544c16 -40 21 -51 49 -51h6v-8h-163v8h19
c8.07031 0 27.8398 2.59961 27.8398 22.5c0 4.76953 -1.12988 10.54 -3.83984 17.5l-51.1699 131h-178.83l-96 -1.74023l-21 -49.2598l-23 -69c-3 -8 -4 -15 -4 -21c0 -19 15 -30 40 -30h28v-8h-149zM144.24 196.57l91.7598 -2.57031h168.97l-108.97 279c-6 17 -8 31 -8 49
h-5z" />
    <glyph glyph-name="Atilde" unicode="&#xc3;" horiz-adv-x="590" 
d="M408 718c-12 -48 -31 -58 -54 -58c-44 0 -97 61 -130 61c-11 0 -21 -8 -26 -28l-7 -26l-13 3l7 26c12 43 28 54 50 54c43 0 96 -61 130 -61c13 0 24 8 30 32l6 25l14 -3zM7 0v8c7 0 30 3 54 51l37 75l184 424c6.51953 15.0098 14 33 15 45h17l213 -544
c16 -40 21 -51 49 -51h6v-8h-163v8h19c8.07031 0 27.8398 2.59961 27.8398 22.5c0 4.76953 -1.12988 10.54 -3.83984 17.5l-51.1699 131h-178.83l-96 -1.74023l-21 -49.2598l-23 -69c-3 -8 -4 -15 -4 -21c0 -19 15 -30 40 -30h28v-8h-149zM144.24 196.57l91.7598 -2.57031
h168.97l-108.97 279c-6 17 -8 31 -8 49h-5z" />
    <glyph glyph-name="Adieresis" unicode="&#xc4;" horiz-adv-x="590" 
d="M215 736c22 0 38 -14 38 -37c0 -22 -15 -37 -38 -37c-22 0 -36 14 -36 37c0 22 13 37 36 37zM379 736c22 0 36 -14 36 -37c0 -22 -13 -37 -36 -37c-22 0 -38 14 -38 37c0 22 15 37 38 37zM7 0v8c7 0 30 3 54 51l37 75l184 424c6.51953 15.0098 14 33 15 45h17l213 -544
c16 -40 21 -51 49 -51h6v-8h-163v8h19c8.07031 0 27.8398 2.59961 27.8398 22.5c0 4.76953 -1.12988 10.54 -3.83984 17.5l-51.1699 131h-178.83l-96 -1.74023l-21 -49.2598l-23 -69c-3 -8 -4 -15 -4 -21c0 -19 15 -30 40 -30h28v-8h-149zM144.24 196.57l91.7598 -2.57031
h168.97l-108.97 279c-6 17 -8 31 -8 49h-5z" />
    <glyph glyph-name="Aring" unicode="&#xc5;" horiz-adv-x="590" 
d="M305 702c-24 0 -52 -23 -52 -51c0 -26 28 -52 52 -52s52 24 52 52s-28 51 -52 51zM7 0v8.00098c7 0 30 3 54 51l37 75l192.84 444.72c-31.5098 7.58008 -58.8398 39.1699 -58.8398 72.2803c0 40 37 74 73 74s74 -34 74 -74c0 -33.29 -26.3096 -62.4199 -55.8896 -71.2598
l203.89 -520.74c16 -40 21 -51 49 -51h6v-8h-163v8h19c8.07031 0 27.8398 2.59961 27.8398 22.5c0 4.76953 -1.12988 10.5391 -3.83984 17.499l-51.1699 131h-178.83l-96 -1.74023l-21 -49.2598l-23 -69c-3 -8 -4 -15 -4 -21c0 -19 15 -30 40 -30h28v-8h-149z
M144.24 196.571l91.7598 -2.57031h168.97l-108.97 279c-6 17 -8 31 -8 49h-5z" />
    <glyph glyph-name="AE" unicode="&#xc6;" horiz-adv-x="755" 
d="M273 555c3.78027 9.08984 6 16 6 22c0 8 -4 12 -13 12v10h385c13 0 25 -1 31 -7l12 -187h-15l-4 58c-6 88 -48 121 -128 121h-113v-1c10 -10 18 -25 18 -43v-246h30c47 0 90 8 90 88v37h11v-267h-11v38c0 80 -43 89 -90 89h-30v-224c0 -27 9 -40 23 -40h117
c80 0 116 36 123 113l6 66h13l-11 -186c-6 -6 -18 -8 -31 -8h-381v8h29c40 0 44 12 44 127v144h-136l-72 -1l-61 -150l-23 -69c-3 -8 -4 -15 -4 -21c0 -19 15 -30 40 -30h28v-8h-149v8c7 0 30 3 54 51l37 75zM384 584h-62c-17 0 -25.5596 -9.75977 -33 -28l-106 -260l69 -2
h132v290z" />
    <glyph glyph-name="Ccedilla" unicode="&#xc7;" horiz-adv-x="543" 
d="M29 302c0 168 130 303.999 291 303.999c50 0 96 -15 135 -15c12 0 25 1 37 4l6 -213h-15l-2 72c-2.29004 82.3096 -86 138 -168 138c-126 0 -210 -111 -210 -277c0 -199.06 112.17 -298 223 -298c80.79 0 150.6 36.1299 182 105l14 -5c-33 -83 -113 -124 -201 -124
c-3.08984 0 -6.16016 0.0400391 -9.20996 0.120117l-9.29004 -44.75c8 3 17 5.62988 28 5.62988c47.21 0 74 -29.2002 74 -61.6299c0 -46.5703 -59.9004 -81 -134 -81l3 14.6299c48.9502 0 89 31.4004 89 73.3701c0 21.9805 -13 41 -33 41c-12 0 -26 -3 -34 -10l-11 2
l12.29 61.4404c-161.5 10.9404 -267.79 131.86 -267.79 308.19z" />
    <glyph glyph-name="Egrave" unicode="&#xc8;" horiz-adv-x="463" 
d="M291 172h-11v46c0 80 -43 89 -90 89h-34v-252c0 -27 9 -40 23 -40h121c80 0 116 36 123 113l6 66h13l-11 -186c-6 -6 -18 -8 -31 -8h-385v8h29c40 0 44 12 44 127v329c0 115 -4 127 -44 127h-29v8h344c13 0 25 -1 31 -7l12 -187h-15l-4 58c-6 88 -48 121 -128 121h-117
v-1c10 -10 18 -25 18 -43v-218h34c47 0 90 8 90 88v29h11v-267zM269 631l-102 84l-20 25l19 16c3.24023 2.73047 6 3 9 3s5 -1 8 -4l95 -115z" />
    <glyph glyph-name="Eacute" unicode="&#xc9;" horiz-adv-x="463" 
d="M291 172h-11v46c0 80 -43 89 -90 89h-34v-252c0 -27 9 -40 23 -40h121c80 0 116 36 123 113l6 66h13l-11 -186c-6 -6 -18 -8 -31 -8h-385v8h29c40 0 44 12 44 127v329c0 115 -4 127 -44 127h-29v8h344c13 0 25 -1 31 -7l12 -187h-15l-4 58c-6 88 -48 121 -128 121h-117
v-1c10 -10 18 -25 18 -43v-218h34c47 0 90 8 90 88v29h11v-267zM197 631l-9 9l95 115c3 3 5 4 8 4s5.75977 -0.269531 9 -3l19 -16l-20 -25z" />
    <glyph glyph-name="Ecircumflex" unicode="&#xca;" horiz-adv-x="463" 
d="M291 172h-11v46c0 80 -43 89 -90 89h-34v-252c0 -27 9 -40 23 -40h121c80 0 116 36 123 113l6 66h13l-11 -186c-6 -6 -18 -8 -31 -8h-385v8h29c40 0 44 12 44 127v329c0 115 -4 127 -44 127h-29v8h344c13 0 25 -1 31 -7l12 -187h-15l-4 58c-6 88 -48 121 -128 121h-117
v-1c10 -10 18 -25 18 -43v-218h34c47 0 90 8 90 88v29h11v-267zM245 758.13l88 -81l-16 -18l-41 42c-24.7002 25.2998 -41 45 -41 48h-4c0 -3 -16.2998 -22.7002 -41 -48l-41 -42l-16 18l88 81h24z" />
    <glyph glyph-name="Edieresis" unicode="&#xcb;" horiz-adv-x="463" 
d="M291 172h-11v46c0 80 -43 89 -90 89h-34v-252c0 -27 9 -40 23 -40h121c80 0 116 36 123 113l6 66h13l-11 -186c-6 -6 -18 -8 -31 -8h-385v8h29c40 0 44 12 44 127v329c0 115 -4 127 -44 127h-29v8h344c13 0 25 -1 31 -7l12 -187h-15l-4 58c-6 88 -48 121 -128 121h-117
v-1c10 -10 18 -25 18 -43v-218h34c47 0 90 8 90 88v29h11v-267zM151 736c22 0 38 -14 38 -37c0 -22 -15 -37 -38 -37c-22 0 -36 14 -36 37c0 22 13 37 36 37zM315 736c22 0 36 -14 36 -37c0 -22 -13 -37 -36 -37c-22 0 -38 14 -38 37c0 22 15 37 38 37z" />
    <glyph glyph-name="Igrave" unicode="&#xcc;" horiz-adv-x="244" 
d="M158 630l-102 84l-20 25l19 16c3.24023 2.73047 6 3 9 3s5 -1 8 -4l95 -115zM15 0v8h29c39.5996 0 44 12.7002 44 127v331c0 112.5 -4.40039 125 -44 125h-29v8h214v-10h-29c-39.5996 0 -44 -12.5 -44 -125v-329c0 -114.3 4.40039 -127 44 -127h29v-8h-214z" />
    <glyph glyph-name="Iacute" unicode="&#xcd;" horiz-adv-x="244" 
d="M85 631l-9 9l95 115c3 3 5 4 8 4s5.75977 -0.269531 9 -3l19 -16l-20 -25zM15 0v8h29c39.5996 0 44 12.7002 44 127v331c0 112.5 -4.40039 125 -44 125h-29v8h214v-10h-29c-39.5996 0 -44 -12.5 -44 -125v-329c0 -114.3 4.40039 -127 44 -127h29v-8h-214z" />
    <glyph glyph-name="Icircumflex" unicode="&#xce;" horiz-adv-x="244" 
d="M133 758.13l88 -81l-16 -18l-41 42c-24.7002 25.2998 -41 45 -41 48h-4c0 -3 -16.2998 -22.7002 -41 -48l-41 -42l-16 18l88 81h24zM15 0v8h29c39.5996 0 44 12.7002 44 127v331c0 112.5 -4.40039 125 -44 125h-29v8h214v-10h-29c-39.5996 0 -44 -12.5 -44 -125v-329
c0 -114.3 4.40039 -127 44 -127h29v-8h-214z" />
    <glyph glyph-name="Idieresis" unicode="&#xcf;" horiz-adv-x="244" 
d="M39 736c22 0 38 -14 38 -37c0 -22 -15 -37 -38 -37c-22 0 -36 14 -36 37c0 22 13 37 36 37zM203 736c22 0 36 -14 36 -37c0 -22 -13 -37 -36 -37c-22 0 -38 14 -38 37c0 22 15 37 38 37zM15 0v8h29c39.5996 0 44 12.7002 44 127v331c0 112.5 -4.40039 125 -44 125h-29v8
h214v-10h-29c-39.5996 0 -44 -12.5 -44 -125v-329c0 -114.3 4.40039 -127 44 -127h29v-8h-214z" />
    <glyph glyph-name="Eth" unicode="&#xd0;" horiz-adv-x="602" 
d="M20 0v8h29c39.5996 0 44 12.7002 44 127v156h-64l4 25h60v148c0 114.3 -4.40039 127 -44 127h-29v8h230c196 0 326 -119 326 -299s-130 -300 -326 -300h-230zM184 15h43c180 0 277 100 277 285c0 157 -120 284 -270 284h-87v-1c10 -10 14 -20 14 -39v-228h141l-4 -25
h-137v-236c0 -26 8 -40 23 -40z" />
    <glyph glyph-name="Ntilde" unicode="&#xd1;" horiz-adv-x="490" 
d="M349 719c-12 -48 -31 -58 -54 -58c-44 0 -97 61 -130 61c-11 0 -21 -8 -26 -28l-7 -26l-13 3l7 26c12 43 28 54 50 54c43 0 96 -61 130 -61c13 0 24 8 30 32l6 25l14 -3zM15 0v8h17c32 0 49 21 49 127v413c0 40 -5 43 -45 43h-21v8h129l233 -420c9 -16 15 -28 15 -31h5
c-1 9 -1 21 -1 35v266c0 104 -13 142 -49 142h-42v8h175v-8h-17c-36 0 -50 -22 -50 -142v-461h-9c0 4 -12 27 -24 48l-262 469c-9 15 -17 32 -17 33h-4c1 -9 1 -22 1 -36v-367c0 -93 13 -127 49 -127h17v-8h-149z" />
    <glyph glyph-name="Ograve" unicode="&#xd2;" horiz-adv-x="644" 
d="M371 632l-102 84l-20 25l19 16c3.24023 2.73047 6 3 9 3s5 -1 8 -4l95 -115zM322 -7c-178 0 -296 123 -296 307c0 169 132 306 296 306c177 0 296 -122 296 -306c0 -169 -133 -307 -296 -307zM325 8c132 0 220 110 220 276c0 169 -101 307 -226 307
c-132 0 -221 -111 -221 -276c0 -169 102 -307 227 -307z" />
    <glyph glyph-name="Oacute" unicode="&#xd3;" horiz-adv-x="644" 
d="M299 632l-9 9l95 115c3 3 5 4 8 4s5.75977 -0.269531 9 -3l19 -16l-20 -25zM322 -7c-178 0 -296 123 -296 307c0 169 132 306 296 306c177 0 296 -122 296 -306c0 -169 -133 -307 -296 -307zM325 8c132 0 220 110 220 276c0 169 -101 307 -226 307
c-132 0 -221 -111 -221 -276c0 -169 102 -307 227 -307z" />
    <glyph glyph-name="Ocircumflex" unicode="&#xd4;" horiz-adv-x="644" 
d="M347 759.13l88 -81l-16 -18l-41 42c-24.7002 25.2998 -41 45 -41 48h-4c0 -3 -16.2998 -22.7002 -41 -48l-41 -42l-16 18l88 81h24zM322 -7c-178 0 -296 123 -296 307c0 169 132 306 296 306c177 0 296 -122 296 -306c0 -169 -133 -307 -296 -307zM325 8
c132 0 220 110 220 276c0 169 -101 307 -226 307c-132 0 -221 -111 -221 -276c0 -169 102 -307 227 -307z" />
    <glyph glyph-name="Otilde" unicode="&#xd5;" horiz-adv-x="644" 
d="M446 719c-12 -48 -31 -58 -54 -58c-44 0 -97 61 -130 61c-11 0 -21 -8 -26 -28l-7 -26l-13 3l7 26c12 43 28 54 50 54c43 0 96 -61 130 -61c13 0 24 8 30 32l6 25l14 -3zM322 -7c-178 0 -296 123 -296 307c0 169 132 306 296 306c177 0 296 -122 296 -306
c0 -169 -133 -307 -296 -307zM325 8c132 0 220 110 220 276c0 169 -101 307 -226 307c-132 0 -221 -111 -221 -276c0 -169 102 -307 227 -307z" />
    <glyph glyph-name="Odieresis" unicode="&#xd6;" horiz-adv-x="644" 
d="M253 737c22 0 38 -14 38 -37c0 -22 -15 -37 -38 -37c-22 0 -36 14 -36 37c0 22 13 37 36 37zM417 737c22 0 36 -14 36 -37c0 -22 -13 -37 -36 -37c-22 0 -38 14 -38 37c0 22 15 37 38 37zM322 -7c-178 0 -296 123 -296 307c0 169 132 306 296 306
c177 0 296 -122 296 -306c0 -169 -133 -307 -296 -307zM325 8c132 0 220 110 220 276c0 169 -101 307 -226 307c-132 0 -221 -111 -221 -276c0 -169 102 -307 227 -307z" />
    <glyph glyph-name="multiply" unicode="&#xd7;" horiz-adv-x="312" 
d="M175 244l107 -104l-22 -20l-104 105l-103 -105l-20 22l104 102l-108 106l23 20l104 -107l107 109l20 -21z" />
    <glyph glyph-name="Oslash" unicode="&#xd8;" horiz-adv-x="644" 
d="M92 -40l-18.001 13.002l58.4404 81.5498c-67.2598 53.6602 -106.439 139.43 -106.439 245.449c0 169 132 306 296 306c66.2402 0 124.351 -17.0898 171.15 -48.1201l58.8496 82.1201l18 -13l-58.8799 -82.1504c67.3604 -53.3701 106.88 -138.82 106.88 -244.851
c0 -169 -133 -307 -296 -307c-66.6299 0 -124.86 17.2305 -171.63 48.4502zM324.999 8.00195c132 0 220 110 220 276c0 84.2402 -25.0898 160.79 -65.75 216.37l-300.7 -419.59c39.5801 -45.3604 90.7305 -72.7803 146.45 -72.7803zM164.139 98.7822l300.72 419.631
c-39.3398 45.25 -90.2197 72.5898 -145.859 72.5898c-132 0 -221 -111 -221 -276c0 -84.1699 25.2998 -160.65 66.1396 -216.221z" />
    <glyph glyph-name="Ugrave" unicode="&#xd9;" horiz-adv-x="487" 
d="M299 631l-102 84l-20 25l19 16c3.24023 2.73047 6 3 9 3s5 -1 8 -4l95 -115zM82 137v327c0 115 -5 127 -45 127h-22v8h216v-8h-37c-40 0 -44 -12 -44 -127v-349c0 -64 35 -99 101 -99c89 0 136 43 136 121v312c0 104 -12 142 -47 142h-30v8h163v-8h-21
c-35 0 -48 -38 -48 -142v-312c0 -93 -54 -144 -153 -144c-100 0 -169 58 -169 144z" />
    <glyph glyph-name="Uacute" unicode="&#xda;" horiz-adv-x="487" 
d="M227 631l-9 9l95 115c3 3 5 4 8 4s5.75977 -0.269531 9 -3l19 -16l-20 -25zM82 137v327c0 115 -5 127 -45 127h-22v8h216v-8h-37c-40 0 -44 -12 -44 -127v-349c0 -64 35 -99 101 -99c89 0 136 43 136 121v312c0 104 -12 142 -47 142h-30v8h163v-8h-21
c-35 0 -48 -38 -48 -142v-312c0 -93 -54 -144 -153 -144c-100 0 -169 58 -169 144z" />
    <glyph glyph-name="Ucircumflex" unicode="&#xdb;" horiz-adv-x="487" 
d="M275 758.13l88 -81l-16 -18l-41 42c-24.7002 25.2998 -41 45 -41 48h-4c0 -3 -16.2998 -22.7002 -41 -48l-41 -42l-16 18l88 81h24zM82 137v327c0 115 -5 127 -45 127h-22v8h216v-8h-37c-40 0 -44 -12 -44 -127v-349c0 -64 35 -99 101 -99c89 0 136 43 136 121v312
c0 104 -12 142 -47 142h-30v8h163v-8h-21c-35 0 -48 -38 -48 -142v-312c0 -93 -54 -144 -153 -144c-100 0 -169 58 -169 144z" />
    <glyph glyph-name="Udieresis" unicode="&#xdc;" horiz-adv-x="487" 
d="M181 736c22 0 38 -14 38 -37c0 -22 -15 -37 -38 -37c-22 0 -36 14 -36 37c0 22 13 37 36 37zM345 736c22 0 36 -14 36 -37c0 -22 -13 -37 -36 -37c-22 0 -38 14 -38 37c0 22 15 37 38 37zM82 137v327c0 115 -5 127 -45 127h-22v8h216v-8h-37c-40 0 -44 -12 -44 -127v-349
c0 -64 35 -99 101 -99c89 0 136 43 136 121v312c0 104 -12 142 -47 142h-30v8h163v-8h-21c-35 0 -48 -38 -48 -142v-312c0 -93 -54 -144 -153 -144c-100 0 -169 58 -169 144z" />
    <glyph glyph-name="Yacute" unicode="&#xdd;" horiz-adv-x="479" 
d="M214 632l-9 9l95 115c3 3 5 4 8 4s5.75977 -0.269531 9 -3l19 -16l-20 -25zM96 0v8h71c40 0 44 12 44 127v149l-130 250c-19.8096 38.0996 -31 57 -55 57h-18v8h158v-8h-52v-2c11 -4 21 -20 34 -45l108 -205c4 -8 10 -22 11 -27h5c1 5 7 19 11 27l69 133l27 60
c7 15 11 27 11 37c0 14 -10 22 -36 22h-44v8h161v-8h-4c-21 0 -37 -15 -62 -58l-40 -68l-86 -168v-162c0 -115 4 -127 44 -127h60v-8h-287z" />
    <glyph glyph-name="Thorn" unicode="&#xde;" horiz-adv-x="455" 
d="M15 0v8h29c39.5996 0 44 12.7002 44 127v331c0 112.5 -4.40039 125 -44 125h-29v8h214v-10h-29c-31.0098 0 -40.4297 -7.66016 -43.0596 -65h68.0596c126 0 209 -70 209 -175c0 -104 -83 -174 -209 -174h-69v-40c0 -114.3 4.40039 -127 44 -127h29v-8h-214zM156 190
h43.999c105 0 162 56 162 159s-57 159 -162 159h-43.5996c-0.299805 -12.6299 -0.399414 -27.2002 -0.399414 -44v-274z" />
    <glyph glyph-name="germandbls" unicode="&#xdf;" horiz-adv-x="496" 
d="M232 191h16v-75c0 -57 38 -108 100 -108c40 0 68 27 68 66c0 107 -164 192 -164 313c0 72 91 111 91 184c0 62 -45 111 -101 111c-54 0 -89 -40 -89 -101v-534c0 -20 2 -39 4 -50l-142 3v8h18c50 0 55 4 55 48v404h-73v22h73v73c0 79 69 143 155 143
c85 0 142 -51 142 -127c0 -82 -117 -121 -117 -188c0 -82 210 -167 210 -287c0 -67 -46 -103 -130 -103c-35.8896 0 -60.6396 9.7002 -88.0693 9.7002c-8.87012 0 -18.0303 -1.00977 -27.9307 -3.7002v192z" />
    <glyph glyph-name="agrave" unicode="&#xe0;" horiz-adv-x="459" 
d="M31 97c0 91 75 140 215 140h70v136c0 72 -35 109 -99 109c-82 0 -124 -49 -128 -114l-4 -50h-15l9 173c6.94043 -1.74023 16 -3 24 -3c27 0 64.8896 10 113 10c108 0 167 -48 167 -136v-315c0 -21 11 -28 23 -28c13 0 24 10 24 29v13h8v-13
c0 -28.7002 -23.7402 -52 -53 -52c-24.9502 0 -45.2598 21.5195 -47 49l-5 83h-8c-22 -102 -90 -135 -150 -135c-90 0 -144 42 -144 104zM98 97c0 -50 39 -81 87 -81c61 0 131 51 131 172v34h-66c-98 0 -152 -44 -152 -125zM246 539l-102 84l-20 25l19 16
c3.24023 2.73047 6 3 9 3s5 -1 8 -4l95 -115z" />
    <glyph glyph-name="aacute" unicode="&#xe1;" horiz-adv-x="459" 
d="M31 97c0 91 75 140 215 140h70v136c0 72 -35 109 -99 109c-82 0 -124 -49 -128 -114l-4 -50h-15l9 173c6.94043 -1.74023 16 -3 24 -3c27 0 64.8896 10 113 10c108 0 167 -48 167 -136v-315c0 -21 11 -28 23 -28c13 0 24 10 24 29v13h8v-13
c0 -28.7002 -23.7402 -52 -53 -52c-24.9502 0 -45.2598 21.5195 -47 49l-5 83h-8c-22 -102 -90 -135 -150 -135c-90 0 -144 42 -144 104zM98 97c0 -50 39 -81 87 -81c61 0 131 51 131 172v34h-66c-98 0 -152 -44 -152 -125zM174 539l-9 9l95 115c3 3 5 4 8 4
s5.75977 -0.269531 9 -3l19 -16l-20 -25z" />
    <glyph glyph-name="acircumflex" unicode="&#xe2;" horiz-adv-x="459" 
d="M31 97c0 91 75 140 215 140h70v136c0 72 -35 109 -99 109c-82 0 -124 -49 -128 -114l-4 -50h-15l9 173c6.94043 -1.74023 16 -3 24 -3c27 0 64.8896 10 113 10c108 0 167 -48 167 -136v-315c0 -21 11 -28 23 -28c13 0 24 10 24 29v13h8v-13
c0 -28.7002 -23.7402 -52 -53 -52c-24.9502 0 -45.2598 21.5195 -47 49l-5 83h-8c-22 -102 -90 -135 -150 -135c-90 0 -144 42 -144 104zM98 97c0 -50 39 -81 87 -81c61 0 131 51 131 172v34h-66c-98 0 -152 -44 -152 -125zM222 666.13l88 -81l-16 -18l-41 42
c-24.7002 25.2998 -41 45 -41 48h-4c0 -3 -16.2998 -22.7002 -41 -48l-41 -42l-16 18l88 81h24z" />
    <glyph glyph-name="atilde" unicode="&#xe3;" horiz-adv-x="459" 
d="M31 97c0 91 75 140 215 140h70v136c0 72 -35 109 -99 109c-82 0 -124 -49 -128 -114l-4 -50h-15l9 173c6.94043 -1.74023 16 -3 24 -3c27 0 64.8896 10 113 10c108 0 167 -48 167 -136v-315c0 -21 11 -28 23 -28c13 0 24 10 24 29v13h8v-13
c0 -28.7002 -23.7402 -52 -53 -52c-24.9502 0 -45.2598 21.5195 -47 49l-5 83h-8c-22 -102 -90 -135 -150 -135c-90 0 -144 42 -144 104zM98 97c0 -50 39 -81 87 -81c61 0 131 51 131 172v34h-66c-98 0 -152 -44 -152 -125zM321 626c-12 -48 -31 -58 -54 -58
c-44 0 -97 61 -130 61c-11 0 -21 -8 -26 -28l-7 -26l-13 3l7 26c12 43 28 54 50 54c43 0 96 -61 130 -61c13 0 24 8 30 32l6 25l14 -3z" />
    <glyph glyph-name="adieresis" unicode="&#xe4;" horiz-adv-x="459" 
d="M31 97c0 91 75 140 215 140h70v136c0 72 -35 109 -99 109c-82 0 -124 -49 -128 -114l-4 -50h-15l9 173c6.94043 -1.74023 16 -3 24 -3c27 0 64.8896 10 113 10c108 0 167 -48 167 -136v-315c0 -21 11 -28 23 -28c13 0 24 10 24 29v13h8v-13
c0 -28.7002 -23.7402 -52 -53 -52c-24.9502 0 -45.2598 21.5195 -47 49l-5 83h-8c-22 -102 -90 -135 -150 -135c-90 0 -144 42 -144 104zM98 97c0 -50 39 -81 87 -81c61 0 131 51 131 172v34h-66c-98 0 -152 -44 -152 -125zM128 644c22 0 38 -14 38 -37
c0 -22 -15 -37 -38 -37c-22 0 -36 14 -36 37c0 22 13 37 36 37zM292 644c22 0 36 -14 36 -37c0 -22 -13 -37 -36 -37c-22 0 -38 14 -38 37c0 22 15 37 38 37z" />
    <glyph glyph-name="aring" unicode="&#xe5;" horiz-adv-x="459" 
d="M31 97c0 91 75 140 215 140h70v136c0 72 -35 109 -99 109c-82 0 -124 -49 -128 -114l-4 -50h-15l9 173c6.94043 -1.74023 16 -3 24 -3c27 0 64.8896 10 113 10c108 0 167 -48 167 -136v-315c0 -21 11 -28 23 -28c13 0 24 10 24 29v13h8v-13
c0 -28.7002 -23.7402 -52 -53 -52c-24.9502 0 -45.2598 21.5195 -47 49l-5 83h-8c-22 -102 -90 -135 -150 -135c-90 0 -144 42 -144 104zM98 97c0 -50 39 -81 87 -81c61 0 131 51 131 172v34h-66c-98 0 -152 -44 -152 -125zM210 658c-24 0 -52 -23 -52 -51
c0 -26 28 -52 52 -52s52 24 52 52s-28 51 -52 51zM210 681c36 0 74 -34 74 -74s-38 -74 -74 -74c-37 0 -73 36 -73 74c0 40 37 74 73 74z" />
    <glyph glyph-name="ae" unicode="&#xe6;" horiz-adv-x="815" 
d="M318 271h-61c-96 0 -159 -61 -159 -153c0 -56 40 -102 90 -102c58 0 130 53 130 172v83zM387 286c108 2 213 4 321 6c5 0 6 2 6 7c0 110 -62 183 -155 183c-92 0 -159 -77 -172 -196zM332 186.84c-0.490234 -133.19 -85.1992 -193.84 -153.999 -193.84
c-90 0 -149 51 -149 125c0 93 100 168 223 168h66v87c0 71 -35 109 -99 109c-82 0 -124 -49 -128 -114l-4 -50h-15l9 173c6.9502 -1.74023 16 -3 24 -3c27 0 64.8896 10 113 10c91.9297 0 141.83 -34.7803 154.65 -99.4004c41.8398 60.3701 109.47 99.4004 190.35 99.4004
c132 0 221 -80 221 -199v-4c0 -13 -11 -24 -26 -24h-373c-1 -9 -1 -18 -1 -27c0 -130 86 -227 191 -227c86.2402 0 161.34 39.79 197 114l12 -8c-39 -81 -120 -130 -224 -130c-127.15 0 -207.801 76.0303 -228.001 193.84z" />
    <glyph glyph-name="ccedilla" unicode="&#xe7;" horiz-adv-x="531" 
d="M34 248c0 138 119 249.999 266 249.999c58 0 99 -16 139 -16c10 0 24 3 33 5l6 -204h-15l-2 67c-2.37988 79.5596 -86 133 -168 133c-111 0 -186 -88 -186 -222c0 -162.99 104.12 -244 207 -244c68 0 138 31 174 105l14 -5c-33 -83 -113 -124 -201 -124h-12
l-9.5 -44.6299c8 3 17 5.62988 28 5.62988c47.21 0 74 -29.2002 74 -61.6299c0 -46.5703 -59.9004 -81 -134 -81l3 14.6299c48.9502 0 89 31.4004 89 73.3701c0 21.9805 -13 41 -33 41c-12 0 -26 -3 -34 -10l-11 2l12.3301 61.6504
c-144.83 11.04 -239.83 110.75 -239.83 253.98z" />
    <glyph glyph-name="egrave" unicode="&#xe8;" horiz-adv-x="516" 
d="M324 539l-102 84l-20 25l19 16c3.24023 2.73047 6 3 9 3s5 -1 8 -4l95 -115zM34 248c0 138 114 250 254 250c117 0 194 -65 194 -167c0 -21 -11 -35 -28 -35h-345.64c-2.2207 -16.5 -3.36035 -33.8604 -3.36035 -52c0 -128 78 -227 198 -227c63 0 132 23 173 79l12 -9
c-44 -59 -115 -94 -203 -94c-150 0 -251 103 -251 255zM110.74 311l288.26 6c8 0 14 5 14 15c0 93 -52 150 -129 150c-90.0195 0 -154.35 -66.2002 -173.26 -171z" />
    <glyph glyph-name="eacute" unicode="&#xe9;" horiz-adv-x="516" 
d="M252 539l-9 9l95 115c3 3 5 4 8 4s5.75977 -0.269531 9 -3l19 -16l-20 -25zM34 248c0 138 114 250 254 250c117 0 194 -65 194 -167c0 -21 -11 -35 -28 -35h-345.64c-2.2207 -16.5 -3.36035 -33.8604 -3.36035 -52c0 -128 78 -227 198 -227c63 0 132 23 173 79l12 -9
c-44 -59 -115 -94 -203 -94c-150 0 -251 103 -251 255zM110.74 311l288.26 6c8 0 14 5 14 15c0 93 -52 150 -129 150c-90.0195 0 -154.35 -66.2002 -173.26 -171z" />
    <glyph glyph-name="ecircumflex" unicode="&#xea;" horiz-adv-x="516" 
d="M300 666.13l88 -81l-16 -18l-41 42c-24.7002 25.2998 -41 45 -41 48h-4c0 -3 -16.2998 -22.7002 -41 -48l-41 -42l-16 18l88 81h24zM34 248c0 138 114 250 254 250c117 0 194 -65 194 -167c0 -21 -11 -35 -28 -35h-345.64c-2.2207 -16.5 -3.36035 -33.8604 -3.36035 -52
c0 -128 78 -227 198 -227c63 0 132 23 173 79l12 -9c-44 -59 -115 -94 -203 -94c-150 0 -251 103 -251 255zM110.74 311l288.26 6c8 0 14 5 14 15c0 93 -52 150 -129 150c-90.0195 0 -154.35 -66.2002 -173.26 -171z" />
    <glyph glyph-name="edieresis" unicode="&#xeb;" horiz-adv-x="516" 
d="M206 644c22 0 38 -14 38 -37c0 -22 -15 -37 -38 -37c-22 0 -36 14 -36 37c0 22 13 37 36 37zM370 644c22 0 36 -14 36 -37c0 -22 -13 -37 -36 -37c-22 0 -38 14 -38 37c0 22 15 37 38 37zM34 248c0 138 114 250 254 250c117 0 194 -65 194 -167c0 -21 -11 -35 -28 -35
h-345.64c-2.2207 -16.5 -3.36035 -33.8604 -3.36035 -52c0 -128 78 -227 198 -227c63 0 132 23 173 79l12 -9c-44 -59 -115 -94 -203 -94c-150 0 -251 103 -251 255zM110.74 311l288.26 6c8 0 14 5 14 15c0 93 -52 150 -129 150c-90.0195 0 -154.35 -66.2002 -173.26 -171z
" />
    <glyph glyph-name="igrave" unicode="&#xec;" horiz-adv-x="241" 
d="M157 539l-102 84l-20 25l19 16c3.24023 2.73047 6 3 9 3s5 -1 8 -4l95 -115zM88 134v319c0 18 -10.7998 30 -27 30h-31v8h113c7.2998 0 10 -2.7002 10 -10v-347c0 -114 5 -126 45 -126h30v-8h-213v8h29c40 0 44 12 44 126z" />
    <glyph glyph-name="iacute" unicode="&#xed;" horiz-adv-x="241" 
d="M85 539l-9 9l95 115c3 3 5 4 8 4s5.75977 -0.269531 9 -3l19 -16l-20 -25zM88 134v319c0 18 -10.7998 30 -27 30h-31v8h113c7.2998 0 10 -2.7002 10 -10v-347c0 -114 5 -126 45 -126h30v-8h-213v8h29c40 0 44 12 44 126z" />
    <glyph glyph-name="icircumflex" unicode="&#xee;" horiz-adv-x="241" 
d="M133 666.13l88 -81l-16 -18l-41 42c-24.7002 25.2998 -41 45 -41 48h-4c0 -3 -16.2998 -22.7002 -41 -48l-41 -42l-16 18l88 81h24zM88 134v319c0 18 -10.7998 30 -27 30h-31v8h113c7.2998 0 10 -2.7002 10 -10v-347c0 -114 5 -126 45 -126h30v-8h-213v8h29
c40 0 44 12 44 126z" />
    <glyph glyph-name="idieresis" unicode="&#xef;" horiz-adv-x="241" 
d="M39 644c22 0 38 -14 38 -37c0 -22 -15 -37 -38 -37c-22 0 -36 14 -36 37c0 22 13 37 36 37zM203 644c22 0 36 -14 36 -37c0 -22 -13 -37 -36 -37c-22 0 -38 14 -38 37c0 22 15 37 38 37zM88 134v319c0 18 -10.7998 30 -27 30h-31v8h113c7.2998 0 10 -2.7002 10 -10v-347
c0 -114 5 -126 45 -126h30v-8h-213v8h29c40 0 44 12 44 126z" />
    <glyph glyph-name="eth" unicode="&#xf0;" horiz-adv-x="563" 
d="M398 660l16 -20.999l-73.1104 -53.7998c113.1 -67.4502 186.109 -184.5 186.109 -318.2c0 -144 -84 -274 -247 -274c-166.5 0 -251 108 -251 217c0 111 88.0996 224 248 224c73.9902 0 138.94 -35.6797 175.4 -89.25c-20.7598 92.25 -68.3594 171.62 -134.499 223.521
l-81.9004 -60.2705l-17 21l76.0195 55.6396c-36.3398 23.5996 -77.3896 39.3896 -122.02 45.3594l3 12c50.1299 -6.7002 97 -21.4102 139.13 -42.6504zM464 239.001c0 109.34 -98 179 -192 179c-87 0 -174 -60.4404 -174 -194c0 -106 68 -216 185 -216
c124 0 181 115 181 231z" />
    <glyph glyph-name="ntilde" unicode="&#xf1;" horiz-adv-x="522" 
d="M378 626c-12 -48 -31 -58 -54 -58c-44 0 -97 61 -130 61c-11 0 -21 -8 -26 -28l-7 -26l-13 3l7 26c12 43 28 54 50 54c43 0 96 -61 130 -61c13 0 24 8 30 32l6 25l14 -3zM15 0v8h29c40 0 44 12 44 127v307c0 20.7002 -11.2305 29.7197 -23.0498 29.7197
c-13.1201 0 -23.9502 -11.1201 -23.9502 -29.7197v-31h-8v31c0 34.5098 27 52 56 52c26 0 51 -14.2305 51 -44v-36c0 -13 -1 -79 -2 -87h6c2 15 9 40 14 54c24 71 83 117 152 117c90 0 140 -50 140 -126v-237c0 -115 4 -127 44 -127h22v-8h-204v8h29c40 0 44 12 44 127v214
c0 82 -24 126 -82 126c-85 0 -150 -77 -150 -195v-145c0 -115 5 -127 45 -127h30v-8h-213z" />
    <glyph glyph-name="ograve" unicode="&#xf2;" horiz-adv-x="604" 
d="M334 539l-102 84l-20 25l19 16c3.24023 2.73047 6 3 9 3s5 -1 8 -4l95 -115zM302 -7c-160.8 0 -268 101.2 -268 253c0 138.6 121.14 252 268 252c160.53 0 268 -101.3 268 -252c0 -138.9 -120.06 -253 -268 -253zM304 8c116.22 0 195 90.0498 195 224
c0 137.5 -90.25 250 -201 250c-115.99 0 -193 -88.9805 -193 -223c0 -137.8 88.75 -251 199 -251z" />
    <glyph glyph-name="oacute" unicode="&#xf3;" horiz-adv-x="604" 
d="M262 539l-9 9l95 115c3 3 5 4 8 4s5.75977 -0.269531 9 -3l19 -16l-20 -25zM302 -7c-160.8 0 -268 101.2 -268 253c0 138.6 121.14 252 268 252c160.53 0 268 -101.3 268 -252c0 -138.9 -120.06 -253 -268 -253zM304 8c116.22 0 195 90.0498 195 224
c0 137.5 -90.25 250 -201 250c-115.99 0 -193 -88.9805 -193 -223c0 -137.8 88.75 -251 199 -251z" />
    <glyph glyph-name="ocircumflex" unicode="&#xf4;" horiz-adv-x="604" 
d="M310 666.13l88 -81l-16 -18l-41 42c-24.7002 25.2998 -41 45 -41 48h-4c0 -3 -16.2998 -22.7002 -41 -48l-41 -42l-16 18l88 81h24zM302 -7c-160.8 0 -268 101.2 -268 253c0 138.6 121.14 252 268 252c160.53 0 268 -101.3 268 -252c0 -138.9 -120.06 -253 -268 -253z
M304 8c116.22 0 195 90.0498 195 224c0 137.5 -90.25 250 -201 250c-115.99 0 -193 -88.9805 -193 -223c0 -137.8 88.75 -251 199 -251z" />
    <glyph glyph-name="otilde" unicode="&#xf5;" horiz-adv-x="604" 
d="M409 626c-12 -48 -31 -58 -54 -58c-44 0 -97 61 -130 61c-11 0 -21 -8 -26 -28l-7 -26l-13 3l7 26c12 43 28 54 50 54c43 0 96 -61 130 -61c13 0 24 8 30 32l6 25l14 -3zM302 -7c-160.8 0 -268 101.2 -268 253c0 138.6 121.14 252 268 252c160.53 0 268 -101.3 268 -252
c0 -138.9 -120.06 -253 -268 -253zM304 8c116.22 0 195 90.0498 195 224c0 137.5 -90.25 250 -201 250c-115.99 0 -193 -88.9805 -193 -223c0 -137.8 88.75 -251 199 -251z" />
    <glyph glyph-name="odieresis" unicode="&#xf6;" horiz-adv-x="604" 
d="M216 644c22 0 38 -14 38 -37c0 -22 -15 -37 -38 -37c-22 0 -36 14 -36 37c0 22 13 37 36 37zM380 644c22 0 36 -14 36 -37c0 -22 -13 -37 -36 -37c-22 0 -38 14 -38 37c0 22 15 37 38 37zM302 -7c-160.8 0 -268 101.2 -268 253c0 138.6 121.14 252 268 252
c160.53 0 268 -101.3 268 -252c0 -138.9 -120.06 -253 -268 -253zM304 8c116.22 0 195 90.0498 195 224c0 137.5 -90.25 250 -201 250c-115.99 0 -193 -88.9805 -193 -223c0 -137.8 88.75 -251 199 -251z" />
    <glyph glyph-name="divide" unicode="&#xf7;" horiz-adv-x="387" 
d="M196 403c22 0 37 -14 37 -37c0 -22 -14 -37 -37 -37c-22 0 -37 14 -37 37c0 22 14 37 37 37zM355 229h-326l4 30h325zM196 159c22 0 37 -14 37 -37c0 -22 -14 -37 -37 -37c-22 0 -37 14 -37 37c0 22 14 37 37 37z" />
    <glyph glyph-name="oslash" unicode="&#xf8;" horiz-adv-x="604" 
d="M304 8c116.22 0 195 90.0488 195 223.999c0 69.6104 -23.1299 132.82 -60.3398 178.261l-262.72 -343.27c34.5596 -36.75 79.1992 -58.9902 128.06 -58.9902zM93.9902 -40.1006l-17.9795 13.5293l54.0596 70.5703c-60.6504 44.21 -96.0703 114.75 -96.0703 202
c0 138.6 121.14 252 268 252c56.9199 0 107.18 -12.7402 148.33 -35.9004l59.6699 77.9004l18 -13l-58.7305 -76.7402c63.4502 -43.8799 100.73 -115.5 100.73 -204.26c0 -138.9 -120.06 -253 -268 -253c-59.2002 0 -111.13 13.71 -153.12 38.6201zM423.471 427.039
c-34.4199 34.3604 -78.0693 54.96 -125.47 54.96c-115.99 0 -193 -88.9805 -193 -223c0 -67.5596 21.3301 -129.22 56.0801 -174.51z" />
    <glyph glyph-name="ugrave" unicode="&#xf9;" horiz-adv-x="514" 
d="M75 119v334c0 18 -10.7998 30 -27 30h-31v8h108c10.9502 0 15 -4.0498 15 -15v-349c0 -78 34 -119 82 -119c90 0 149 85 149 213v218c0 40 -5 44 -45 44h-15v8l131 3v-6c-2 -15 -4 -30 -4 -45v-396c0 -21 11 -28 23 -28c13 0 24 10 24 29v13h8v-13
c0 -32.7305 -29 -52 -56 -52c-25 0 -49 15.9199 -49 49v118h-7c-18 -120 -88 -170 -166 -170c-82 0 -140 44 -140 126zM286 539l-102 84l-20 25l19 16c3.24023 2.73047 6 3 9 3s5 -1 8 -4l95 -115z" />
    <glyph glyph-name="uacute" unicode="&#xfa;" horiz-adv-x="514" 
d="M75 119v334c0 18 -10.7998 30 -27 30h-31v8h108c10.9502 0 15 -4.0498 15 -15v-349c0 -78 34 -119 82 -119c90 0 149 85 149 213v218c0 40 -5 44 -45 44h-15v8l131 3v-6c-2 -15 -4 -30 -4 -45v-396c0 -21 11 -28 23 -28c13 0 24 10 24 29v13h8v-13
c0 -32.7305 -29 -52 -56 -52c-25 0 -49 15.9199 -49 49v118h-7c-18 -120 -88 -170 -166 -170c-82 0 -140 44 -140 126zM214 539l-9 9l95 115c3 3 5 4 8 4s5.75977 -0.269531 9 -3l19 -16l-20 -25z" />
    <glyph glyph-name="ucircumflex" unicode="&#xfb;" horiz-adv-x="514" 
d="M75 119v334c0 18 -10.7998 30 -27 30h-31v8h108c10.9502 0 15 -4.0498 15 -15v-349c0 -78 34 -119 82 -119c90 0 149 85 149 213v218c0 40 -5 44 -45 44h-15v8l131 3v-6c-2 -15 -4 -30 -4 -45v-396c0 -21 11 -28 23 -28c13 0 24 10 24 29v13h8v-13
c0 -32.7305 -29 -52 -56 -52c-25 0 -49 15.9199 -49 49v118h-7c-18 -120 -88 -170 -166 -170c-82 0 -140 44 -140 126zM262 666.13l88 -81l-16 -18l-41 42c-24.7002 25.2998 -41 45 -41 48h-4c0 -3 -16.2998 -22.7002 -41 -48l-41 -42l-16 18l88 81h24z" />
    <glyph glyph-name="udieresis" unicode="&#xfc;" horiz-adv-x="514" 
d="M75 119v334c0 18 -10.7998 30 -27 30h-31v8h108c10.9502 0 15 -4.0498 15 -15v-349c0 -78 34 -119 82 -119c90 0 149 85 149 213v218c0 40 -5 44 -45 44h-15v8l131 3v-6c-2 -15 -4 -30 -4 -45v-396c0 -21 11 -28 23 -28c13 0 24 10 24 29v13h8v-13
c0 -32.7305 -29 -52 -56 -52c-25 0 -49 15.9199 -49 49v118h-7c-18 -120 -88 -170 -166 -170c-82 0 -140 44 -140 126zM168 644c22 0 38 -14 38 -37c0 -22 -15 -37 -38 -37c-22 0 -36 14 -36 37c0 22 13 37 36 37zM332 644c22 0 36 -14 36 -37c0 -22 -13 -37 -36 -37
c-22 0 -38 14 -38 37c0 22 15 37 38 37z" />
    <glyph glyph-name="yacute" unicode="&#xfd;" horiz-adv-x="492" 
d="M222 539l-9 9l95 115c3 3 5 4 8 4s5.75977 -0.269531 9 -3l19 -16l-20 -25zM241 -5c2.99023 7.53027 4.75 15.79 4.75 24.2002c0 7.62012 -1.4502 15.3701 -4.75 22.7998l-169 390c-16 38 -22 51 -50 51h-13v8h161v-8h-59v-1c11 -4 20.3701 -24.8701 27 -40l134 -306
c5 -12 6 -30 6 -35v-2h3l104 265l20 68c2.87988 9.33008 4.36035 17.2002 4.36035 23.7402c0 19.4697 -13.1006 27.2598 -41.3604 27.2598h-28v8h145v-7c-24 0 -34 -16 -50 -53l-32 -72l-177 -449c-22 -56 -62 -99 -111 -99c-35 0 -63 35 -63 78c24 -11 44 -19 70 -19
c36 0 73.6602 10.7305 94 62z" />
    <glyph glyph-name="thorn" unicode="&#xfe;" horiz-adv-x="574" 
d="M74 651c0 16 -9 25 -25 25h-43v7h52c34 0 74 10 74 44v3h7v-184c0 -75 -17 -210 -19 -219h10c2 15 9 40 14 54c26 78 99 117 176 117c152 0 228 -127 228 -253s-76 -252 -228 -252c-77 0 -149 39 -176 117c-1.54004 4.32031 -3.28027 9.69043 -5 15.5v-173.5
c0 -115 5 -128 45 -128h30v-7h-213v7h29c40 0 44 13.0098 44 128v699zM139 211c0 -131 82 -195 165 -195c116 0 173 99 173 214s-57 245 -173 245c-83 0 -165 -64 -165 -195v-69z" />
    <glyph glyph-name="ydieresis" unicode="&#xff;" horiz-adv-x="492" 
d="M176 644c22 0 38 -14 38 -37c0 -22 -15 -37 -38 -37c-22 0 -36 14 -36 37c0 22 13 37 36 37zM340 644c22 0 36 -14 36 -37c0 -22 -13 -37 -36 -37c-22 0 -38 14 -38 37c0 22 15 37 38 37zM241 -5c2.99023 7.53027 4.75 15.79 4.75 24.2002
c0 7.62012 -1.4502 15.3701 -4.75 22.7998l-169 390c-16 38 -22 51 -50 51h-13v8h161v-8h-59v-1c11 -4 20.3701 -24.8701 27 -40l134 -306c5 -12 6 -30 6 -35v-2h3l104 265l20 68c2.87988 9.33008 4.36035 17.2002 4.36035 23.7402
c0 19.4697 -13.1006 27.2598 -41.3604 27.2598h-28v8h145v-7c-24 0 -34 -16 -50 -53l-32 -72l-177 -449c-22 -56 -62 -99 -111 -99c-35 0 -63 35 -63 78c24 -11 44 -19 70 -19c36 0 73.6602 10.7305 94 62z" />
    <glyph glyph-name="Amacron" unicode="&#x100;" horiz-adv-x="590" 
d="M410 689h-227l2 21h227zM7 0v8c7 0 30 3 54 51l37 75l184 424c6.51953 15.0098 14 33 15 45h17l213 -544c16 -40 21 -51 49 -51h6v-8h-163v8h19c8.07031 0 27.8398 2.59961 27.8398 22.5c0 4.76953 -1.12988 10.54 -3.83984 17.5l-51.1699 131h-178.83l-96 -1.74023
l-21 -49.2598l-23 -69c-3 -8 -4 -15 -4 -21c0 -19 15 -30 40 -30h28v-8h-149zM144.24 196.57l91.7598 -2.57031h168.97l-108.97 279c-6 17 -8 31 -8 49h-5z" />
    <glyph glyph-name="amacron" unicode="&#x101;" horiz-adv-x="459" 
d="M31 97c0 91 75 140 215 140h70v136c0 72 -35 109 -99 109c-82 0 -124 -49 -128 -114l-4 -50h-15l9 173c6.94043 -1.74023 16 -3 24 -3c27 0 64.8896 10 113 10c108 0 167 -48 167 -136v-315c0 -21 11 -28 23 -28c13 0 24 10 24 29v13h8v-13
c0 -28.7002 -23.7402 -52 -53 -52c-24.9502 0 -45.2598 21.5195 -47 49l-5 83h-8c-22 -102 -90 -135 -150 -135c-90 0 -144 42 -144 104zM98 97c0 -50 39 -81 87 -81c61 0 131 51 131 172v34h-66c-98 0 -152 -44 -152 -125zM331 597h-227l2 21h227z" />
    <glyph glyph-name="Abreve" unicode="&#x102;" horiz-adv-x="590" 
d="M182 749l15 7c36 -52 68 -74 100 -74c38 0 72 29 103 74l12 -7c-24 -55 -67 -97 -115 -97c-38 0 -78 28 -115 97zM7 0v8c7 0 30 3 54 51l37 75l184 424c6.51953 15.0098 14 33 15 45h17l213 -544c16 -40 21 -51 49 -51h6v-8h-163v8h19
c8.07031 0 27.8398 2.59961 27.8398 22.5c0 4.76953 -1.12988 10.54 -3.83984 17.5l-51.1699 131h-178.83l-96 -1.74023l-21 -49.2598l-23 -69c-3 -8 -4 -15 -4 -21c0 -19 15 -30 40 -30h28v-8h-149zM144.24 196.57l91.7598 -2.57031h168.97l-108.97 279c-6 17 -8 31 -8 49
h-5z" />
    <glyph glyph-name="abreve" unicode="&#x103;" horiz-adv-x="459" 
d="M31 97c0 91 75 140 215 140h70v136c0 72 -35 109 -99 109c-82 0 -124 -49 -128 -114l-4 -50h-15l9 173c6.94043 -1.74023 16 -3 24 -3c27 0 64.8896 10 113 10c108 0 167 -48 167 -136v-315c0 -21 11 -28 23 -28c13 0 24 10 24 29v13h8v-13
c0 -28.7002 -23.7402 -52 -53 -52c-24.9502 0 -45.2598 21.5195 -47 49l-5 83h-8c-22 -102 -90 -135 -150 -135c-90 0 -144 42 -144 104zM98 97c0 -50 39 -81 87 -81c61 0 131 51 131 172v34h-66c-98 0 -152 -44 -152 -125zM103 657l15 7c36 -52 68 -74 100 -74
c38 0 72 29 103 74l12 -7c-24 -55 -67 -97 -115 -97c-38 0 -78 28 -115 97z" />
    <glyph glyph-name="Aogonek" unicode="&#x104;" horiz-adv-x="590" 
d="M7 0v8c7 0 30 3 54 51l37 75l184 424c6.65039 15.3301 14 33 15 45h17l213 -544c16.5195 -42.1904 22 -51 50 -51h6v-8h-17c-90 0 -127 -50 -127 -111c0 -37 26 -61 64 -61c17 0 38 6 48 9l28 10l5 -14l-28 -10c-24 -8 -43 -12 -60 -12c-56 0 -95 30 -95 75
c0 58 47 97 100 116v10c-12 4 -30.4805 14.2002 -39 36l-51.1699 131h-178.83l-96 -1.74023l-21 -49.2598l-23 -69c-3 -8 -4 -15 -4 -21c0 -19 15 -30 40 -30h28v-8h-149zM144.24 196.57l91.7598 -2.57031h168.97l-108.97 279c-6.55957 16.79 -8 31 -8 49h-5z" />
    <glyph glyph-name="aogonek" unicode="&#x105;" horiz-adv-x="459" 
d="M31 97c0 91 75 139.999 215 139.999h70v136c0 72 -35 109 -99 109c-82 0 -124 -49 -128 -114l-4 -50h-15l9 173c6.74023 -1.67969 13.8701 -2.34961 21.54 -2.34961c28.75 0 64.9297 9.34961 115.46 9.34961c108 0 167 -48 167 -136v-315c0 -21 11 -28 23 -28
c13 0 24 10 24 29v13h8v-13c0 -23.4697 -15.8799 -43.3301 -37.6699 -49.79c-0.389648 -0.110352 -0.769531 -0.220703 -1.15918 -0.331055c-45.7998 -13.2695 -77.1699 -53.4395 -77.1699 -109.079c0 -37 25.9902 -60.79 64 -60.7998c24.5596 0 52.7197 9.48047 76 18.79
l5 -14c-9.71973 -4.11035 -54.7998 -22 -88 -22c-56.0098 0 -94 30.0098 -94 75.0098c0 49.4102 35.1396 90.9805 86.0098 112.551c-18.1904 6.29004 -31.6104 24.54 -33.0107 46.6504l-5 83h-8c-22 -102 -90 -135 -150 -135c-90 0 -144 42 -144 104zM98 96.999
c0 -50 39 -81 87 -81c61 0 131 51 131 172v34h-66c-98 0 -152 -44 -152 -125z" />
    <glyph glyph-name="Cacute" unicode="&#x106;" horiz-adv-x="543" 
d="M289 631l-9 9l95 115c3 3 5 4 8 4s5.75977 -0.269531 9 -3l19 -16l-20 -25zM29 302c0 168 130 304 291 304c50 0 96 -15 135 -15c12 0 25 1 37 4l6 -213h-15l-2 72c-2.29004 82.3096 -86 138 -168 138c-126 0 -210 -111 -210 -277c0 -199.06 112.17 -298 223 -298
c80.79 0 150.6 36.1299 182 105l14 -5c-33 -83 -113 -124 -201 -124c-175 0 -292 124 -292 309z" />
    <glyph glyph-name="cacute" unicode="&#x107;" horiz-adv-x="531" 
d="M266 539l-9 9l95 115c3 3 5 4 8 4s5.75977 -0.269531 9 -3l19 -16l-20 -25zM34 248c0 138 119 250 266 250c58 0 99 -16 139 -16c10 0 24 3 33 5l6 -204h-15l-2 67c-2.37988 79.5596 -86 133 -168 133c-111 0 -186 -88 -186 -222c0 -162.99 104.12 -244 207 -244
c68 0 138 31 174 105l14 -5c-33 -83 -113 -124 -201 -124c-160 0 -267 103 -267 255z" />
    <glyph glyph-name="Ccircumflex" unicode="&#x108;" horiz-adv-x="543" 
d="M337 759.13l88 -81l-16 -18l-41 42c-24.7002 25.2998 -41 45 -41 48h-4c0 -3 -16.2998 -22.7002 -41 -48l-41 -42l-16 18l88 81h24zM29 302c0 168 130 304 291 304c50 0 96 -15 135 -15c12 0 25 1 37 4l6 -213h-15l-2 72c-2.29004 82.3096 -86 138 -168 138
c-126 0 -210 -111 -210 -277c0 -199.06 112.17 -298 223 -298c80.79 0 150.6 36.1299 182 105l14 -5c-33 -83 -113 -124 -201 -124c-175 0 -292 124 -292 309z" />
    <glyph glyph-name="ccircumflex" unicode="&#x109;" horiz-adv-x="531" 
d="M314 666.13l88 -81l-16 -18l-41 42c-24.7002 25.2998 -41 45 -41 48h-4c0 -3 -16.2998 -22.7002 -41 -48l-41 -42l-16 18l88 81h24zM34 248c0 138 119 250 266 250c58 0 99 -16 139 -16c10 0 24 3 33 5l6 -204h-15l-2 67c-2.37988 79.5596 -86 133 -168 133
c-111 0 -186 -88 -186 -222c0 -162.99 104.12 -244 207 -244c68 0 138 31 174 105l14 -5c-33 -83 -113 -124 -201 -124c-160 0 -267 103 -267 255z" />
    <glyph glyph-name="Cdotaccent" unicode="&#x10a;" horiz-adv-x="543" 
d="M362 751c22 0 37 -13 37 -36c0 -22 -14 -38 -37 -38c-22 0 -38 15 -38 38c0 22 15 36 38 36zM29 302c0 168 130 304 291 304c50 0 96 -15 135 -15c12 0 25 1 37 4l6 -213h-15l-2 72c-2.29004 82.3096 -86 138 -168 138c-126 0 -210 -111 -210 -277
c0 -199.06 112.17 -298 223 -298c80.79 0 150.6 36.1299 182 105l14 -5c-33 -83 -113 -124 -201 -124c-175 0 -292 124 -292 309z" />
    <glyph glyph-name="cdotaccent" unicode="&#x10b;" horiz-adv-x="531" 
d="M302 658c22 0 37 -13 37 -36c0 -22 -14 -38 -37 -38c-22 0 -38 15 -38 38c0 22 15 36 38 36zM34 248c0 138 119 250 266 250c58 0 99 -16 139 -16c10 0 24 3 33 5l6 -204h-15l-2 67c-2.37988 79.5596 -86 133 -168 133c-111 0 -186 -88 -186 -222
c0 -162.99 104.12 -244 207 -244c68 0 138 31 174 105l14 -5c-33 -83 -113 -124 -201 -124c-160 0 -267 103 -267 255z" />
    <glyph glyph-name="Ccaron" unicode="&#x10c;" horiz-adv-x="543" 
d="M337 657h-24l-88 81l16 18l41 -42c24.7002 -25.2998 41 -45 41 -48h4c0 3 16.2998 22.7002 41 48l41 42l16 -18zM29 302c0 168 130 304 291 304c50 0 96 -15 135 -15c12 0 25 1 37 4l6 -213h-15l-2 72c-2.29004 82.3096 -86 138 -168 138c-126 0 -210 -111 -210 -277
c0 -199.06 112.17 -298 223 -298c80.79 0 150.6 36.1299 182 105l14 -5c-33 -83 -113 -124 -201 -124c-175 0 -292 124 -292 309z" />
    <glyph glyph-name="ccaron" unicode="&#x10d;" horiz-adv-x="531" 
d="M314 564h-24l-88 81l16 18l41 -42c24.7002 -25.2998 41 -45 41 -48h4c0 3 16.2998 22.7002 41 48l41 42l16 -18zM34 248c0 138 119 250 266 250c58 0 99 -16 139 -16c10 0 24 3 33 5l6 -204h-15l-2 67c-2.37988 79.5596 -86 133 -168 133c-111 0 -186 -88 -186 -222
c0 -162.99 104.12 -244 207 -244c68 0 138 31 174 105l14 -5c-33 -83 -113 -124 -201 -124c-160 0 -267 103 -267 255z" />
    <glyph glyph-name="Dcaron" unicode="&#x10e;" horiz-adv-x="597" 
d="M179 15h43c180 0 277 100 277 285c0 157 -120 284 -270 284h-87v-1c10 -10 14 -20 14 -39v-489c0 -26 8 -40 23 -40zM15 0v8h29c39.5996 0 44 12.7002 44 127v329c0 114.3 -4.40039 127 -44 127h-29v8h230c196 0 326 -119 326 -299s-130 -300 -326 -300h-230zM271 656
h-24l-88 81l16 18l41 -42c24.7002 -25.2998 41 -45 41 -48h4c0 3 16.2998 22.7002 41 48l41 42l16 -18z" />
    <glyph glyph-name="dcaron" unicode="&#x10f;" horiz-adv-x="656" 
d="M583 545c22 0 44 23 48 46c1 7 1 16 3 19l-3 1c-2 -3 -10 -6 -16 -6c-24 0 -38 13 -38 37s14 38 38 38c22 0 36 -16 36 -38c0 -62 -27 -104 -68 -104v7zM105 261c0 -144 67 -241 169 -241c67.5498 0 131.79 35.7695 169 118.09v141.91c0 131 -81 195 -164 195
c-104 0 -174 -86 -174 -214zM34 246c0 139 103 252 228 252c77 0 151 -39 178 -117l3 -9.28027v279.28c0 16 -8 25 -24 25h-40v7h48c34 0 74 11 74 45v3h7v-684c0 -21 11 -28 23 -28c13 0 24 10 24 29v13h8v-13c0 -28.7002 -22.7402 -52 -52 -52
c-24.9502 0 -45.6904 21.5 -47 49l-4 84h-2.36035c-36 -83.2598 -98.6592 -136 -195.64 -136c-136 0 -228 101 -228 253z" />
    <glyph glyph-name="Dcroat" unicode="&#x110;" horiz-adv-x="602" 
d="M20 0v8h29c39.5996 0 44 12.7002 44 127v156h-64l4 25h60v148c0 114.3 -4.40039 127 -44 127h-29v8h230c196 0 326 -119 326 -299s-130 -300 -326 -300h-230zM184 15h43c180 0 277 100 277 285c0 157 -120 284 -270 284h-87v-1c10 -10 14 -20 14 -39v-228h141l-4 -25
h-137v-236c0 -26 8 -40 23 -40z" />
    <glyph glyph-name="dcroat" unicode="&#x111;" horiz-adv-x="581" 
d="M34 246c0 139 103.002 252 228.002 252c77 0 151 -39 178 -117c0.969727 -2.73047 1.98926 -5.87012 2.99902 -9.28027v176.28h-123l3 23h120v80c0 16 -8 25 -24 25h-40v7h48c34 0 75 11 75 45v3h7v-160h51l-3 -23h-48v-501c0 -21 11 -28 23 -28c13 0 24 10 24 29v13h8
v-13c0 -28.7002 -23.7402 -52 -53 -52c-24.9502 0 -45.6904 21.5 -47 49l-4 84h-2.36035c-36 -83.2598 -98.6602 -136 -195.641 -136c-136 0 -228 101 -228 253zM105.002 261c0 -144 67 -241 169 -241c67.5498 0 131.79 35.7695 169 118.09v141.91c0 131 -81 195 -164 195
c-104 0 -174 -86 -174 -214z" />
    <glyph glyph-name="Emacron" unicode="&#x112;" horiz-adv-x="463" 
d="M291 172h-11v46c0 80 -43 89 -90 89h-34v-252c0 -27 9 -40 23 -40h121c80 0 116 36 123 113l6 66h13l-11 -186c-6 -6 -18 -8 -31 -8h-385v8h29c40 0 44 12 44 127v329c0 115 -4 127 -44 127h-29v8h344c13 0 25 -1 31 -7l12 -187h-15l-4 58c-6 88 -48 121 -128 121h-117
v-1c10 -10 18 -25 18 -43v-218h34c47 0 90 8 90 88v29h11v-267zM355 689h-227l2 21h227z" />
    <glyph glyph-name="emacron" unicode="&#x113;" horiz-adv-x="516" 
d="M401 597h-227l2 21h227zM34 248c0 138 114 250 254 250c117 0 194 -65 194 -167c0 -21 -11 -35 -28 -35h-345.64c-2.2207 -16.5 -3.36035 -33.8604 -3.36035 -52c0 -128 78 -227 198 -227c63 0 132 23 173 79l12 -9c-44 -59 -115 -94 -203 -94c-150 0 -251 103 -251 255z
M110.74 311l288.26 6c8 0 14 5 14 15c0 93 -52 150 -129 150c-90.0195 0 -154.35 -66.2002 -173.26 -171z" />
    <glyph glyph-name="Ebreve" unicode="&#x114;" horiz-adv-x="463" 
d="M291 172h-11v46c0 80 -43 89 -90 89h-34v-252c0 -27 9 -40 23 -40h121c80 0 116 36 123 113l6 66h13l-11 -186c-6 -6 -18 -8 -31 -8h-385v8h29c40 0 44 12 44 127v329c0 115 -4 127 -44 127h-29v8h344c13 0 25 -1 31 -7l12 -187h-15l-4 58c-6 88 -48 121 -128 121h-117
v-1c10 -10 18 -25 18 -43v-218h34c47 0 90 8 90 88v29h11v-267zM127 749l15 7c36 -52 68 -74 100 -74c38 0 72 29 103 74l12 -7c-24 -55 -67 -97 -115 -97c-38 0 -78 28 -115 97z" />
    <glyph glyph-name="ebreve" unicode="&#x115;" horiz-adv-x="516" 
d="M173 657l15 7c36 -52 68 -74 100 -74c38 0 72 29 103 74l12 -7c-24 -55 -67 -97 -115 -97c-38 0 -78 28 -115 97zM34 248c0 138 114 250 254 250c117 0 194 -65 194 -167c0 -21 -11 -35 -28 -35h-345.64c-2.2207 -16.5 -3.36035 -33.8604 -3.36035 -52
c0 -128 78 -227 198 -227c63 0 132 23 173 79l12 -9c-44 -59 -115 -94 -203 -94c-150 0 -251 103 -251 255zM110.74 311l288.26 6c8 0 14 5 14 15c0 93 -52 150 -129 150c-90.0195 0 -154.35 -66.2002 -173.26 -171z" />
    <glyph glyph-name="Edotaccent" unicode="&#x116;" horiz-adv-x="463" 
d="M291 172h-11v46c0 80 -43 89 -90 89h-34v-252c0 -27 9 -40 23 -40h121c80 0 116 36 123 113l6 66h13l-11 -186c-6 -6 -18 -8 -31 -8h-385v8h29c40 0 44 12 44 127v329c0 115 -4 127 -44 127h-29v8h344c13 0 25 -1 31 -7l12 -187h-15l-4 58c-6 88 -48 121 -128 121h-117
v-1c10 -10 18 -25 18 -43v-218h34c47 0 90 8 90 88v29h11v-267zM279 750c22 0 37 -13 37 -36c0 -22 -14 -38 -37 -38c-22 0 -38 15 -38 38c0 22 15 36 38 36z" />
    <glyph glyph-name="edotaccent" unicode="&#x117;" horiz-adv-x="516" 
d="M288 658c22 0 37 -13 37 -36c0 -22 -14 -38 -37 -38c-22 0 -38 15 -38 38c0 22 15 36 38 36zM34 248c0 138 114 250 254 250c117 0 194 -65 194 -167c0 -21 -11 -35 -28 -35h-345.64c-2.2207 -16.5 -3.36035 -33.8604 -3.36035 -52c0 -128 78 -227 198 -227
c63 0 132 23 173 79l12 -9c-44 -59 -115 -94 -203 -94c-150 0 -251 103 -251 255zM110.74 311l288.26 6c8 0 14 5 14 15c0 93 -52 150 -129 150c-90.0195 0 -154.35 -66.2002 -173.26 -171z" />
    <glyph glyph-name="Eogonek" unicode="&#x118;" horiz-adv-x="463" 
d="M15 0v8h29c40 0 44 12 44 127v329c0 115 -4 127 -44 127h-29v8h344c13 0 25 -1 31 -7l12 -187h-15l-4 58c-6 88 -48 121 -128 121h-117v-1c10 -10 18 -25 18 -43v-218h34c47 0 90 8 90 88v29h11v-267h-11v46c0 80 -43 89 -90 89h-34v-252c0 -27 9 -40 23 -40h122
c80 0 118 33 124 113l5 66h13l-11 -186c-6 -6 -12 -8 -31 -8c-26 0 -98 -27 -98 -111c0 -37 25 -61 64 -61c24.5596 0 52.7197 9.69043 76 19l5 -14c-9.71973 -4.11035 -54.7998 -22 -88 -22c-57 0 -95 30 -95 75c0 55 41 94 90 114l-2 5
c-17.2197 -2.75977 -33.8799 -5 -52 -5h-286z" />
    <glyph glyph-name="eogonek" unicode="&#x119;" horiz-adv-x="516" 
d="M326.01 -189.01c-56.0098 0 -94.0107 30.0107 -94.0107 75.0107c0 47.4697 32.6396 85.4102 75.1396 107.76c-7.25 -0.5 -14.6396 -0.759766 -22.1396 -0.759766c-150 0 -251 103 -251 255c0 138 114 250 254 250c117 0 194 -65 194 -167c0 -21 -11 -35 -28 -35h-345.64
c-2.21973 -16.5 -3.35938 -33.8604 -3.35938 -52c0 -128 78 -227 198 -227c63 0 132 23 173 79l12 -9c-30.0303 -40.2598 -72.6299 -69.3496 -124.63 -83.7598c-50.0801 -13.8301 -93.3701 -53.2402 -93.3701 -114.24c0 -37 25 -60.9902 63.0098 -61
c24.5596 0 52.7197 9.67969 76 18.9893l5 -14c-9.71973 -4.11035 -54.7998 -22 -88 -22zM110.738 311.201l288.26 5.7998c8 0 14 5 14 15c0 93 -52 150 -129 150c-90.0195 0 -154.35 -66 -173.26 -170.8z" />
    <glyph glyph-name="Ecaron" unicode="&#x11a;" horiz-adv-x="463" 
d="M291 172h-11v46c0 80 -43 89 -90 89h-34v-252c0 -27 9 -40 23 -40h121c80 0 116 36 123 113l6 66h13l-11 -186c-6 -6 -18 -8 -31 -8h-385v8h29c40 0 44 12 44 127v329c0 115 -4 127 -44 127h-29v8h344c13 0 25 -1 31 -7l12 -187h-15l-4 58c-6 88 -48 121 -128 121h-117
v-1c10 -10 18 -25 18 -43v-218h34c47 0 90 8 90 88v29h11v-267zM254 656h-24l-88 81l16 18l41 -42c24.7002 -25.2998 41 -45 41 -48h4c0 3 16.2998 22.7002 41 48l41 42l16 -18z" />
    <glyph glyph-name="ecaron" unicode="&#x11b;" horiz-adv-x="516" 
d="M300 564h-24l-88 81l16 18l41 -42c24.7002 -25.2998 41 -45 41 -48h4c0 3 16.2998 22.7002 41 48l41 42l16 -18zM34 248c0 138 114 250 254 250c117 0 194 -65 194 -167c0 -21 -11 -35 -28 -35h-345.64c-2.2207 -16.5 -3.36035 -33.8604 -3.36035 -52
c0 -128 78 -227 198 -227c63 0 132 23 173 79l12 -9c-44 -59 -115 -94 -203 -94c-150 0 -251 103 -251 255zM110.74 311l288.26 6c8 0 14 5 14 15c0 93 -52 150 -129 150c-90.0195 0 -154.35 -66.2002 -173.26 -171z" />
    <glyph glyph-name="Gcircumflex" unicode="&#x11c;" horiz-adv-x="584" 
d="M515 -33h-7v58c-1 21 -16 41 -34 41c-8 0 -16 -4 -24 -12c-38 -40 -91 -61 -148 -61c-164 0 -274 124 -274 309c0 168 127 304 285 304c55 0 92 -15 133 -15c12 0 24 2 36 4l11 -213l-15 0.00976562l-3 55.9902c-5.2002 97.0801 -85 153 -170 153
c-123 0 -205 -110 -205 -276c0 -169 92 -307 205 -307c55 1 108 23 142 69v67c0 107 -7 119 -77 119h-95v15h248c-7 -23 -8 -47 -8 -83v-228zM329 759.13l88 -81l-16 -18l-41 42c-24.7002 25.2998 -41 45 -41 48h-4c0 -3 -16.2998 -22.7002 -41 -48l-41 -42l-16 18l88 81h24
z" />
    <glyph glyph-name="gcircumflex" unicode="&#x11d;" horiz-adv-x="540" 
d="M107 352c0 -90 65 -163 145 -163c91 0 152 58 152 142s-69 152 -152 152c-87 0 -145 -52 -145 -131zM44 341c0 86 94 157 208 157c85.04 0 151.39 -27.3799 186.74 -72.96c0 45.96 22.5693 92.46 58.2598 112.96l14 8c5.57031 -7.80957 9 -15.6299 9 -25
c0 -13 -6 -25 -17 -31c-30.0996 -17.75 -50 -42.0596 -50 -71.54c0 -8.70996 1.09961 -17.8896 4.98047 -27.4697c5.90918 -15.4004 9.01953 -32.1299 9.01953 -49.9902c0 -94 -90 -167 -215 -167c-17.6904 0 -34.3701 1.16016 -50 3.42969v-19.4297c0 -67 44 -75 104 -75
h22c84 0 185 -26 185 -131c0 -76 -106 -141 -227 -141c-141 0 -244 60 -244 137c0 63.6904 74.5 116.61 171.53 125.64c-17.6807 19.9502 -28.5303 47.2402 -28.5303 84.3604v22.4199c-90.3799 18.7305 -141 77.3301 -141 160.58zM228.49 59.6396
c-92.1904 -4.59961 -164.49 -52.6992 -164.49 -111.64c0 -47 90 -81 222 -81c113 0 212 37 212 85c0 37 -48 70 -118 70c-53.1797 0 -112.43 7.13965 -151.51 37.6396zM279 666.13l88 -81l-16 -18l-41 42c-24.7002 25.2998 -41 45 -41 48h-4c0 -3 -16.2998 -22.7002 -41 -48
l-41 -42l-16 18l88 81h24z" />
    <glyph glyph-name="Gbreve" unicode="&#x11e;" horiz-adv-x="584" 
d="M515 -33h-7v58c-1 21 -16 41 -34 41c-8 0 -16 -4 -24 -12c-38 -40 -91 -61 -148 -61c-164 0 -274 124 -274 309c0 168 127 304 285 304c55 0 92 -15 133 -15c12 0 24 2 36 4l11 -213l-15 0.00976562l-3 55.9902c-5.2002 97.0801 -85 153 -170 153
c-123 0 -205 -110 -205 -276c0 -169 92 -307 205 -307c55 1 108 23 142 69v67c0 107 -7 119 -77 119h-95v15h248c-7 -23 -8 -47 -8 -83v-228zM202 750l15 7c36 -52 68 -74 100 -74c38 0 72 29 103 74l12 -7c-24 -55 -67 -97 -115 -97c-38 0 -78 28 -115 97z" />
    <glyph glyph-name="gbreve" unicode="&#x11f;" horiz-adv-x="540" 
d="M107 352c0 -90 65 -163 145 -163c91 0 152 58 152 142s-69 152 -152 152c-87 0 -145 -52 -145 -131zM44 341c0 86 94 157 208 157c85.04 0 151.39 -27.3799 186.74 -72.96c0 45.96 22.5693 92.46 58.2598 112.96l14 8c5.57031 -7.80957 9 -15.6299 9 -25
c0 -13 -6 -25 -17 -31c-30.0996 -17.75 -50 -42.0596 -50 -71.54c0 -8.70996 1.09961 -17.8896 4.98047 -27.4697c5.90918 -15.4004 9.01953 -32.1299 9.01953 -49.9902c0 -94 -90 -167 -215 -167c-17.6904 0 -34.3701 1.16016 -50 3.42969v-19.4297c0 -67 44 -75 104 -75
h22c84 0 185 -26 185 -131c0 -76 -106 -141 -227 -141c-141 0 -244 60 -244 137c0 63.6904 74.5 116.61 171.53 125.64c-17.6807 19.9502 -28.5303 47.2402 -28.5303 84.3604v22.4199c-90.3799 18.7305 -141 77.3301 -141 160.58zM228.49 59.6396
c-92.1904 -4.59961 -164.49 -52.6992 -164.49 -111.64c0 -47 90 -81 222 -81c113 0 212 37 212 85c0 37 -48 70 -118 70c-53.1797 0 -112.43 7.13965 -151.51 37.6396zM160 657l15 7c36 -52 68 -74 100 -74c38 0 72 29 103 74l12 -7c-24 -55 -67 -97 -115 -97
c-38 0 -78 28 -115 97z" />
    <glyph glyph-name="Gdotaccent" unicode="&#x120;" horiz-adv-x="584" 
d="M515 -33h-7v58c-1 21 -16 41 -34 41c-8 0 -16 -4 -24 -12c-38 -40 -91 -61 -148 -61c-164 0 -274 124 -274 309c0 168 127 304 285 304c55 0 92 -15 133 -15c12 0 24 2 36 4l11 -213l-15 0.00976562l-3 55.9902c-5.2002 97.0801 -85 153 -170 153
c-123 0 -205 -110 -205 -276c0 -169 92 -307 205 -307c55 1 108 23 142 69v67c0 107 -7 119 -77 119h-95v15h248c-7 -23 -8 -47 -8 -83v-228zM317 751c22 0 37 -13 37 -36c0 -22 -14 -38 -37 -38c-22 0 -38 15 -38 38c0 22 15 36 38 36z" />
    <glyph glyph-name="gdotaccent" unicode="&#x121;" horiz-adv-x="540" 
d="M107 352c0 -90 65 -163 145 -163c91 0 152 58 152 142s-69 152 -152 152c-87 0 -145 -52 -145 -131zM44 341c0 86 94 157 208 157c85.04 0 151.39 -27.3799 186.74 -72.96c0 45.96 22.5693 92.46 58.2598 112.96l14 8c5.57031 -7.80957 9 -15.6299 9 -25
c0 -13 -6 -25 -17 -31c-30.0996 -17.75 -50 -42.0596 -50 -71.54c0 -8.70996 1.09961 -17.8896 4.98047 -27.4697c5.90918 -15.4004 9.01953 -32.1299 9.01953 -49.9902c0 -94 -90 -167 -215 -167c-17.6904 0 -34.3701 1.16016 -50 3.42969v-19.4297c0 -67 44 -75 104 -75
h22c84 0 185 -26 185 -131c0 -76 -106 -141 -227 -141c-141 0 -244 60 -244 137c0 63.6904 74.5 116.61 171.53 125.64c-17.6807 19.9502 -28.5303 47.2402 -28.5303 84.3604v22.4199c-90.3799 18.7305 -141 77.3301 -141 160.58zM228.49 59.6396
c-92.1904 -4.59961 -164.49 -52.6992 -164.49 -111.64c0 -47 90 -81 222 -81c113 0 212 37 212 85c0 37 -48 70 -118 70c-53.1797 0 -112.43 7.13965 -151.51 37.6396zM275 658c22 0 37 -13 37 -36c0 -22 -14 -38 -37 -38c-22 0 -38 15 -38 38c0 22 15 36 38 36z" />
    <glyph glyph-name="Gcommaaccent" unicode="&#x122;" horiz-adv-x="584" 
d="M282 -182c22 0 44 23 48 46c1 7 1 16 3 19l-3 1c-2 -3 -10 -6 -16 -6c-24 0 -38 13 -38 37s14 38 38 38c22 0 36 -16 36 -38c0 -62 -27 -104 -68 -104v7zM515 -33h-7v58c-1 21 -16 41 -34 41c-8 0 -16 -4 -24 -12c-38 -40 -91 -61 -148 -61c-164 0 -274 124 -274 309
c0 168 127 304 285 304c55 0 92 -15 133 -15c12 0 24 2 36 4l11 -213l-15 0.00976562l-3 55.9902c-5.2002 97.0801 -85 153 -170 153c-123 0 -205 -110 -205 -276c0 -169 92 -307 205 -307c55 1 108 23 142 69v67c0 107 -7 119 -77 119h-95v15h248c-7 -23 -8 -47 -8 -83
v-228z" />
    <glyph glyph-name="gcommaaccent" unicode="&#x123;" horiz-adv-x="540" 
d="M307 709c-22 0 -44 -23 -48 -46c-1 -7 -1 -16 -3 -19l3 -1c2 3 10 6 16 6c24 0 38 -13 38 -37s-14 -38 -38 -38c-22 0 -36 16 -36 38c0 62 27 104 68 104v-7zM107 352c0 -90 65 -163 145 -163c91 0 152 58 152 142s-69 152 -152 152c-87 0 -145 -52 -145 -131zM44 341
c0 86 94 157 208 157c85.04 0 151.39 -27.3799 186.74 -72.96c0 45.96 22.5693 92.46 58.2598 112.96l14 8c5.57031 -7.80957 9 -15.6299 9 -25c0 -13 -6 -25 -17 -31c-30.0996 -17.75 -50 -42.0596 -50 -71.54c0 -8.70996 1.09961 -17.8896 4.98047 -27.4697
c5.90918 -15.4004 9.01953 -32.1299 9.01953 -49.9902c0 -94 -90 -167 -215 -167c-17.6904 0 -34.3701 1.16016 -50 3.42969v-19.4297c0 -67 44 -75 104 -75h22c84 0 185 -26 185 -131c0 -76 -106 -141 -227 -141c-141 0 -244 60 -244 137
c0 63.6904 74.5 116.61 171.53 125.64c-17.6807 19.9502 -28.5303 47.2402 -28.5303 84.3604v22.4199c-90.3799 18.7305 -141 77.3301 -141 160.58zM228.49 59.6396c-92.1904 -4.59961 -164.49 -52.6992 -164.49 -111.64c0 -47 90 -81 222 -81c113 0 212 37 212 85
c0 37 -48 70 -118 70c-53.1797 0 -112.43 7.13965 -151.51 37.6396z" />
    <glyph glyph-name="Hcircumflex" unicode="&#x124;" horiz-adv-x="542" 
d="M280 758.13l88 -81l-16 -18l-41 42c-24.7002 25.2998 -41 45 -41 48h-4c0 -3 -16.2998 -22.7002 -41 -48l-41 -42l-16 18l88 81h24zM15 0v8h29c39.5996 0 44 12.5996 44 126v330c0 114.3 -4.40039 127 -44 127h-29v8h208v-8h-22c-40.5 0 -45 -12.7002 -45 -127v-141h229
v138c0 117 -4.5 130 -45 130h-22v8h209v-8h-30c-39.5996 0 -44 -13 -44 -130v-326c0 -114.3 4.40039 -127 44 -127h30v-8h-209v8h23c39.5996 0 44 12.7002 44 127v173h-229v-174c0 -113.4 4.5 -126 45 -126h22v-8h-208z" />
    <glyph glyph-name="hcircumflex" unicode="&#x125;" horiz-adv-x="526" 
d="M293 758.13l88 -81l-16 -18l-41 42c-24.7002 25.2998 -41 45 -41 48h-4c0 -3 -16.2998 -22.7002 -41 -48l-41 -42l-16 18l88 81h24zM11 0v8h29c40 0 44 12 44 127v433c0 98 -3 108 -25 108h-39v7h48c34 0 74 11 74 45v3h7v-188c0 -80 -14 -208 -15 -216h6
c2 15 8 40 13 54c24 71 84 117 153 117c90 0 140 -50 140 -126v-237c0 -115 4 -127 44 -127h30v-8h-212v8h29c40 0 44 12 44 127v214c0 82 -24 126 -82 126c-85 0 -150 -77 -150 -195v-145c0 -115 5 -127 45 -127h29v-8h-212z" />
    <glyph glyph-name="Hbar" unicode="&#x126;" horiz-adv-x="542" 
d="M15 0v8h29c39.5996 0 44 12.5996 44 126v317h-51v22h51v2c0 114.3 -4.40039 116 -44 116h-29v8h208v-8h-22c-40.5 0 -45 -1.7002 -45 -116v-2h229c-0.0302734 116.01 -4.62012 118 -45 118h-22v8h209v-8h-30c-39.4902 0 -43.9805 -1.99023 -44 -118h52v-22h-52v-316
c0 -114.3 4.40039 -127 44 -127h30v-8h-209v8h23c39.5996 0 44 12.7002 44 127v173h-229v-174c0 -113.4 4.5 -126 45 -126h22v-8h-208zM156 323h229v128h-229v-128z" />
    <glyph glyph-name="hbar" unicode="&#x127;" horiz-adv-x="534" 
d="M19 0l-0.000976562 8h29c40 0 44 12 44 127v413h-79l4 23h75c-0.0595703 95.21 -3.22949 105 -24.999 105h-39v7h48c34 0 74 11 74 45v3h7v-160h95l-3 -23h-92v-5c0 -80 -14 -208 -15 -216h6c2 15 8 40 13 54c24 71 84 117 153 117c90 0 140 -50 140 -126v-237
c0 -115 4 -127 44 -127h30v-8h-212v8h29c40 0 44 12 44 127v214c0 82 -24 126 -82 126c-85 0 -150 -77 -150 -195v-145c0 -115 5 -127 45 -127h29v-8h-212z" />
    <glyph glyph-name="Itilde" unicode="&#x128;" horiz-adv-x="241" 
d="M15 592v7h213v-9h-30c-40 0 -45 -3 -45 -43v-496c0 -40 5 -43 45 -43h30v-8h-213v8h29c40 0 44 3 44 43v497c0 40 -4 44 -44 44h-29zM223 718c-12 -48 -31 -59 -54 -59c-44 0 -80 61 -113 61c-11 0 -21 -8 -26 -28l-7 -25l-13 3l7 26c12 43 29 53 51 53
c43 0 79 -60 113 -60c13 0 23 8 29 32l7 25l13 -4z" />
    <glyph glyph-name="itilde" unicode="&#x129;" horiz-adv-x="241" 
d="M232 626c-12 -48 -31 -58 -54 -58c-44 0 -97 61 -130 61c-11 0 -21 -8 -26 -28l-7 -26l-13 3l7 26c12 43 28 54 50 54c43 0 96 -61 130 -61c13 0 24 8 30 32l6 25l14 -3zM88 134v319c0 18 -10.7998 30 -27 30h-31v8h113c7.2998 0 10 -2.7002 10 -10v-347
c0 -114 5 -126 45 -126h30v-8h-213v8h29c40 0 44 12 44 126z" />
    <glyph glyph-name="Imacron" unicode="&#x12a;" horiz-adv-x="244" 
d="M234 689h-227l2 21h227zM15 0v8h29c39.5996 0 44 12.7002 44 127v331c0 112.5 -4.40039 125 -44 125h-29v8h214v-10h-29c-39.5996 0 -44 -12.5 -44 -125v-329c0 -114.3 4.40039 -127 44 -127h29v-8h-214z" />
    <glyph glyph-name="imacron" unicode="&#x12b;" horiz-adv-x="241" 
d="M234 597h-227l2 21h227zM88 134v319c0 18 -10.7998 30 -27 30h-31v8h113c7.2998 0 10 -2.7002 10 -10v-347c0 -114 5 -126 45 -126h30v-8h-213v8h29c40 0 44 12 44 126z" />
    <glyph glyph-name="Ibreve" unicode="&#x12c;" horiz-adv-x="244" 
d="M6 749l15 7c36 -52 68 -74 100 -74c38 0 72 29 103 74l12 -7c-24 -55 -67 -97 -115 -97c-38 0 -78 28 -115 97zM15 0v8h29c39.5996 0 44 12.7002 44 127v331c0 112.5 -4.40039 125 -44 125h-29v8h214v-10h-29c-39.5996 0 -44 -12.5 -44 -125v-329
c0 -114.3 4.40039 -127 44 -127h29v-8h-214z" />
    <glyph glyph-name="ibreve" unicode="&#x12d;" horiz-adv-x="241" 
d="M6 657l15 7c36 -52 68 -74 100 -74c38 0 72 29 103 74l12 -7c-24 -55 -67 -97 -115 -97c-38 0 -78 28 -115 97zM88 134v319c0 18 -10.7998 30 -27 30h-31v8h113c7.2998 0 10 -2.7002 10 -10v-347c0 -114 5 -126 45 -126h30v-8h-213v8h29c40 0 44 12 44 126z" />
    <glyph glyph-name="Iogonek" unicode="&#x12e;" horiz-adv-x="244" 
d="M229 0h-50c-52 -9 -95 -50 -95 -111c0 -37 26 -61 64 -61c17 0 38 6 48 9l4 -14c-24 -8 -43 -12 -60 -12c-56 0 -94 30 -94 75c0 56 43 94 93 114l-1 4c-10 -2 -22 -4 -41 -4h-82v8h29c39.5996 0 44 12.7002 44 127v331c0 112.5 -4.40039 125 -44 125h-29v8h214v-10h-29
c-39.5996 0 -44 -12.5 -44 -125v-329c0 -114.3 4.40039 -127 44 -127h29v-8z" />
    <glyph glyph-name="iogonek" unicode="&#x12f;" horiz-adv-x="241" 
d="M15 0v8h29c40 0 44 12 44 126v319c0 18 -10.7998 30 -27 30h-31v8h113c7.2998 0 10 -2.7002 10 -10v-347c0 -114 5 -126 45 -126h30v-8h-49c-52 -9 -95 -50 -95 -111c0 -37 26 -61 64 -61c17 0 38 6 48 9l4 -14c-24 -8 -43 -12 -60 -12c-56 0 -94 30 -94 75
c0 56 43 94 93 114l-1 4c-10 -2 -22 -4 -41 -4h-82zM121 658c22 0 37 -13 37 -36c0 -22 -14 -38 -37 -38c-22 0 -38 15 -38 38c0 22 15 36 38 36z" />
    <glyph glyph-name="Idotaccent" unicode="&#x130;" horiz-adv-x="244" 
d="M121 750c22 0 37 -13 37 -36c0 -22 -14 -38 -37 -38c-22 0 -38 15 -38 38c0 22 15 36 38 36zM15 0v8h29c39.5996 0 44 12.7002 44 127v331c0 112.5 -4.40039 125 -44 125h-29v8h214v-10h-29c-39.5996 0 -44 -12.5 -44 -125v-329c0 -114.3 4.40039 -127 44 -127h29v-8
h-214z" />
    <glyph glyph-name="dotlessi" unicode="&#x131;" horiz-adv-x="241" 
d="M88 134v319c0 18 -10.7998 30 -27 30h-31v8h113c7.2998 0 10 -2.7002 10 -10v-347c0 -114 5 -126 45 -126h30v-8h-213v8h29c40 0 44 12 44 126z" />
    <glyph glyph-name="IJ" unicode="&#x132;" horiz-adv-x="580" 
d="M284 599h291v-8h-21c-40 0 -45 -12 -45 -127v-333c0 -84 -58 -140 -136 -140c-64 0 -107 42 -107 105h8c0 -55 35 -84 96 -84c38 0 71 24 71 89v466c0 13 1 16 7 22v2h-25c-76 0 -124 -32 -132 -118l-5 -56h-13zM15 0v8h29c39.5996 0 44 12.7002 44 127v331
c0 112.5 -4.40039 125 -44 125h-29v8h214v-10h-29c-39.5996 0 -44 -12.5 -44 -125v-329c0 -114.3 4.40039 -127 44 -127h29v-8h-214z" />
    <glyph glyph-name="ij" unicode="&#x133;" horiz-adv-x="442" 
d="M357 658c22 0 37 -13 37 -36c0 -22 -14 -38 -37 -38c-22 0 -38 15 -38 38c0 22 15 36 38 36zM324 453c0 18 -10.7998 30 -27 30h-31v8h113c7.2998 0 10 -2.7002 10 -10v-529c0 -84 -55 -141 -131 -141c-64 0 -107 41 -107 104h7c0 -54 40 -89 100 -89c43 0 66 30 66 88
v539zM121 658c22 0 37 -13 37 -36c0 -22 -14 -38 -37 -38c-22 0 -38 15 -38 38c0 22 15 36 38 36zM88 134v319c0 18 -10.7998 30 -27 30h-31v8h113c7.2998 0 10 -2.7002 10 -10v-347c0 -114 5 -126 45 -126h30v-8h-213v8h29c40 0 44 12 44 126z" />
    <glyph glyph-name="Jcircumflex" unicode="&#x134;" horiz-adv-x="344" 
d="M178 758.13l88 -81l-16 -18l-41 42c-24.7002 25.2998 -41 45 -41 48h-4c0 -3 -16.2998 -22.7002 -41 -48l-41 -42l-16 18l88 81h24zM42 599h291v-8h-21c-40 0 -45 -12 -45 -127v-333c0 -84 -58 -140 -136 -140c-64 0 -107 42 -107 105h8c0 -55 35 -84 96 -84
c38 0 71 24 71 89v466c0 13 1 16 7 22v2h-25c-76 0 -124 -32 -132 -118l-5 -56h-13z" />
    <glyph glyph-name="jcircumflex" unicode="&#x135;" horiz-adv-x="223" 
d="M133 666.13l88 -81l-16 -18l-41 42c-24.7002 25.2998 -41 45 -41 48h-4c0 -3 -16.2998 -22.7002 -41 -48l-41 -42l-16 18l88 81h24zM88 453c0 18 -10.7998 30 -27 30h-31v8h113c7.2998 0 10 -2.7002 10 -10v-529c0 -84 -55 -141 -131 -141c-64 0 -107 41 -107 104h7
c0 -54 40 -89 100 -89c43 0 66 30 66 88v539z" />
    <glyph glyph-name="Kcommaaccent" unicode="&#x136;" horiz-adv-x="506" 
d="M235 -182c22 0 44 23 48 46c1 7 1 16 3 19l-3 1c-2 -3 -10 -6 -16 -6c-24 0 -38 13 -38 37s14 38 38 38c22 0 36 -16 36 -38c0 -62 -27 -104 -68 -104v7zM15 0v8h29c40 0 44 12 44 134v322c0 114.3 -4.40039 127 -44 127h-29v8h194v-8h-7c-41 0 -46 -12 -46 -127v-104
c30 0 47 2 55 12l99 125l28 41c8.30957 11.6396 13.6904 22.75 13.6904 31.7695c0 12.6904 -10.6406 21.2305 -38.6904 21.2305h-6v8h184v-8h-3c-35 0 -82 -21 -120 -59l-47 -46l-95 -119l1 -4c132 -29 148 -137 160 -234c8 -66 15 -118 64 -118c11 0 25 4 40 16l11 9l4 -6
l-10 -8c-24.2695 -19.4102 -47 -31 -68 -31c-82 0 -97 79 -111 163c-16 98 -35 198 -150 198h-11v-210c0 -122 5 -134 46 -134h29v-8h-216z" />
    <glyph glyph-name="kcommaaccent" unicode="&#x137;" horiz-adv-x="506" 
d="M235 -182c22 0 44 23 48 46c1 7 1 16 3 19l-3 1c-2 -3 -10 -6 -16 -6c-24 0 -38 13 -38 37s14 38 38 38c22 0 36 -16 36 -38c0 -62 -27 -104 -68 -104v7zM84 134v517c0 16 -9 25 -25 25h-39v7h48c34 0 70 8 78 40l2 8h6l-5 -143v-320c30 0 47 2 55 12l95 108l31 41
c8.87988 11.71 14.1797 22.7598 14.1797 31.7803c0 13.3301 -11.5596 22.2197 -40.1797 22.2197h-4v8h184v-8h-7c-35 0 -82 -21 -120 -59l-47 -46l-90 -103v-3c128 -29 144 -94 152 -158c8 -66 22 -103 71 -103c11 0 26 4 41 16l11 9l4 -6l-10 -8
c-24.2695 -19.4102 -47 -31 -68 -31c-80 0 -105 53 -120 137c-11 65 -25 133 -141 133h-11v-127c0 -114 5 -126 45 -126h29v-8h-212v8h29c40 0 44 12.002 44 126z" />
    <glyph glyph-name="kgreenlandic" unicode="&#x138;" horiz-adv-x="510" 
d="M164 261h-11v-210c0 -40 5 -43 45 -43h30v-8h-213v8h29c40 0 44 3 44 43v389c0 40 -4 44 -44 44h-29v7h213v-7h-30c-40 0 -45 -4 -45 -44v-172c30 0 47 2 55 12l132 149c11 12 14 24 14 32c0 16 -17 22 -43 22h-7v8h184v-8h-10c-37 0 -84 -15 -121 -57l-134 -151v-3
c128 -28 143 -96 151 -160c8 -66 24 -101 73 -101c11 0 27 4 42 16l10 9l4 -6l-9 -8c-23 -21 -48 -31 -69 -31c-80 0 -103 54 -118 138c-11 65 -27 132 -143 132z" />
    <glyph glyph-name="Lacute" unicode="&#x139;" horiz-adv-x="432" 
d="M15 0v8h29c40 0 44 13 44 133v324c0 114 -4 126 -44 126h-29v8h216v-8h-30c-40 0 -45 -12 -45 -126v-406c0 -18 -8 -33 -18 -43v-1h113c80 0 133 16 140 96l6 83h17l-13 -186c-6 -6 -10 -8 -23 -8h-363zM86 631l-9 9l95 115c3 3 5 4 8 4s5.75977 -0.269531 9 -3l19 -16
l-20 -25z" />
    <glyph glyph-name="lacute" unicode="&#x13a;" horiz-adv-x="241" 
d="M88 134v475c0 16 -9 25 -25 25h-39v8l123 9h6v-517c0 -114 5 -126 45 -126h30v-8h-214v8h29c40 0 45 12 45 126zM69 676l-6 8l125 86c2 2 5 3 7 3c4 0 7.59961 -2.5 10 -6l11 -16l-26 -19z" />
    <glyph glyph-name="Lcommaaccent" unicode="&#x13b;" horiz-adv-x="432" 
d="M193 -182c22 0 44 23 48 46c1 7 1 16 3 19l-3 1c-2 -3 -10 -6 -16 -6c-24 0 -38 13 -38 37s14 38 38 38c22 0 36 -16 36 -38c0 -62 -27 -104 -68 -104v7zM15 0v8h29c40 0 44 13 44 133v324c0 114 -4 126 -44 126h-29v8h216v-8h-30c-40 0 -45 -12 -45 -126v-406
c0 -18 -8 -33 -18 -43v-1h113c80 0 133 16 140 96l6 83h17l-13 -186c-6 -6 -10 -8 -23 -8h-363z" />
    <glyph glyph-name="lcommaaccent" unicode="&#x13c;" horiz-adv-x="241" 
d="M89 -182c22 0 44 23 48 46c1 7 1 16 3 19l-3 1c-2 -3 -10 -6 -16 -6c-24 0 -38 13 -38 37s14 38 38 38c22 0 36 -16 36 -38c0 -62 -27 -104 -68 -104v7zM14 0v8h29c40 0 45 12 45 126v517c0 16 -9 25 -25 25h-39v7h48c34 0 75 11 75 45v3h6v-597c0 -114 5 -126 45 -126
h30v-8h-214z" />
    <glyph glyph-name="Lcaron" unicode="&#x13d;" horiz-adv-x="437" 
d="M15 0v8h29c40 0 44 10 44 50v490c0 40 -4 44 -44 44h-29v7h213v-7h-30c-40 0 -45 -4 -45 -44v-489c0 -18 -8 -33 -18 -43v-1h113c80 0 133 16 140 96l6 83h17l-17 -236h-8l3 50h-1c-6 -6 -9 -8 -22 -8h-351zM357 472c22 0 43 23 47 46c1 7 2 15 4 18l-3 2
c-2 -3 -11 -6 -17 -6c-24 0 -37 12 -37 36s13 38 37 38c22 0 37 -16 37 -38c0 -62 -27 -104 -68 -104v8z" />
    <glyph glyph-name="lcaron" unicode="&#x13e;" horiz-adv-x="300" 
d="M227 545c22 0 44 23 48 46c1 7 1 16 3 19l-3 1c-2 -3 -10 -6 -16 -6c-24 0 -38 13 -38 37s14 38 38 38c22 0 36 -16 36 -38c0 -62 -27 -104 -68 -104v7zM14 0v8h29c40 0 45 12 45 126v517c0 16 -9 25 -25 25h-39v7h48c34 0 75 11 75 45v3h6v-597c0 -114 5 -126 45 -126
h30v-8h-214z" />
    <glyph glyph-name="Ldot" unicode="&#x13f;" horiz-adv-x="432" 
d="M297 369c22 0 36 -15 36 -38c0 -22 -13 -37 -36 -37c-22 0 -38 14 -38 37c0 22 15 38 38 38zM15 0v8h29c40 0 44 13 44 133v324c0 114 -4 126 -44 126h-29v8h216v-8h-30c-40 0 -45 -12 -45 -126v-406c0 -18 -8 -33 -18 -43v-1h113c80 0 133 16 140 96l6 83h17l-13 -186
c-6 -6 -10 -8 -23 -8h-363z" />
    <glyph glyph-name="ldot" unicode="&#x140;" horiz-adv-x="319" 
d="M266 341c22 0 36 -15 36 -38c0 -22 -13 -37 -36 -37c-22 0 -38 14 -38 37c0 22 15 38 38 38zM14 0v8h29c40 0 45 12 45 126v517c0 16 -9 25 -25 25h-39v7h48c34 0 75 11 75 45v3h6v-597c0 -114 5 -126 45 -126h30v-8h-214z" />
    <glyph glyph-name="Lslash" unicode="&#x141;" horiz-adv-x="441" 
d="M165 342c0 -15 -4 -46 -4 -46h4l160 123l14 -19l-174 -125v-216c0 -18 -8 -33 -18 -43v-1h113c80 0 133 16 140 96l6 83h17l-13 -186c-6 -6 -10 -8 -23 -8h-363v8h29c40 0 44 13 44 133v40c0 15 5 44 5 44h-5l-76 -60l-12 17l88 64v219c0 114 -4 126 -44 126h-29v8h216
v-8h-30c-40 0 -45 -11.9902 -45 -126v-123z" />
    <glyph glyph-name="lslash" unicode="&#x142;" horiz-adv-x="289" 
d="M177 134c0 -114 5 -126 45 -126h30v-8h-214v8h29c40 0 45 12 45 126v131c0 15 2 22 2 22h-2l-75 -63l-13 17l88 70v340c0 16 -9 25 -25 25h-39v8h47c34 0 75 10 75 44v3h7v-346c0 -15 -3 -23 -3 -23h3l91 71l13 -17l-104 -77v-205z" />
    <glyph glyph-name="Nacute" unicode="&#x143;" horiz-adv-x="490" 
d="M204 631l-9 9l95 115c3 3 5 4 8 4s5.75977 -0.269531 9 -3l19 -16l-20 -25zM15 0v8h17c32 0 49 21 49 127v413c0 40 -5 43 -45 43h-21v8h129l233 -420c9 -16 15 -28 15 -31h5c-1 9 -1 21 -1 35v266c0 104 -13 142 -49 142h-42v8h175v-8h-17c-36 0 -50 -22 -50 -142v-461
h-9c0 4 -12 27 -24 48l-262 469c-9 15 -17 32 -17 33h-4c1 -9 1 -22 1 -36v-367c0 -93 13 -127 49 -127h17v-8h-149z" />
    <glyph glyph-name="nacute" unicode="&#x144;" horiz-adv-x="522" 
d="M231 539l-9 9l95 115c3 3 5 4 8 4s5.75977 -0.269531 9 -3l19 -16l-20 -25zM15 0v8h29c40 0 44 12 44 127v307c0 20.7002 -11.2305 29.7197 -23.0498 29.7197c-13.1201 0 -23.9502 -11.1201 -23.9502 -29.7197v-31h-8v31c0 34.5098 27 52 56 52c26 0 51 -14.2305 51 -44
v-36c0 -13 -1 -79 -2 -87h6c2 15 9 40 14 54c24 71 83 117 152 117c90 0 140 -50 140 -126v-237c0 -115 4 -127 44 -127h22v-8h-204v8h29c40 0 44 12 44 127v214c0 82 -24 126 -82 126c-85 0 -150 -77 -150 -195v-145c0 -115 5 -127 45 -127h30v-8h-213z" />
    <glyph glyph-name="Ncommaaccent" unicode="&#x145;" horiz-adv-x="490" 
d="M228 -182c22 0 44 23 48 46c1 7 1 16 3 19l-3 1c-2 -3 -10 -6 -16 -6c-24 0 -38 13 -38 37s14 38 38 38c22 0 36 -16 36 -38c0 -62 -27 -104 -68 -104v7zM15 0v8h17c32 0 49 21 49 127v413c0 40 -5 43 -45 43h-21v8h129l233 -420c9 -16 15 -28 15 -31h5c-1 9 -1 21 -1 35
v266c0 104 -13 142 -49 142h-42v8h175v-8h-17c-36 0 -50 -22 -50 -142v-461h-9c0 4 -12 27 -24 48l-262 469c-9 15 -17 32 -17 33h-4c1 -9 1 -22 1 -36v-367c0 -93 13 -127 49 -127h17v-8h-149z" />
    <glyph glyph-name="ncommaaccent" unicode="&#x146;" horiz-adv-x="522" 
d="M236 -182c22 0 44 23 48 46c1 7 1 16 3 19l-3 1c-2 -3 -10 -6 -16 -6c-24 0 -38 13 -38 37s14 38 38 38c22 0 36 -16 36 -38c0 -62 -27 -104 -68 -104v7zM15 0v8h29c40 0 44 12 44 127v307c0 20.7002 -11.2305 29.7197 -23.0498 29.7197
c-13.1201 0 -23.9502 -11.1201 -23.9502 -29.7197v-31h-8v31c0 34.5098 27 52 56 52c26 0 51 -14.2305 51 -44v-36c0 -13 -1 -79 -2 -87h6c2 15 9 40 14 54c24 71 83 117 152 117c90 0 140 -50 140 -126v-237c0 -115 4 -127 44 -127h22v-8h-204v8h29c40 0 44 12 44 127v214
c0 82 -24 126 -82 126c-85 0 -150 -77 -150 -195v-145c0 -115 5 -127 45 -127h30v-8h-213z" />
    <glyph glyph-name="Ncaron" unicode="&#x147;" horiz-adv-x="490" 
d="M250 657h-24l-88 81l16 18l41 -42c24.7002 -25.2998 41 -45 41 -48h4c0 3 16.2998 22.7002 41 48l41 42l16 -18zM15 0v8h17c32 0 49 21 49 127v413c0 40 -5 43 -45 43h-21v8h129l233 -420c9 -16 15 -28 15 -31h5c-1 9 -1 21 -1 35v266c0 104 -13 142 -49 142h-42v8h175
v-8h-17c-36 0 -50 -22 -50 -142v-461h-9c0 4 -12 27 -24 48l-262 469c-9 15 -17 32 -17 33h-4c1 -9 1 -22 1 -36v-367c0 -93 13 -127 49 -127h17v-8h-149z" />
    <glyph glyph-name="ncaron" unicode="&#x148;" horiz-adv-x="522" 
d="M279 564h-24l-88 81l16 18l41 -42c24.7002 -25.2998 41 -45 41 -48h4c0 3 16.2998 22.7002 41 48l41 42l16 -18zM15 0v8h29c40 0 44 12 44 127v307c0 20.7002 -11.2305 29.7197 -23.0498 29.7197c-13.1201 0 -23.9502 -11.1201 -23.9502 -29.7197v-31h-8v31
c0 34.5098 27 52 56 52c26 0 51 -14.2305 51 -44v-36c0 -13 -1 -79 -2 -87h6c2 15 9 40 14 54c24 71 83 117 152 117c90 0 140 -50 140 -126v-237c0 -115 4 -127 44 -127h22v-8h-204v8h29c40 0 44 12 44 127v214c0 82 -24 126 -82 126c-85 0 -150 -77 -150 -195v-145
c0 -115 5 -127 45 -127h30v-8h-213z" />
    <glyph glyph-name="napostrophe" unicode="&#x149;" horiz-adv-x="622" 
d="M106 617c0 -62 -30 -85 -67 -103l-6 12c20 9 41 24 51 47c2 7 4 12 6 15l-4 2c-3 -5 -8 -10 -16 -10c-24 0 -38 13 -38 37s14 38 38 38c22 0 36 -16 36 -38zM115 0v8h29c40 0 44 12 44 127v307c0 20.7002 -11.2305 29.7197 -23.0498 29.7197
c-13.1201 0 -23.9502 -11.1201 -23.9502 -29.7197v-31h-8v31c0 34.5098 27 52 56 52c26 0 51 -14.2305 51 -44v-36c0 -13 -1 -79 -2 -87h6c2 15 9 40 14 54c24 71 83 117 152 117c90 0 140 -50 140 -126v-237c0 -115 4 -127 44 -127h22v-8h-204v8h29c40 0 44 12 44 127v214
c0 82 -24 126 -82 126c-85 0 -150 -77 -150 -195v-145c0 -115 5 -127 45 -127h30v-8h-213z" />
    <glyph glyph-name="Eng" unicode="&#x14a;" horiz-adv-x="500" 
d="M15 0v8h29c40 0 44 4 44 44v475c0 15 -10 26 -27 26h-3l-50 -4v5l64 14c33 7 61 26 61 60v4h7v-110c0 -13 -1 -79 -2 -87h6c2 15 9 40 14 54c24 71 83 117 152 117c90 0 140 -50 140 -126v-443c0 -84 -56 -140 -139 -140c-29 0 -55 10 -67 13l6 17c41 -12 51 -15 68 -15
c48 0 67 37 67 89v465c0 82 -24 126 -82 126c-85 0 -150 -82 -150 -204v-336c0 -40 5 -44 45 -44h30v-8h-213z" />
    <glyph glyph-name="eng" unicode="&#x14b;" horiz-adv-x="500" 
d="M15 0v8h29c40 0 44 4 44 44v366c0 15 -10 27 -27 27h-3l-50 -4v5l64 13c33 7 61 27 61 61v3h7v-109c0 -13 -1 -79 -2 -87h6c2 15 9 40 14 54c24 71 83 117 152 117c90 0 140 -50 140 -126v-335c0 -84 -56 -140 -139 -140c-29 0 -55 10 -67 13l6 17c41 -12 51 -15 68 -15
c48 0 67 37 67 89v357c0 82 -24 125 -82 125c-85 0 -150 -81 -150 -203v-228c0 -40 5 -44 45 -44h30v-8h-213z" />
    <glyph glyph-name="Omacron" unicode="&#x14c;" horiz-adv-x="644" 
d="M448 689h-227l2 21h227zM322 -7c-178 0 -296 123 -296 307c0 169 132 306 296 306c177 0 296 -122 296 -306c0 -169 -133 -307 -296 -307zM325 8c132 0 220 110 220 276c0 169 -101 307 -226 307c-132 0 -221 -111 -221 -276c0 -169 102 -307 227 -307z" />
    <glyph glyph-name="omacron" unicode="&#x14d;" horiz-adv-x="604" 
d="M411 597h-227l2 21h227zM302 -7c-160.8 0 -268 101.2 -268 253c0 138.6 121.14 252 268 252c160.53 0 268 -101.3 268 -252c0 -138.9 -120.06 -253 -268 -253zM304 8c116.22 0 195 90.0498 195 224c0 137.5 -90.25 250 -201 250c-115.99 0 -193 -88.9805 -193 -223
c0 -137.8 88.75 -251 199 -251z" />
    <glyph glyph-name="Obreve" unicode="&#x14e;" horiz-adv-x="644" 
d="M220 749l15 7c36 -52 68 -74 100 -74c38 0 72 29 103 74l12 -7c-24 -55 -67 -97 -115 -97c-38 0 -78 28 -115 97zM322 -7c-178 0 -296 123 -296 307c0 169 132 306 296 306c177 0 296 -122 296 -306c0 -169 -133 -307 -296 -307zM325 8c132 0 220 110 220 276
c0 169 -101 307 -226 307c-132 0 -221 -111 -221 -276c0 -169 102 -307 227 -307z" />
    <glyph glyph-name="obreve" unicode="&#x14f;" horiz-adv-x="604" 
d="M183 657l15 7c36 -52 68 -74 100 -74c38 0 72 29 103 74l12 -7c-24 -55 -67 -97 -115 -97c-38 0 -78 28 -115 97zM302 -7c-160.8 0 -268 101.2 -268 253c0 138.6 121.14 252 268 252c160.53 0 268 -101.3 268 -252c0 -138.9 -120.06 -253 -268 -253zM304 8
c116.22 0 195 90.0498 195 224c0 137.5 -90.25 250 -201 250c-115.99 0 -193 -88.9805 -193 -223c0 -137.8 88.75 -251 199 -251z" />
    <glyph glyph-name="Ohungarumlaut" unicode="&#x150;" horiz-adv-x="644" 
d="M446 758l18 -17l-14 -16l-77 -69l-8 8zM313 758l18 -17l-14 -16l-78 -69l-7 8zM322 -7c-178 0 -296 123 -296 307c0 169 132 306 296 306c177 0 296 -122 296 -306c0 -169 -133 -307 -296 -307zM325 8c132 0 220 110 220 276c0 169 -101 307 -226 307
c-132 0 -221 -111 -221 -276c0 -169 102 -307 227 -307z" />
    <glyph glyph-name="ohungarumlaut" unicode="&#x151;" horiz-adv-x="604" 
d="M409 666l18 -17l-14 -16l-77 -69l-8 8zM276 666l18 -17l-14 -16l-78 -69l-7 8zM302 -7c-160.8 0 -268 101.2 -268 253c0 138.6 121.14 252 268 252c160.53 0 268 -101.3 268 -252c0 -138.9 -120.06 -253 -268 -253zM304 8c116.22 0 195 90.0498 195 224
c0 137.5 -90.25 250 -201 250c-115.99 0 -193 -88.9805 -193 -223c0 -137.8 88.75 -251 199 -251z" />
    <glyph glyph-name="OE" unicode="&#x152;" horiz-adv-x="767" 
d="M290 599h373c13 0 25 -1 31 -7l12 -187h-15l-4 58c-6 88 -48 121 -128 121h-109v-1c10 -10 18 -25 18 -43v-218h26c47 0 90 8 90 88v29h11v-267h-11v46c0 80 -43 89 -90 89h-26v-252c0 -27 9 -40 23 -40h113c80 0 116 36 123 113l6 66h13l-11 -186c-6 -6 -18 -8 -31 -8
h-414c-158.66 -0 -264 120.3 -264 300c0 165.05 118 299 264 299zM287 584c-113 0 -189 -108.41 -189 -269c0 -165 87.75 -300 195 -300h31c68.4004 0 76 12.7002 76 127v315c0 114.3 -7.59961 127 -76 127h-37z" />
    <glyph glyph-name="oe" unicode="&#x153;" horiz-adv-x="962" 
d="M296 8c111.45 0 187 90.0498 187 224c0 137.5 -86.6602 250 -193 250c-111 0 -185 -88.9805 -185 -223c0 -137.8 85.1904 -251 191 -251zM294 -7c-156 0 -260 101.2 -260 253c0 138.6 117.78 252 260 252c105.94 0 186.32 -49.9004 224.83 -131.75
c41 78.4102 121.63 131.75 215.17 131.75c117 0 194 -65 194 -167c0 -21 -11 -35 -28 -35h-345.64c-2.20996 -16.5 -3.36035 -33.8604 -3.36035 -52c0 -128 78 -227 198 -227c63 0 132 23 173 79l12 -9c-44 -59 -115 -94 -203 -94
c-101.77 0 -179.359 50.7002 -216.609 133.44c-41.9902 -79.21 -124.49 -133.44 -220.391 -133.44zM556.74 311l288.26 6c8 0 14 5 14 15c0 93 -52 150 -129 150c-90.0195 0 -154.35 -66.21 -173.26 -171z" />
    <glyph glyph-name="Racute" unicode="&#x154;" horiz-adv-x="521" 
d="M15 0v8h29c40 0 44 12 44 127v329c0 115 -4 127 -44 127h-29v8h216c136 0 226 -71 226 -177c0 -96 -91 -157 -187 -169l-21 -3v-5c78.3701 -8.04004 116.37 -78.8096 149 -140c18.0996 -33.9404 51 -86 80 -86c8 0 17 3 25 10l19 16l4 -6l-18 -16
c-27 -23 -49 -32 -69 -32c-43 0 -74.0801 43.9502 -98 84c-86.2002 144.34 -104.94 171 -153 171h-8v14h38c92 0 167 73 167 163c0 89 -72 161 -160 161h-83v-1c10 -10 14 -24 14 -43v-405c0 -115 5 -127 45 -127h49v-8h-235zM186 631l-9 9l95 115c3 3 5 4 8 4
s5.75977 -0.269531 9 -3l19 -16l-20 -25z" />
    <glyph glyph-name="racute" unicode="&#x155;" horiz-adv-x="371" 
d="M15 0v8h29c40 0 44 12 44 127v318c0 18 -10.7998 30 -27 30h-31v8h101c10.9502 0 15 -4.0498 15 -15v-62c0 -28 -3 -64 -7 -76v-2h7c22 103 79 162 151 162c48.0996 0 71 -16.4502 71 -47c0 -24.29 -18.3701 -44 -41 -44c-23.7402 0 -43 19.2598 -43 43c0 8 4 20 10 26v1
c-84 0 -141 -94 -141 -234v-109c0 -115 5 -127 45 -127h53v-7h-236zM176 539l-9 9l95 115c3 3 5 4 8 4s5.75977 -0.269531 9 -3l19 -16l-20 -25z" />
    <glyph glyph-name="Rcommaaccent" unicode="&#x156;" horiz-adv-x="521" 
d="M263 -182c22 0 44 23 48 46c1 7 1 16 3 19l-3 1c-2 -3 -10 -6 -16 -6c-24 0 -38 13 -38 37s14 38 38 38c22 0 36 -16 36 -38c0 -62 -27 -104 -68 -104v7zM15 0v8h29c40 0 44 12 44 127v329c0 115 -4 127 -44 127h-29v8h216c136 0 226 -71 226 -177
c0 -96 -91 -157 -187 -169l-21 -3v-5c78.3701 -8.04004 116.37 -78.8096 149 -140c18.0996 -33.9404 51 -86 80 -86c8 0 17 3 25 10l19 16l4 -6l-18 -16c-27 -23 -49 -32 -69 -32c-43 0 -74.0801 43.9502 -98 84c-86.2002 144.34 -104.94 171 -153 171h-8v14h38
c92 0 167 73 167 163c0 89 -72 161 -160 161h-83v-1c10 -10 14 -24 14 -43v-405c0 -115 5 -127 45 -127h49v-8h-235z" />
    <glyph glyph-name="rcommaaccent" unicode="&#x157;" horiz-adv-x="371" 
d="M114 -182c22 0 44 23 48 46c1 7 1 16 3 19l-3 1c-2 -3 -10 -6 -16 -6c-24 0 -38 13 -38 37s14 38 38 38c22 0 36 -16 36 -38c0 -62 -27 -104 -68 -104v7zM15 0v8h29c40 0 44 12 44 127v318c0 18 -10.7998 30 -27 30h-31v8h101c10.9502 0 15 -4.0498 15 -15v-62
c0 -28 -3 -64 -7 -76v-2h7c22 103 79 162 151 162c48.0996 0 71 -16.4502 71 -47c0 -24.29 -18.3701 -44 -41 -44c-23.7402 0 -43 19.2598 -43 43c0 8 4 20 10 26v1c-84 0 -141 -94 -141 -234v-109c0 -115 5 -127 45 -127h53v-7h-236z" />
    <glyph glyph-name="Rcaron" unicode="&#x158;" horiz-adv-x="521" 
d="M15 0v8h29c40 0 44 12 44 127v329c0 115 -4 127 -44 127h-29v8h216c136 0 226 -71 226 -177c0 -96 -91 -157 -187 -169l-21 -3v-5c78.3701 -8.04004 116.37 -78.8096 149 -140c18.0996 -33.9404 51 -86 80 -86c8 0 17 3 25 10l19 16l4 -6l-18 -16
c-27 -23 -49 -32 -69 -32c-43 0 -74.0801 43.9502 -98 84c-86.2002 144.34 -104.94 171 -153 171h-8v14h38c92 0 167 73 167 163c0 89 -72 161 -160 161h-83v-1c10 -10 14 -24 14 -43v-405c0 -115 5 -127 45 -127h49v-8h-235zM234 656h-24l-88 81l16 18l41 -42
c24.7002 -25.2998 41 -45 41 -48h4c0 3 16.2998 22.7002 41 48l41 42l16 -18z" />
    <glyph glyph-name="rcaron" unicode="&#x159;" horiz-adv-x="371" 
d="M15 0v8h29c40 0 44 12 44 127v318c0 18 -10.7998 30 -27 30h-31v8h101c10.9502 0 15 -4.0498 15 -15v-62c0 -28 -3 -64 -7 -76v-2h7c22 103 79 162 151 162c48.0996 0 71 -16.4502 71 -47c0 -24.29 -18.3701 -44 -41 -44c-23.7402 0 -43 19.2598 -43 43c0 8 4 20 10 26v1
c-84 0 -141 -94 -141 -234v-109c0 -115 5 -127 45 -127h53v-7h-236zM224 564h-24l-88 81l16 18l41 -42c24.7002 -25.2998 41 -45 41 -48h4c0 3 16.2998 22.7002 41 48l41 42l16 -18z" />
    <glyph glyph-name="Sacute" unicode="&#x15a;" horiz-adv-x="398" 
d="M169 631l-9 9l95 115c3 3 5 4 8 4s5.75977 -0.269531 9 -3l19 -16l-20 -25zM25 204l15 1l3 -47c7 -98 68 -149 147 -149c75 0 125 48 125 121c0 72 -62 113 -127 152c-72 43 -150 92 -150 189c0 81 67 135 165 135c44 0 73 -9 106 -9c9 0 18 0 29 2l9 -173l-15 -1l-2 35
c-3 66 -45 131 -127 131c-68 0 -107 -36 -107 -102c0 -69 63 -107 128 -146c74 -44 154 -95 154 -200c0 -90 -75 -149 -186 -149c-47 0 -97 14 -129 14c-10 0 -22 -2 -29 -4z" />
    <glyph glyph-name="sacute" unicode="&#x15b;" horiz-adv-x="423" 
d="M203 -7c-58 0 -95 17 -127 17c-10 0 -22 -3 -29 -5l-10 203h15l3 -58c4.75977 -92.0098 70 -142 148 -142c74 0 124 46 124 114c0 53 -59 80 -123 106c-73 30 -155 65 -155 143c0 81 71 127 168 127c59 0 84 -11 106 -11c8 0 17 1 28 4l8 -173h-15l-2 34
c-3.66992 62.3604 -43 130 -125 130c-66 0 -110 -27 -110 -93c0 -48 60 -73 122 -98c76 -31 161 -69 161 -155c0 -85 -75 -143 -187 -143zM174 539l-9 9l95 115c3 3 5 4 8 4s5.75977 -0.269531 9 -3l19 -16l-20 -25z" />
    <glyph glyph-name="Scircumflex" unicode="&#x15c;" horiz-adv-x="398" 
d="M217 758.13l88 -81l-16 -18l-41 42c-24.7002 25.2998 -41 45 -41 48h-4c0 -3 -16.2998 -22.7002 -41 -48l-41 -42l-16 18l88 81h24zM25 204l15 1l3 -47c7 -98 68 -149 147 -149c75 0 125 48 125 121c0 72 -62 113 -127 152c-72 43 -150 92 -150 189c0 81 67 135 165 135
c44 0 73 -9 106 -9c9 0 18 0 29 2l9 -173l-15 -1l-2 35c-3 66 -45 131 -127 131c-68 0 -107 -36 -107 -102c0 -69 63 -107 128 -146c74 -44 154 -95 154 -200c0 -90 -75 -149 -186 -149c-47 0 -97 14 -129 14c-10 0 -22 -2 -29 -4z" />
    <glyph glyph-name="scircumflex" unicode="&#x15d;" horiz-adv-x="423" 
d="M203 -7c-58 0 -95 17 -127 17c-10 0 -22 -3 -29 -5l-10 203h15l3 -58c4.75977 -92.0098 70 -142 148 -142c74 0 124 46 124 114c0 53 -59 80 -123 106c-73 30 -155 65 -155 143c0 81 71 127 168 127c59 0 84 -11 106 -11c8 0 17 1 28 4l8 -173h-15l-2 34
c-3.66992 62.3604 -43 130 -125 130c-66 0 -110 -27 -110 -93c0 -48 60 -73 122 -98c76 -31 161 -69 161 -155c0 -85 -75 -143 -187 -143zM228 666.13l88 -81l-16 -18l-41 42c-24.7002 25.2998 -41 45 -41 48h-4c0 -3 -16.2998 -22.7002 -41 -48l-41 -42l-16 18l88 81h24z
" />
    <glyph glyph-name="Scedilla" unicode="&#x15e;" horiz-adv-x="398" 
d="M25 204l15.001 0.999023l3 -47c7 -98 68 -149 147 -149c75 0 125 48 125 121c0 72 -62 113 -127 152c-72 43 -150 92 -150 189c0 81 67 135 165 135c44 0 73 -9 106 -9c9 0 18 0 29 2l9 -173l-15 -1l-2 35c-3 66 -45 131 -127 131c-68 0 -107 -36 -107 -102
c0 -69 63 -107 128 -146c74 -44 154 -95 154 -200c0 -88.8203 -73.04 -147.45 -181.65 -148.97l-9.34961 -45.0303c8 3 17 6 28 6c46 0 72 -30 72 -63c0 -46 -59 -80 -132 -80l3 15c49 0 89 31 89 73c0 22 -13 41 -33 41c-12 0 -26 -3 -34 -10l-11 2l12.25 61.2305
c-43.7402 1.82031 -88.6807 13.7705 -118.251 13.7705c-10 0 -22 -2 -29 -4z" />
    <glyph glyph-name="scedilla" unicode="&#x15f;" horiz-adv-x="423" 
d="M47 5l-10 203h15l3 -58c4.75977 -92.0098 70 -142 148 -142c74 0 124 46 124 114c0 53 -59 79 -123 105c-73 30 -155 63 -155 144s71 127 168 127c59 0 84 -11 106 -11c8 0 17 1 28 4l8 -173h-15l-2 34c-3.66992 62.3604 -43 130 -125 130c-66 0 -110 -27 -110 -93
c0 -48 60 -73 122 -98c76 -31 161 -66 161 -155c0 -84.9697 -74.9404 -142.95 -186.87 -143l-9.12988 -44c8 3 17 6 28 6c46 0 72 -30 72 -63c0 -46 -59 -80 -132 -80l3 15c49 0 89 31 89 73c0 22 -13 41 -33 41c-12 0 -26 -3 -34 -10l-11 2l12.0801 60.3799
c-49.5898 2.5 -82.9102 16.6201 -112.08 16.6201c-10 0 -22 -3 -29 -5z" />
    <glyph glyph-name="Scaron" unicode="&#x160;" horiz-adv-x="398" 
d="M217 656h-24l-88 81l16 18l41 -42c24.7002 -25.2998 41 -45 41 -48h4c0 3 16.2998 22.7002 41 48l41 42l16 -18zM25 204l15 1l3 -47c7 -98 68 -149 147 -149c75 0 125 48 125 121c0 72 -62 113 -127 152c-72 43 -150 92 -150 189c0 81 67 135 165 135c44 0 73 -9 106 -9
c9 0 18 0 29 2l9 -173l-15 -1l-2 35c-3 66 -45 131 -127 131c-68 0 -107 -36 -107 -102c0 -69 63 -107 128 -146c74 -44 154 -95 154 -200c0 -90 -75 -149 -186 -149c-47 0 -97 14 -129 14c-10 0 -22 -2 -29 -4z" />
    <glyph glyph-name="scaron" unicode="&#x161;" horiz-adv-x="423" 
d="M203 -7c-58 0 -95 17 -127 17c-10 0 -22 -3 -29 -5l-10 203h15l3 -58c4.75977 -92.0098 70 -142 148 -142c74 0 124 46 124 114c0 53 -59 80 -123 106c-73 30 -155 65 -155 143c0 81 71 127 168 127c59 0 84 -11 106 -11c8 0 17 1 28 4l8 -173h-15l-2 34
c-3.66992 62.3604 -43 130 -125 130c-66 0 -110 -27 -110 -93c0 -48 60 -73 122 -98c76 -31 161 -69 161 -155c0 -85 -75 -143 -187 -143zM222 564h-24l-88 81l16 18l41 -42c24.7002 -25.2998 41 -45 41 -48h4c0 3 16.2998 22.7002 41 48l41 42l16 -18z" />
    <glyph glyph-name="Tcedilla" unicode="&#x162;" horiz-adv-x="448" 
d="M82 0v8h64c40 0 44 12 44 127v449h-27c-72 0 -127 -15 -133 -96l-3 -34l-15 1l10 144h405l9 -144l-15 -1l-3 34c-6 80 -61 96 -133 96h-27v-449c0 -115 4 -127 44 -127h61v-8h-153.57l-8.42969 -40.6299c8 3 17 6 28 6c47.21 0 74 -29.5703 74 -62
c0 -46.5801 -59.9004 -81 -134 -81l3 15c48.9502 0 89 31.0195 89 73c0 21.9805 -13 41 -33 41c-12 0 -26 -3 -34 -10l-11 2l11.3301 56.6299h-112.33z" />
    <glyph glyph-name="tcedilla" unicode="&#x163;" horiz-adv-x="382" 
d="M108 122v341h-100v21h48c76 0 101 100 101 122v93h15v-172c0 -18 -3 -32 -10 -35v-1h197l-5 -28h-182v-355c0 -54.5996 27.5996 -91 69 -91c55.2002 0 87 39.2002 87 98v25h15v-25c0 -73.2002 -42.7998 -122 -107 -122c-13.4697 0 -26.1494 1.58008 -37.9092 4.62012
l-10.0898 -48.6201c8 3 17 6 28 6c47.21 0 74 -29.5703 74 -62c0 -46.5703 -59.9004 -81 -134 -81l3 15c48.9502 0 89 31.0195 89 73c0 21.9805 -13 41 -33 41c-12 0 -26 -3 -34 -10l-11 2l13.8398 69.1797c-46.9404 18.0898 -75.8408 61.6699 -75.8408 119.82z" />
    <glyph glyph-name="Tcaron" unicode="&#x164;" horiz-adv-x="448" 
d="M236 656h-24l-88 81l16 18l41 -42c24.7002 -25.2998 41 -45 41 -48h4c0 3 16.2998 22.7002 41 48l41 42l16 -18zM82 0v8h64c40 0 44 12 44 127v449h-27c-72 0 -127 -15 -133 -96l-3 -34l-15 1l10 144h405l9 -144l-15 -1l-3 34c-6 80 -61 96 -133 96h-27v-449
c0 -115 4 -127 44 -127h61v-8h-281z" />
    <glyph glyph-name="tcaron" unicode="&#x165;" horiz-adv-x="441" 
d="M368 533c22 0 44 23 48 46c1 7 1 16 3 19l-3 1c-2 -3 -10 -6 -16 -6c-24 0 -38 13 -38 37s14 38 38 38c22 0 36 -16 36 -38c0 -62 -27 -104 -68 -104v7zM108 122v341h-100v21h48c76 0 101 100 101 122v93h15v-172c0 -18 -3 -32 -10 -35v-1h197l-5 -28h-182v-355
c0 -54.5996 27.5996 -91 69 -91c55.2002 0 87 39.2002 87 98v25h15v-25c0 -73.2002 -42.7998 -122 -107 -122c-76.7998 0 -128 51.5996 -128 129z" />
    <glyph glyph-name="Tbar" unicode="&#x166;" horiz-adv-x="448" 
d="M82 0v8h64c40 0 44 12 44 127v197h-87l4 23h83v229h-27c-72 0 -127 -15 -133 -96l-3 -34l-15 1l10 144h405l9 -144l-15 -1l-3 34c-6 80 -61 96 -133 96h-27v-229h85l-3 -23h-82v-197c0 -115 4 -127 44 -127h61v-8h-281z" />
    <glyph glyph-name="tbar" unicode="&#x167;" horiz-adv-x="382" 
d="M108 122v210h-62l3 23h59v108h-100v21h48c76 0 101 100 101 122v93h15v-172c0 -18 -3 -32 -10 -35v-1h197l-5 -28h-182v-108h139l-3 -23h-136v-224c0 -54.5996 27.5996 -91 69 -91c55.2002 0 87 39.2002 87 98v25h15v-25c0 -73.2002 -42.7998 -122 -107 -122
c-76.7998 0 -128 51.5996 -128 129z" />
    <glyph glyph-name="Utilde" unicode="&#x168;" horiz-adv-x="487" 
d="M374 718c-12 -48 -31 -58 -54 -58c-44 0 -97 61 -130 61c-11 0 -21 -8 -26 -28l-7 -26l-13 3l7 26c12 43 28 54 50 54c43 0 96 -61 130 -61c13 0 24 8 30 32l6 25l14 -3zM82 137v327c0 115 -5 127 -45 127h-22v8h216v-8h-37c-40 0 -44 -12 -44 -127v-349
c0 -64 35 -99 101 -99c89 0 136 43 136 121v312c0 104 -12 142 -47 142h-30v8h163v-8h-21c-35 0 -48 -38 -48 -142v-312c0 -93 -54 -144 -153 -144c-100 0 -169 58 -169 144z" />
    <glyph glyph-name="utilde" unicode="&#x169;" horiz-adv-x="514" 
d="M75 119v334c0 18 -10.7998 30 -27 30h-31v8h108c10.9502 0 15 -4.0498 15 -15v-349c0 -78 34 -119 82 -119c90 0 149 85 149 213v218c0 40 -5 44 -45 44h-15v8l131 3v-6c-2 -15 -4 -30 -4 -45v-396c0 -21 11 -28 23 -28c13 0 24 10 24 29v13h8v-13
c0 -32.7305 -29 -52 -56 -52c-25 0 -49 15.9199 -49 49v118h-7c-18 -120 -88 -170 -166 -170c-82 0 -140 44 -140 126zM361 626c-12 -48 -31 -58 -54 -58c-44 0 -97 61 -130 61c-11 0 -21 -8 -26 -28l-7 -26l-13 3l7 26c12 43 28 54 50 54c43 0 96 -61 130 -61
c13 0 24 8 30 32l6 25l14 -3z" />
    <glyph glyph-name="Umacron" unicode="&#x16a;" horiz-adv-x="487" 
d="M376 689h-227l2 21h227zM82 137v327c0 115 -5 127 -45 127h-22v8h216v-8h-37c-40 0 -44 -12 -44 -127v-349c0 -64 35 -99 101 -99c89 0 136 43 136 121v312c0 104 -12 142 -47 142h-30v8h163v-8h-21c-35 0 -48 -38 -48 -142v-312c0 -93 -54 -144 -153 -144
c-100 0 -169 58 -169 144z" />
    <glyph glyph-name="umacron" unicode="&#x16b;" horiz-adv-x="514" 
d="M75 119v334c0 18 -10.7998 30 -27 30h-31v8h108c10.9502 0 15 -4.0498 15 -15v-349c0 -78 34 -119 82 -119c90 0 149 85 149 213v218c0 40 -5 44 -45 44h-15v8l131 3v-6c-2 -15 -4 -30 -4 -45v-396c0 -21 11 -28 23 -28c13 0 24 10 24 29v13h8v-13
c0 -32.7305 -29 -52 -56 -52c-25 0 -49 15.9199 -49 49v118h-7c-18 -120 -88 -170 -166 -170c-82 0 -140 44 -140 126zM363 597h-227l2 21h227z" />
    <glyph glyph-name="Ubreve" unicode="&#x16c;" horiz-adv-x="487" 
d="M148 749l15 7c36 -52 68 -74 100 -74c38 0 72 29 103 74l12 -7c-24 -55 -67 -97 -115 -97c-38 0 -78 28 -115 97zM82 137v327c0 115 -5 127 -45 127h-22v8h216v-8h-37c-40 0 -44 -12 -44 -127v-349c0 -64 35 -99 101 -99c89 0 136 43 136 121v312c0 104 -12 142 -47 142
h-30v8h163v-8h-21c-35 0 -48 -38 -48 -142v-312c0 -93 -54 -144 -153 -144c-100 0 -169 58 -169 144z" />
    <glyph glyph-name="ubreve" unicode="&#x16d;" horiz-adv-x="514" 
d="M75 119v334c0 18 -10.7998 30 -27 30h-31v8h108c10.9502 0 15 -4.0498 15 -15v-349c0 -78 34 -119 82 -119c90 0 149 85 149 213v218c0 40 -5 44 -45 44h-15v8l131 3v-6c-2 -15 -4 -30 -4 -45v-396c0 -21 11 -28 23 -28c13 0 24 10 24 29v13h8v-13
c0 -32.7305 -29 -52 -56 -52c-25 0 -49 15.9199 -49 49v118h-7c-18 -120 -88 -170 -166 -170c-82 0 -140 44 -140 126zM135 657l15 7c36 -52 68 -74 100 -74c38 0 72 29 103 74l12 -7c-24 -55 -67 -97 -115 -97c-38 0 -78 28 -115 97z" />
    <glyph glyph-name="Uring" unicode="&#x16e;" horiz-adv-x="487" 
d="M263 750c-24 0 -52 -23 -52 -51c0 -26 28 -52 52 -52s52 24 52 52s-28 51 -52 51zM263 773c36 0 74 -34 74 -74s-38 -74 -74 -74c-37 0 -73 36 -73 74c0 40 37 74 73 74zM82 137v327c0 115 -5 127 -45 127h-22v8h216v-8h-37c-40 0 -44 -12 -44 -127v-349
c0 -64 35 -99 101 -99c89 0 136 43 136 121v312c0 104 -12 142 -47 142h-30v8h163v-8h-21c-35 0 -48 -38 -48 -142v-312c0 -93 -54 -144 -153 -144c-100 0 -169 58 -169 144z" />
    <glyph glyph-name="uring" unicode="&#x16f;" horiz-adv-x="514" 
d="M75 119v334c0 18 -10.7998 30 -27 30h-31v8h108c10.9502 0 15 -4.0498 15 -15v-349c0 -78 34 -119 82 -119c90 0 149 85 149 213v218c0 40 -5 44 -45 44h-15v8l131 3v-6c-2 -15 -4 -30 -4 -45v-396c0 -21 11 -28 23 -28c13 0 24 10 24 29v13h8v-13
c0 -32.7305 -29 -52 -56 -52c-25 0 -49 15.9199 -49 49v118h-7c-18 -120 -88 -170 -166 -170c-82 0 -140 44 -140 126zM250 658c-24 0 -52 -23 -52 -51c0 -26 28 -52 52 -52s52 24 52 52s-28 51 -52 51zM250 681c36 0 74 -34 74 -74s-38 -74 -74 -74c-37 0 -73 36 -73 74
c0 40 37 74 73 74z" />
    <glyph glyph-name="Uhungarumlaut" unicode="&#x170;" horiz-adv-x="487" 
d="M374 758l18 -17l-14 -16l-77 -69l-8 8zM241 758l18 -17l-14 -16l-78 -69l-7 8zM82 137v327c0 115 -5 127 -45 127h-22v8h216v-8h-37c-40 0 -44 -12 -44 -127v-349c0 -64 35 -99 101 -99c89 0 136 43 136 121v312c0 104 -12 142 -47 142h-30v8h163v-8h-21
c-35 0 -48 -38 -48 -142v-312c0 -93 -54 -144 -153 -144c-100 0 -169 58 -169 144z" />
    <glyph glyph-name="uhungarumlaut" unicode="&#x171;" horiz-adv-x="514" 
d="M75 119v334c0 18 -10.7998 30 -27 30h-31v8h108c10.9502 0 15 -4.0498 15 -15v-349c0 -78 34 -119 82 -119c90 0 149 85 149 213v218c0 40 -5 44 -45 44h-15v8l131 3v-6c-2 -15 -4 -30 -4 -45v-396c0 -21 11 -28 23 -28c13 0 24 10 24 29v13h8v-13
c0 -32.7305 -29 -52 -56 -52c-25 0 -49 15.9199 -49 49v118h-7c-18 -120 -88 -170 -166 -170c-82 0 -140 44 -140 126zM361 666l18 -17l-14 -16l-77 -69l-8 8zM228 666l18 -17l-14 -16l-78 -69l-7 8z" />
    <glyph glyph-name="Uogonek" unicode="&#x172;" horiz-adv-x="487" 
d="M278 -189.21c-56.0098 0 -94 30.0107 -94 75.0107c0 45.6699 30 84.2002 75 107.2h-8c-100 0 -169 58 -169 144v327c0 115 -5 127 -45 127h-22v8h216v-8h-37c-40 0 -44 -12 -44 -127v-349c0 -64 35 -99 101 -99c89 0 136 43 136 121v312c0 104 -12 142 -47 142h-30v8h163
v-8h-21c-35 0 -48 -38 -48 -142v-312c0 -76.4805 -36.5098 -124.551 -104.54 -139.221c-46.4404 -12.9297 -78.46 -52.8701 -78.46 -108.98c0 -37 25.9902 -60.79 64 -60.7998c24.5596 0 52.7197 9.48047 76 18.79l5 -14c-9.71973 -4.11035 -54.7998 -22 -88 -22z" />
    <glyph glyph-name="uogonek" unicode="&#x173;" horiz-adv-x="514" 
d="M75 119l0.000976562 334.001c0 18 -10.7998 30 -27 30h-31v8h108c10.9502 0 15 -4.0498 15 -15v-349c0 -78 34 -119 82 -119c90 0 149 85 149 213v218c0 40 -5 44 -45 44h-15v8l131 3v-6c-2 -15 -4 -30 -4 -45v-396c0 -21 11 -28 23 -28c13 0 24 10 24 29v13h8v-13
c0 -26.5098 -19.0303 -44.2002 -40.6104 -49.96c-46.4404 -12.9297 -78.3906 -53.1299 -78.3906 -109.24c0 -37 25.9902 -61 64 -61.0098c24.5596 0 52.7197 9.69043 76 19l5 -14c-9.71973 -4.11035 -54.7998 -22 -88 -22c-56.0098 0 -94 30.0098 -94 75.0098
c0 49.1201 34.7402 90.5 85.1299 112.17c-18.8604 5.17969 -34.1299 20.6494 -34.1299 47.0293v118h-7c-18 -120 -88 -170 -166 -170c-82 0 -140 44 -140 126z" />
    <glyph glyph-name="Wcircumflex" unicode="&#x174;" horiz-adv-x="844" 
d="M479 758.13l88 -81l-16 -18l-41 42c-24.7002 25.2998 -41 45 -41 48h-4c0 -3 -16.2998 -22.7002 -41 -48l-41 -42l-16 18l88 81h24zM386 540c-12 39 -19 51 -49 51h-7v8h191v-8h-54c-12.9902 0 -18.1602 -11.9697 -18.1602 -24.6504
c0 -4.89941 0.770508 -9.88965 2.16016 -14.3496l131 -440c3 -10 6 -23 6 -30h9c0 2 2 17 8 33l126 355l17 71c1.63965 6.84961 2.62988 13.21 2.62988 18.9404c0 18.9795 -10.8301 31.0596 -44.6299 31.0596h-12v8h144v-8h-4c-23 0 -37 -19 -50 -51l-32 -75l-170 -468h-34
l-124.01 416.02l-122.99 -416.02h-36l-197 543c-15 40 -18 51 -48 51h-12v8h120v-11c0 -12 1 -25 5 -36l164 -440c1 -2 4 -18 4 -30h7c0 1 4 16 9 33l97.46 329.6z" />
    <glyph glyph-name="wcircumflex" unicode="&#x175;" horiz-adv-x="755" 
d="M416 666.13l88 -81l-16 -18l-41 42c-24.7002 25.2998 -41 45 -41 48h-4c0 -3 -16.2998 -22.7002 -41 -48l-41 -42l-16 18l88 81h24zM233 -4l-165 436c-15 40 -20 51 -48 51h-12v8h120v-12c0 -12 0.450195 -24.5 5 -36l127 -321c2.53027 -6.38965 5 -26 5 -34h9
c0 3 2 13 7 30l88.9502 294.21l-5.9502 19.79c-12 39 -19 51 -49 51h-19v8h191v-8h-42c-11.7803 0 -18.6699 -9.2998 -18.6699 -23.4199c0 -4.99023 0.860352 -10.5801 2.66992 -16.5801l98 -325c4 -14 5 -24 5 -30h9c0 4 4 16 10 32l94.1201 245.5l15.8799 67.5
c1.74023 7.40039 2.74023 14.0303 2.74023 19.8496c0 19.6504 -11.3398 30.1504 -43.7402 30.1504h-15v8h143v-8h-5c-27 0 -36.29 -19.6904 -50 -51l-31.1904 -71.25l-138.81 -363.75l-28 -1l-115.32 384.15l-115.68 -384.15h-31z" />
    <glyph glyph-name="Ycircumflex" unicode="&#x176;" horiz-adv-x="479" 
d="M262 759.13l88 -81l-16 -18l-41 42c-24.7002 25.2998 -41 45 -41 48h-4c0 -3 -16.2998 -22.7002 -41 -48l-41 -42l-16 18l88 81h24zM96 0v8h71c40 0 44 12 44 127v149l-130 250c-19.8096 38.0996 -31 57 -55 57h-18v8h158v-8h-52v-2c11 -4 21 -20 34 -45l108 -205
c4 -8 10 -22 11 -27h5c1 5 7 19 11 27l69 133l27 60c7 15 11 27 11 37c0 14 -10 22 -36 22h-44v8h161v-8h-4c-21 0 -37 -15 -62 -58l-40 -68l-86 -168v-162c0 -115 4 -127 44 -127h60v-8h-287z" />
    <glyph glyph-name="ycircumflex" unicode="&#x177;" horiz-adv-x="492" 
d="M270 666.13l88 -81l-16 -18l-41 42c-24.7002 25.2998 -41 45 -41 48h-4c0 -3 -16.2998 -22.7002 -41 -48l-41 -42l-16 18l88 81h24zM241 -5c2.99023 7.53027 4.75 15.79 4.75 24.2002c0 7.62012 -1.4502 15.3701 -4.75 22.7998l-169 390c-16 38 -22 51 -50 51h-13v8h161
v-8h-59v-1c11 -4 20.3701 -24.8701 27 -40l134 -306c5 -12 6 -30 6 -35v-2h3l104 265l20 68c2.87988 9.33008 4.36035 17.2002 4.36035 23.7402c0 19.4697 -13.1006 27.2598 -41.3604 27.2598h-28v8h145v-7c-24 0 -34 -16 -50 -53l-32 -72l-177 -449
c-22 -56 -62 -99 -111 -99c-35 0 -63 35 -63 78c24 -11 44 -19 70 -19c36 0 73.6602 10.7305 94 62z" />
    <glyph glyph-name="Ydieresis" unicode="&#x178;" horiz-adv-x="479" 
d="M168 737c22 0 38 -14 38 -37c0 -22 -15 -37 -38 -37c-22 0 -36 14 -36 37c0 22 13 37 36 37zM332 737c22 0 36 -14 36 -37c0 -22 -13 -37 -36 -37c-22 0 -38 14 -38 37c0 22 15 37 38 37zM96 0v8h71c40 0 44 12 44 127v149l-130 250c-19.8096 38.0996 -31 57 -55 57h-18
v8h158v-8h-52v-2c11 -4 21 -20 34 -45l108 -205c4 -8 10 -22 11 -27h5c1 5 7 19 11 27l69 133l27 60c7 15 11 27 11 37c0 14 -10 22 -36 22h-44v8h161v-8h-4c-21 0 -37 -15 -62 -58l-40 -68l-86 -168v-162c0 -115 4 -127 44 -127h60v-8h-287z" />
    <glyph glyph-name="Zacute" unicode="&#x179;" horiz-adv-x="437" 
d="M184 631l-9 9l95 115c3 3 5 4 8 4s5.75977 -0.269531 9 -3l19 -16l-20 -25zM4 0v8c12 0 38 17 60 64l218 459c12 27 40 46 58 51v2h-128c-80 0 -150 -22 -158 -96l-2 -17l-9 1l6 118c6 7 11 9 24 9h337v-7c-9 0 -35 -17 -58 -65l-218 -457c-13 -27 -28 -44 -40 -52v-3
h149c78 0 150 25 155 91l3 30h11l-7 -127c-8 -8 -10 -9 -22 -9h-379z" />
    <glyph glyph-name="zacute" unicode="&#x17a;" horiz-adv-x="416" 
d="M0 0v8c12 0 34 19 60 64l200 350c15 27 36 46 56 51v3h-124c-80 0 -126 -23 -134 -97l-2 -16h-11l6 120c5 7 10 8 22 8h316v-8c-9 0 -33 -23 -57 -65l-200 -348c-15 -26 -28 -44 -40 -52v-3h147c78 0 133 24 139 91l2 30h12l-8 -128c-1 -4 -6 -8 -20 -8h-364zM185 539
l-9 9l95 115c3 3 5 4 8 4s5.75977 -0.269531 9 -3l19 -16l-20 -25z" />
    <glyph glyph-name="Zdotaccent" unicode="&#x17b;" horiz-adv-x="437" 
d="M220 750c22 0 37 -13 37 -36c0 -22 -14 -38 -37 -38c-22 0 -38 15 -38 38c0 22 15 36 38 36zM4 0v8c12 0 38 17 60 64l218 459c12 27 40 46 58 51v2h-128c-80 0 -150 -22 -158 -96l-2 -17l-9 1l6 118c6 7 11 9 24 9h337v-7c-9 0 -35 -17 -58 -65l-218 -457
c-13 -27 -28 -44 -40 -52v-3h149c78 0 150 25 155 91l3 30h11l-7 -127c-8 -8 -10 -9 -22 -9h-379z" />
    <glyph glyph-name="zdotaccent" unicode="&#x17c;" horiz-adv-x="416" 
d="M0 0v8c12 0 34 19 60 64l200 350c15 27 36 46 56 51v3h-124c-80 0 -126 -23 -134 -97l-2 -16h-11l6 120c5 7 10 8 22 8h316v-8c-9 0 -33 -23 -57 -65l-200 -348c-15 -26 -28 -44 -40 -52v-3h147c78 0 133 24 139 91l2 30h12l-8 -128c-1 -4 -6 -8 -20 -8h-364zM221 658
c22 0 37 -13 37 -36c0 -22 -14 -38 -37 -38c-22 0 -38 15 -38 38c0 22 15 36 38 36z" />
    <glyph glyph-name="Zcaron" unicode="&#x17d;" horiz-adv-x="437" 
d="M232 656h-24l-88 81l16 18l41 -42c24.7002 -25.2998 41 -45 41 -48h4c0 3 16.2998 22.7002 41 48l41 42l16 -18zM4 0v8c12 0 38 17 60 64l218 459c12 27 40 46 58 51v2h-128c-80 0 -150 -22 -158 -96l-2 -17l-9 1l6 118c6 7 11 9 24 9h337v-7c-9 0 -35 -17 -58 -65
l-218 -457c-13 -27 -28 -44 -40 -52v-3h149c78 0 150 25 155 91l3 30h11l-7 -127c-8 -8 -10 -9 -22 -9h-379z" />
    <glyph glyph-name="zcaron" unicode="&#x17e;" horiz-adv-x="416" 
d="M0 0v8c12 0 34 19 60 64l200 350c15 27 36 46 56 51v3h-124c-80 0 -126 -23 -134 -97l-2 -16h-11l6 120c5 7 10 8 22 8h316v-8c-9 0 -33 -23 -57 -65l-200 -348c-15 -26 -28 -44 -40 -52v-3h147c78 0 133 24 139 91l2 30h12l-8 -128c-1 -4 -6 -8 -20 -8h-364zM233 564
h-24l-88 81l16 18l41 -42c24.7002 -25.2998 41 -45 41 -48h4c0 3 16.2998 22.7002 41 48l41 42l16 -18z" />
    <glyph glyph-name="florin" unicode="&#x192;" horiz-adv-x="288" 
d="M265 528c-12 13 -30 20 -53 20c-43 0 -69 -34 -73 -96l-4 -68h74l-1 -22h-86v-1c6 -3 9 -8 9 -26l-31 -446h-59l33 473h-52l2 22h52l2 30c8 101 54 156 136 156c28 0 52 -12 66 -32z" />
    <glyph glyph-name="uni01CD" unicode="&#x1cd;" horiz-adv-x="590" 
d="M337 656h-24l-88 81l16 18l41 -42c24.7002 -25.2998 41 -45 41 -48h4c0 3 16.2998 22.7002 41 48l41 42l16 -18zM7 0v8c7 0 30 3 54 51l37 75l184 424c6.51953 15.0098 14 33 15 45h17l213 -544c16 -40 21 -51 49 -51h6v-8h-163v8h19
c8.07031 0 27.8398 2.59961 27.8398 22.5c0 4.76953 -1.12988 10.54 -3.83984 17.5l-51.1699 131h-178.83l-96 -1.74023l-21 -49.2598l-23 -69c-3 -8 -4 -15 -4 -21c0 -19 15 -30 40 -30h28v-8h-149zM144.24 196.57l91.7598 -2.57031h168.97l-108.97 279c-6 17 -8 31 -8 49
h-5z" />
    <glyph glyph-name="uni01CE" unicode="&#x1ce;" horiz-adv-x="459" 
d="M31 97c0 91 75 140 215 140h70v136c0 72 -35 109 -99 109c-82 0 -124 -49 -128 -114l-4 -50h-15l9 173c6.94043 -1.74023 16 -3 24 -3c27 0 64.8896 10 113 10c108 0 167 -48 167 -136v-315c0 -21 11 -28 23 -28c13 0 24 10 24 29v13h8v-13
c0 -28.7002 -23.7402 -52 -53 -52c-24.9502 0 -45.2598 21.5195 -47 49l-5 83h-8c-22 -102 -90 -135 -150 -135c-90 0 -144 42 -144 104zM98 97c0 -50 39 -81 87 -81c61 0 131 51 131 172v34h-66c-98 0 -152 -44 -152 -125zM230 564h-24l-88 81l16 18l41 -42
c24.7002 -25.2998 41 -45 41 -48h4c0 3 16.2998 22.7002 41 48l41 42l16 -18z" />
    <glyph glyph-name="uni01CF" unicode="&#x1cf;" horiz-adv-x="244" 
d="M133 656h-24l-88 81l16 18l41 -42c24.7002 -25.2998 41 -45 41 -48h4c0 3 16.2998 22.7002 41 48l41 42l16 -18zM15 0v8h29c39.5996 0 44 12.7002 44 127v331c0 112.5 -4.40039 125 -44 125h-29v8h214v-10h-29c-39.5996 0 -44 -12.5 -44 -125v-329
c0 -114.3 4.40039 -127 44 -127h29v-8h-214z" />
    <glyph glyph-name="uni01D0" unicode="&#x1d0;" horiz-adv-x="241" 
d="M133 564h-24l-88 81l16 18l41 -42c24.7002 -25.2998 41 -45 41 -48h4c0 3 16.2998 22.7002 41 48l41 42l16 -18zM88 134v319c0 18 -10.7998 30 -27 30h-31v8h113c7.2998 0 10 -2.7002 10 -10v-347c0 -114 5 -126 45 -126h30v-8h-213v8h29c40 0 44 12 44 126z" />
    <glyph glyph-name="uni01D1" unicode="&#x1d1;" horiz-adv-x="644" 
d="M347 657h-24l-88 81l16 18l41 -42c24.7002 -25.2998 41 -45 41 -48h4c0 3 16.2998 22.7002 41 48l41 42l16 -18zM322 -7c-178 0 -296 123 -296 307c0 169 132 306 296 306c177 0 296 -122 296 -306c0 -169 -133 -307 -296 -307zM325 8c132 0 220 110 220 276
c0 169 -101 307 -226 307c-132 0 -221 -111 -221 -276c0 -169 102 -307 227 -307z" />
    <glyph glyph-name="uni01D2" unicode="&#x1d2;" horiz-adv-x="604" 
d="M319 564h-24l-88 81l16 18l41 -42c24.7002 -25.2998 41 -45 41 -48h4c0 3 16.2998 22.7002 41 48l41 42l16 -18zM302 -7c-160.8 0 -268 101.2 -268 253c0 138.6 121.14 252 268 252c160.53 0 268 -101.3 268 -252c0 -138.9 -120.06 -253 -268 -253zM304 8
c116.22 0 195 90.0498 195 224c0 137.5 -90.25 250 -201 250c-115.99 0 -193 -88.9805 -193 -223c0 -137.8 88.75 -251 199 -251z" />
    <glyph glyph-name="uni01D3" unicode="&#x1d3;" horiz-adv-x="487" 
d="M275 656h-24l-88 81l16 18l41 -42c24.7002 -25.2998 41 -45 41 -48h4c0 3 16.2998 22.7002 41 48l41 42l16 -18zM82 137v327c0 115 -5 127 -45 127h-22v8h216v-8h-37c-40 0 -44 -12 -44 -127v-349c0 -64 35 -99 101 -99c89 0 136 43 136 121v312c0 104 -12 142 -47 142
h-30v8h163v-8h-21c-35 0 -48 -38 -48 -142v-312c0 -93 -54 -144 -153 -144c-100 0 -169 58 -169 144z" />
    <glyph glyph-name="uni01D4" unicode="&#x1d4;" horiz-adv-x="514" 
d="M75 119v334c0 18 -10.7998 30 -27 30h-31v8h108c10.9502 0 15 -4.0498 15 -15v-349c0 -78 34 -119 82 -119c90 0 149 85 149 213v218c0 40 -5 44 -45 44h-15v8l131 3v-6c-2 -15 -4 -30 -4 -45v-396c0 -21 11 -28 23 -28c13 0 24 10 24 29v13h8v-13
c0 -32.7305 -29 -52 -56 -52c-25 0 -49 15.9199 -49 49v118h-7c-18 -120 -88 -170 -166 -170c-82 0 -140 44 -140 126zM262 564h-24l-88 81l16 18l41 -42c24.7002 -25.2998 41 -45 41 -48h4c0 3 16.2998 22.7002 41 48l41 42l16 -18z" />
    <glyph glyph-name="uni01E2" unicode="&#x1e2;" horiz-adv-x="755" 
d="M273 555c3.78027 9.08984 6 16 6 22c0 8 -4 12 -13 12v10h385c13 0 25 -1 31 -7l12 -187h-15l-4 58c-6 88 -48 121 -128 121h-113v-1c10 -10 18 -25 18 -43v-246h30c47 0 90 8 90 88v37h11v-267h-11v38c0 80 -43 89 -90 89h-30v-224c0 -27 9 -40 23 -40h117
c80 0 116 36 123 113l6 66h13l-11 -186c-6 -6 -18 -8 -31 -8h-381v8h29c40 0 44 12 44 127v144h-136l-72 -1l-61 -150l-23 -69c-3 -8 -4 -15 -4 -21c0 -19 15 -30 40 -30h28v-8h-149v8c7 0 30 3 54 51l37 75zM384 584h-62c-17 0 -25.5596 -9.75977 -33 -28l-106 -260l69 -2
h132v290zM531 689h-227l2 21h227z" />
    <glyph glyph-name="uni01E3" unicode="&#x1e3;" horiz-adv-x="815" 
d="M318 271h-61c-96 0 -159 -61 -159 -153c0 -56 40 -102 90 -102c58 0 130 53 130 172v83zM387 286c108 2 213 4 321 6c5 0 6 2 6 7c0 110 -62 183 -155 183c-92 0 -159 -77 -172 -196zM332 186.84c-0.490234 -133.189 -85.2002 -193.84 -154 -193.84
c-90 0 -149 51 -149 125c0 93 100 168 223 168h66v87c0 71 -35 109 -99 109c-82 0 -124 -49 -128 -114l-4 -50h-15l9 173c6.9502 -1.74023 16 -3 24 -3c27 0 64.8896 10 113 10c91.9297 0 141.83 -34.7803 154.65 -99.4004c41.8398 60.3701 109.47 99.4004 190.35 99.4004
c132 0 221 -80 221 -199v-4c0 -13 -11 -24 -26 -24h-373c-1 -9 -1 -18 -1 -27c0 -130 86 -227 191 -227c86.2402 0 161.34 39.79 197 114l12 -8c-39 -81 -120 -130 -224 -130c-127.15 0 -207.8 76.0303 -228 193.84zM483 597h-227l2 21h227z" />
    <glyph glyph-name="Gcaron" unicode="&#x1e6;" horiz-adv-x="584" 
d="M515 -33h-7v58c-1 21 -16 41 -34 41c-8 0 -16 -4 -24 -12c-38 -40 -91 -61 -148 -61c-164 0 -274 124 -274 309c0 168 127 304 285 304c55 0 92 -15 133 -15c12 0 24 2 36 4l11 -213l-15 0.00976562l-3 55.9902c-5.2002 97.0801 -85 153 -170 153
c-123 0 -205 -110 -205 -276c0 -169 92 -307 205 -307c55 1 108 23 142 69v67c0 107 -7 119 -77 119h-95v15h248c-7 -23 -8 -47 -8 -83v-228zM329 657h-24l-88 81l16 18l41 -42c24.7002 -25.2998 41 -45 41 -48h4c0 3 16.2998 22.7002 41 48l41 42l16 -18z" />
    <glyph glyph-name="gcaron" unicode="&#x1e7;" horiz-adv-x="540" 
d="M107 352c0 -90 65 -163 145 -163c91 0 152 58 152 142s-69 152 -152 152c-87 0 -145 -52 -145 -131zM44 341c0 86 94 157 208 157c85.04 0 151.39 -27.3799 186.74 -72.96c0 45.96 22.5693 92.46 58.2598 112.96l14 8c5.57031 -7.80957 9 -15.6299 9 -25
c0 -13 -6 -25 -17 -31c-30.0996 -17.75 -50 -42.0596 -50 -71.54c0 -8.70996 1.09961 -17.8896 4.98047 -27.4697c5.90918 -15.4004 9.01953 -32.1299 9.01953 -49.9902c0 -94 -90 -167 -215 -167c-17.6904 0 -34.3701 1.16016 -50 3.42969v-19.4297c0 -67 44 -75 104 -75
h22c84 0 185 -26 185 -131c0 -76 -106 -141 -227 -141c-141 0 -244 60 -244 137c0 63.6904 74.5 116.61 171.53 125.64c-17.6807 19.9502 -28.5303 47.2402 -28.5303 84.3604v22.4199c-90.3799 18.7305 -141 77.3301 -141 160.58zM228.49 59.6396
c-92.1904 -4.59961 -164.49 -52.6992 -164.49 -111.64c0 -47 90 -81 222 -81c113 0 212 37 212 85c0 37 -48 70 -118 70c-53.1797 0 -112.43 7.13965 -151.51 37.6396zM287 564h-24l-88 81l16 18l41 -42c24.7002 -25.2998 41 -45 41 -48h4c0 3 16.2998 22.7002 41 48l41 42
l16 -18z" />
    <glyph glyph-name="uni01E8" unicode="&#x1e8;" horiz-adv-x="506" 
d="M15 0v8h29c40 0 44 12 44 134v322c0 114.3 -4.40039 127 -44 127h-29v8h194v-8h-7c-41 0 -46 -12 -46 -127v-104c30 0 47 2 55 12l99 125l28 41c8.30957 11.6396 13.6904 22.75 13.6904 31.7695c0 12.6904 -10.6406 21.2305 -38.6904 21.2305h-6v8h184v-8h-3
c-35 0 -82 -21 -120 -59l-47 -46l-95 -119l1 -4c132 -29 148 -137 160 -234c8 -66 15 -118 64 -118c11 0 25 4 40 16l11 9l4 -6l-10 -8c-24.2695 -19.4102 -47 -31 -68 -31c-82 0 -97 79 -111 163c-16 98 -35 198 -150 198h-11v-210c0 -122 5 -134 46 -134h29v-8h-216z
M260 656h-24l-88 81l16 18l41 -42c24.7002 -25.2998 41 -45 41 -48h4c0 3 16.2998 22.7002 41 48l41 42l16 -18z" />
    <glyph glyph-name="uni01E9" unicode="&#x1e9;" horiz-adv-x="506" 
d="M84 134v517c0 16 -9 25 -25 25h-39v7h48c34 0 70 8 78 40l2 8h6l-5 -143v-320c30 0 47 2 55 12l95 108l31 41c8.87988 11.71 14.1797 22.7598 14.1797 31.7803c0 13.3301 -11.5596 22.2197 -40.1797 22.2197h-4v8h184v-8h-7c-35 0 -82 -21 -120 -59l-47 -46l-90 -103v-3
c128 -29 144 -94 152 -158c8 -66 22 -103 71 -103c11 0 26 4 41 16l11 9l4 -6l-10 -8c-24.2695 -19.4102 -47 -31 -68 -31c-80 0 -105 53 -120 137c-11 65 -25 133 -141 133h-11v-127c0 -114 5 -126 45 -126h29v-8h-212v8h29c40 0 44 12.002 44 126zM303 656h-24l-88 81
l16 18l41 -42c24.7002 -25.2998 41 -45 41 -48h4c0 3 16.2998 22.7002 41 48l41 42l16 -18z" />
    <glyph glyph-name="uni01EA" unicode="&#x1ea;" horiz-adv-x="644" 
d="M355 -189.21c-56.0098 0 -94 30.0107 -94 75.0107c0 45.8301 30 84.2002 75 107.2h-14c-178 0 -296 123 -296 307c0 169 132 306 296 306c177 0 296 -122 296 -306c0 -149.8 -104.49 -275.24 -241.75 -301.811c-46.3896 -12.9502 -78.25 -53.3203 -78.25 -109.391
c0 -37 25.9902 -60.79 64 -60.7998c24.5596 0 52.7197 9.48047 76 18.79l5 -14c-9.71973 -4.11035 -54.7998 -22 -88 -22zM325 8.00098c132 0 220 110 220 276c0 169 -101 307 -226 307c-132 0 -221 -111 -221 -276c0 -169 102 -307 227 -307z" />
    <glyph glyph-name="uni01EB" unicode="&#x1eb;" horiz-adv-x="604" 
d="M302 -7c-161 0 -267.999 101.2 -267.999 253c0 138.6 121.14 252 268 252c160.53 0 268 -101.3 268 -252c0 -121.4 -91.7305 -223.87 -213.671 -247.79c-46.4404 -12.9297 -78.3301 -53.2998 -78.3301 -109.41c0 -37 25.9902 -60.79 64 -60.7998
c24.5596 0 52.7197 9.48047 76 18.79l5 -14c-9.71973 -4.11035 -54.7998 -22 -88 -22c-56.0098 0 -94 30.0098 -94 75.0098c0 45.8301 30 84.2002 75 107.2h-14zM304.001 8c116.22 0 195 90.0498 195 224c0 137.5 -90.25 250 -201 250c-115.99 0 -193 -88.9805 -193 -223
c0 -137.8 88.75 -251 199 -251z" />
    <glyph glyph-name="uni01EC" unicode="&#x1ec;" horiz-adv-x="644" 
d="M448 689h-227l2 21h227zM355 -189.21c-56.0098 0 -94 30.0098 -94 75.0098c0 45.8301 30 84.2002 75 107.2h-14c-178 0 -296 123 -296 307c0 169 132 306 296 306c177 0 296 -122 296 -306c0 -149.8 -104.49 -275.24 -241.75 -301.81
c-46.3896 -12.9502 -78.25 -53.3203 -78.25 -109.391c0 -37 25.9902 -60.79 64 -60.7998c24.5596 0 52.7197 9.48047 76 18.79l5 -14c-9.71973 -4.11035 -54.7998 -22 -88 -22zM325 8c132 0 220 110 220 276c0 169 -101 307 -226 307c-132 0 -221 -111 -221 -276
c0 -169 102 -307 227 -307z" />
    <glyph glyph-name="uni01ED" unicode="&#x1ed;" horiz-adv-x="604" 
d="M302 -7c-161 0 -268 101.2 -268 253c0 138.6 121.14 252 268 252c160.53 0 268 -101.3 268 -252c0 -121.4 -91.7305 -223.87 -213.67 -247.79c-46.4404 -12.9297 -78.3301 -53.2998 -78.3301 -109.41c0 -37 25.9902 -60.79 64 -60.7998
c24.5596 0 52.7197 9.48047 76 18.79l5 -14c-9.71973 -4.11035 -54.7998 -22 -88 -22c-56.0098 0 -94 30.0098 -94 75.0098c0 45.8301 30 84.2002 75 107.2h-14zM304 8c116.22 0 195 90.0498 195 224c0 137.5 -90.25 250 -201 250c-115.99 0 -193 -88.9805 -193 -223
c0 -137.8 88.75 -251 199 -251zM411 597h-227l2 21h227z" />
    <glyph glyph-name="uni01F0" unicode="&#x1f0;" horiz-adv-x="223" 
d="M133 564h-24l-88 81l16 18l41 -42c24.7002 -25.2998 41 -45 41 -48h4c0 3 16.2998 22.7002 41 48l41 42l16 -18zM88 453c0 18 -10.7998 30 -27 30h-31v8h113c7.2998 0 10 -2.7002 10 -10v-529c0 -84 -55 -141 -131 -141c-64 0 -107 41 -107 104h7c0 -54 40 -89 100 -89
c43 0 66 30 66 88v539z" />
    <glyph glyph-name="uni01F4" unicode="&#x1f4;" horiz-adv-x="584" 
d="M515 -33h-7v58c-1 21 -16 41 -34 41c-8 0 -16 -4 -24 -12c-38 -40 -91 -61 -148 -61c-164 0 -274 124 -274 309c0 168 127 304 285 304c55 0 92 -15 133 -15c12 0 24 2 36 4l11 -213l-15 0.00976562l-3 55.9902c-5.2002 97.0801 -85 153 -170 153
c-123 0 -205 -110 -205 -276c0 -169 92 -307 205 -307c55 1 108 23 142 69v67c0 107 -7 119 -77 119h-95v15h248c-7 -23 -8 -47 -8 -83v-228zM281 632l-9 9l95 115c3 3 5 4 8 4s5.75977 -0.269531 9 -3l19 -16l-20 -25z" />
    <glyph glyph-name="uni01F5" unicode="&#x1f5;" horiz-adv-x="540" 
d="M107 352c0 -90 65 -163 145 -163c91 0 152 58 152 142s-69 152 -152 152c-87 0 -145 -52 -145 -131zM44 341c0 86 94 157 208 157c85.04 0 151.39 -27.3799 186.74 -72.96c0 45.96 22.5693 92.46 58.2598 112.96l14 8c5.57031 -7.80957 9 -15.6299 9 -25
c0 -13 -6 -25 -17 -31c-30.0996 -17.75 -50 -42.0596 -50 -71.54c0 -8.70996 1.09961 -17.8896 4.98047 -27.4697c5.90918 -15.4004 9.01953 -32.1299 9.01953 -49.9902c0 -94 -90 -167 -215 -167c-17.6904 0 -34.3701 1.16016 -50 3.42969v-19.4297c0 -67 44 -75 104 -75
h22c84 0 185 -26 185 -131c0 -76 -106 -141 -227 -141c-141 0 -244 60 -244 137c0 63.6904 74.5 116.61 171.53 125.64c-17.6807 19.9502 -28.5303 47.2402 -28.5303 84.3604v22.4199c-90.3799 18.7305 -141 77.3301 -141 160.58zM228.49 59.6396
c-92.1904 -4.59961 -164.49 -52.6992 -164.49 -111.64c0 -47 90 -81 222 -81c113 0 212 37 212 85c0 37 -48 70 -118 70c-53.1797 0 -112.43 7.13965 -151.51 37.6396zM239 539l-9 9l95 115c3 3 5 4 8 4s5.75977 -0.269531 9 -3l19 -16l-20 -25z" />
    <glyph glyph-name="uni01F8" unicode="&#x1f8;" horiz-adv-x="490" 
d="M274 632l-102 84l-20 25l19 16c3.24023 2.73047 6 3 9 3s5 -1 8 -4l95 -115zM15 0v8h17c32 0 49 21 49 127v413c0 40 -5 43 -45 43h-21v8h129l233 -420c9 -16 15 -28 15 -31h5c-1 9 -1 21 -1 35v266c0 104 -13 142 -49 142h-42v8h175v-8h-17c-36 0 -50 -22 -50 -142v-461
h-9c0 4 -12 27 -24 48l-262 469c-9 15 -17 32 -17 33h-4c1 -9 1 -22 1 -36v-367c0 -93 13 -127 49 -127h17v-8h-149z" />
    <glyph glyph-name="uni01F9" unicode="&#x1f9;" horiz-adv-x="522" 
d="M303 539l-102 84l-20 25l19 16c3.24023 2.73047 6 3 9 3s5 -1 8 -4l95 -115zM15 0v8h29c40 0 44 12 44 127v307c0 20.7002 -11.2305 29.7197 -23.0498 29.7197c-13.1201 0 -23.9502 -11.1201 -23.9502 -29.7197v-31h-8v31c0 34.5098 27 52 56 52c26 0 51 -14.2305 51 -44
v-36c0 -13 -1 -79 -2 -87h6c2 15 9 40 14 54c24 71 83 117 152 117c90 0 140 -50 140 -126v-237c0 -115 4 -127 44 -127h22v-8h-204v8h29c40 0 44 12 44 127v214c0 82 -24 126 -82 126c-85 0 -150 -77 -150 -195v-145c0 -115 5 -127 45 -127h30v-8h-213z" />
    <glyph glyph-name="AEacute" unicode="&#x1fc;" horiz-adv-x="755" 
d="M273 555c3.78027 9.08984 6 16 6 22c0 8 -4 12 -13 12v10h385c13 0 25 -1 31 -7l12 -187h-15l-4 58c-6 88 -48 121 -128 121h-113v-1c10 -10 18 -25 18 -43v-246h30c47 0 90 8 90 88v37h11v-267h-11v38c0 80 -43 89 -90 89h-30v-224c0 -27 9 -40 23 -40h117
c80 0 116 36 123 113l6 66h13l-11 -186c-6 -6 -18 -8 -31 -8h-381v8h29c40 0 44 12 44 127v144h-136l-72 -1l-61 -150l-23 -69c-3 -8 -4 -15 -4 -21c0 -19 15 -30 40 -30h28v-8h-149v8c7 0 30 3 54 51l37 75zM384 584h-62c-17 0 -25.5596 -9.75977 -33 -28l-106 -260l69 -2
h132v290zM382 631l-9 9l95 115c3 3 5 4 8 4s5.75977 -0.269531 9 -3l19 -16l-20 -25z" />
    <glyph glyph-name="aeacute" unicode="&#x1fd;" horiz-adv-x="815" 
d="M318 271h-61c-96 0 -159 -61 -159 -153c0 -56 40 -102 90 -102c58 0 130 53 130 172v83zM387 286c108 2 213 4 321 6c5 0 6 2 6 7c0 110 -62 183 -155 183c-92 0 -159 -77 -172 -196zM332 186.84c-0.490234 -133.189 -85.2002 -193.84 -154 -193.84
c-90 0 -149 51 -149 125c0 93 100 168 223 168h66v87c0 71 -35 109 -99 109c-82 0 -124 -49 -128 -114l-4 -50h-15l9 173c6.9502 -1.74023 16 -3 24 -3c27 0 64.8896 10 113 10c91.9297 0 141.83 -34.7803 154.65 -99.4004c41.8398 60.3701 109.47 99.4004 190.35 99.4004
c132 0 221 -80 221 -199v-4c0 -13 -11 -24 -26 -24h-373c-1 -9 -1 -18 -1 -27c0 -130 86 -227 191 -227c86.2402 0 161.34 39.79 197 114l12 -8c-39 -81 -120 -130 -224 -130c-127.15 0 -207.8 76.0303 -228 193.84zM334 539l-9 9l95 115c3 3 5 4 8 4
s5.75977 -0.269531 9 -3l19 -16l-20 -25z" />
    <glyph glyph-name="Oslashacute" unicode="&#x1fe;" horiz-adv-x="644" 
d="M299 632l-9 9l95 115c3 3 5 4 8 4s5.75977 -0.269531 9 -3l19 -16l-20 -25zM92 -40l-18 13l58.4404 81.5498c-67.2607 53.6602 -106.44 139.431 -106.44 245.45c0 169 132 306 296 306c66.2402 0 124.35 -17.0898 171.15 -48.1201l58.8496 82.1201l18 -13
l-58.8799 -82.1504c67.3604 -53.3691 106.88 -138.819 106.88 -244.85c0 -169 -133 -307 -296 -307c-66.6299 0 -124.86 17.2305 -171.63 48.4502zM325 8c132 0 220 110 220 276c0 84.2402 -25.0898 160.79 -65.75 216.37l-300.7 -419.59
c39.5801 -45.3604 90.7305 -72.7803 146.45 -72.7803zM164.14 98.7803l300.721 419.63c-39.3408 45.25 -90.2207 72.5898 -145.86 72.5898c-132 0 -221 -111 -221 -276c0 -84.1699 25.2998 -160.65 66.1396 -216.22z" />
    <glyph glyph-name="oslashacute" unicode="&#x1ff;" horiz-adv-x="604" 
d="M266 539l-9 9l95 115c3 3 5 4 8 4s5.75977 -0.269531 9 -3l19 -16l-20 -25zM304 8c116.22 0 195 90.0498 195 224c0 69.6104 -23.1299 132.82 -60.3398 178.26l-262.72 -343.27c34.5596 -36.75 79.1992 -58.9902 128.06 -58.9902zM93.9902 -40.0996l-17.9805 13.5293
l54.0605 70.5703c-60.6504 44.21 -96.0703 114.75 -96.0703 202c0 138.6 121.14 252 268 252c56.9199 0 107.18 -12.7402 148.33 -35.9004l59.6699 77.9004l18 -13l-58.7305 -76.7402c63.4502 -43.8799 100.73 -115.5 100.73 -204.26c0 -138.9 -120.06 -253 -268 -253
c-59.2002 0 -111.13 13.71 -153.12 38.6201zM423.47 427.04c-34.4199 34.3604 -78.0693 54.96 -125.47 54.96c-115.99 0 -193 -88.9805 -193 -223c0 -67.5596 21.3301 -129.22 56.0801 -174.51z" />
    <glyph glyph-name="uni0200" unicode="&#x200;" horiz-adv-x="590" 
d="M214 758l81 -94l-8 -8l-77 69l-14 16zM347 758l81 -94l-7 -8l-78 69l-14 16zM7 0v8c7 0 30 3 54 51l37 75l184 424c6.51953 15.0098 14 33 15 45h17l213 -544c16 -40 21 -51 49 -51h6v-8h-163v8h19c8.07031 0 27.8398 2.59961 27.8398 22.5
c0 4.76953 -1.12988 10.54 -3.83984 17.5l-51.1699 131h-178.83l-96 -1.74023l-21 -49.2598l-23 -69c-3 -8 -4 -15 -4 -21c0 -19 15 -30 40 -30h28v-8h-149zM144.24 196.57l91.7598 -2.57031h168.97l-108.97 279c-6 17 -8 31 -8 49h-5z" />
    <glyph glyph-name="uni0201" unicode="&#x201;" horiz-adv-x="459" 
d="M31 97c0 91 75 140 215 140h70v136c0 72 -35 109 -99 109c-82 0 -124 -49 -128 -114l-4 -50h-15l9 173c6.94043 -1.74023 16 -3 24 -3c27 0 64.8896 10 113 10c108 0 167 -48 167 -136v-315c0 -21 11 -28 23 -28c13 0 24 10 24 29v13h8v-13
c0 -28.7002 -23.7402 -52 -53 -52c-24.9502 0 -45.2598 21.5195 -47 49l-5 83h-8c-22 -102 -90 -135 -150 -135c-90 0 -144 42 -144 104zM98 97c0 -50 39 -81 87 -81c61 0 131 51 131 172v34h-66c-98 0 -152 -44 -152 -125zM107 666l81 -94l-8 -8l-77 69l-14 16zM240 666
l81 -94l-7 -8l-78 69l-14 16z" />
    <glyph glyph-name="uni0202" unicode="&#x202;" horiz-adv-x="590" 
d="M210 659c37 69 77 97 115 97c48 0 91 -42 115 -97l-12 -8c-31 45 -65 75 -103 75c-32 0 -64 -23 -100 -75zM7 0v8c7 0 30 3 54 51l37 75l184 424c6.51953 15.0098 14 33 15 45h17l213 -544c16 -40 21 -51 49 -51h6v-8h-163v8h19c8.07031 0 27.8398 2.59961 27.8398 22.5
c0 4.76953 -1.12988 10.54 -3.83984 17.5l-51.1699 131h-178.83l-96 -1.74023l-21 -49.2598l-23 -69c-3 -8 -4 -15 -4 -21c0 -19 15 -30 40 -30h28v-8h-149zM144.24 196.57l91.7598 -2.57031h168.97l-108.97 279c-6 17 -8 31 -8 49h-5z" />
    <glyph glyph-name="uni0203" unicode="&#x203;" horiz-adv-x="459" 
d="M31 97c0 91 75 140 215 140h70v136c0 72 -35 109 -99 109c-82 0 -124 -49 -128 -114l-4 -50h-15l9 173c6.94043 -1.74023 16 -3 24 -3c27 0 64.8896 10 113 10c108 0 167 -48 167 -136v-315c0 -21 11 -28 23 -28c13 0 24 10 24 29v13h8v-13
c0 -28.7002 -23.7402 -52 -53 -52c-24.9502 0 -45.2598 21.5195 -47 49l-5 83h-8c-22 -102 -90 -135 -150 -135c-90 0 -144 42 -144 104zM98 97c0 -50 39 -81 87 -81c61 0 131 51 131 172v34h-66c-98 0 -152 -44 -152 -125zM103 567c37 69 77 97 115 97c48 0 91 -42 115 -97
l-12 -8c-31 45 -65 75 -103 75c-32 0 -64 -23 -100 -75z" />
    <glyph glyph-name="uni0204" unicode="&#x204;" horiz-adv-x="463" 
d="M291 172h-11v46c0 80 -43 89 -90 89h-34v-252c0 -27 9 -40 23 -40h121c80 0 116 36 123 113l6 66h13l-11 -186c-6 -6 -18 -8 -31 -8h-385v8h29c40 0 44 12 44 127v329c0 115 -4 127 -44 127h-29v8h344c13 0 25 -1 31 -7l12 -187h-15l-4 58c-6 88 -48 121 -128 121h-117
v-1c10 -10 18 -25 18 -43v-218h34c47 0 90 8 90 88v29h11v-267zM131 758l81 -94l-8 -8l-77 69l-14 16zM264 758l81 -94l-7 -8l-78 69l-14 16z" />
    <glyph glyph-name="uni0205" unicode="&#x205;" horiz-adv-x="516" 
d="M177 666l81 -94l-8 -8l-77 69l-14 16zM310 666l81 -94l-7 -8l-78 69l-14 16zM34 248c0 138 114 250 254 250c117 0 194 -65 194 -167c0 -21 -11 -35 -28 -35h-345.64c-2.2207 -16.5 -3.36035 -33.8604 -3.36035 -52c0 -128 78 -227 198 -227c63 0 132 23 173 79l12 -9
c-44 -59 -115 -94 -203 -94c-150 0 -251 103 -251 255zM110.74 311l288.26 6c8 0 14 5 14 15c0 93 -52 150 -129 150c-90.0195 0 -154.35 -66.2002 -173.26 -171z" />
    <glyph glyph-name="uni0206" unicode="&#x206;" horiz-adv-x="463" 
d="M291 172h-11v46c0 80 -43 89 -90 89h-34v-252c0 -27 9 -40 23 -40h121c80 0 116 36 123 113l6 66h13l-11 -186c-6 -6 -18 -8 -31 -8h-385v8h29c40 0 44 12 44 127v329c0 115 -4 127 -44 127h-29v8h344c13 0 25 -1 31 -7l12 -187h-15l-4 58c-6 88 -48 121 -128 121h-117
v-1c10 -10 18 -25 18 -43v-218h34c47 0 90 8 90 88v29h11v-267zM127 659c37 69 77 97 115 97c48 0 91 -42 115 -97l-12 -8c-31 45 -65 75 -103 75c-32 0 -64 -23 -100 -75z" />
    <glyph glyph-name="uni0207" unicode="&#x207;" horiz-adv-x="516" 
d="M173 567c37 69 77 97 115 97c48 0 91 -42 115 -97l-12 -8c-31 45 -65 75 -103 75c-32 0 -64 -23 -100 -75zM34 248c0 138 114 250 254 250c117 0 194 -65 194 -167c0 -21 -11 -35 -28 -35h-345.64c-2.2207 -16.5 -3.36035 -33.8604 -3.36035 -52c0 -128 78 -227 198 -227
c63 0 132 23 173 79l12 -9c-44 -59 -115 -94 -203 -94c-150 0 -251 103 -251 255zM110.74 311l288.26 6c8 0 14 5 14 15c0 93 -52 150 -129 150c-90.0195 0 -154.35 -66.2002 -173.26 -171z" />
    <glyph glyph-name="uni0208" unicode="&#x208;" horiz-adv-x="244" 
d="M10 758l81 -94l-8 -8l-77 69l-14 16zM143 758l81 -94l-7 -8l-78 69l-14 16zM15 0v8h29c39.5996 0 44 12.7002 44 127v331c0 112.5 -4.40039 125 -44 125h-29v8h214v-10h-29c-39.5996 0 -44 -12.5 -44 -125v-329c0 -114.3 4.40039 -127 44 -127h29v-8h-214z" />
    <glyph glyph-name="uni0209" unicode="&#x209;" horiz-adv-x="241" 
d="M10 666l81 -94l-8 -8l-77 69l-14 16zM143 666l81 -94l-7 -8l-78 69l-14 16zM88 134v319c0 18 -10.7998 30 -27 30h-31v8h113c7.2998 0 10 -2.7002 10 -10v-347c0 -114 5 -126 45 -126h30v-8h-213v8h29c40 0 44 12 44 126z" />
    <glyph glyph-name="uni020A" unicode="&#x20a;" horiz-adv-x="244" 
d="M6 659c37 69 77 97 115 97c48 0 91 -42 115 -97l-12 -8c-31 45 -65 75 -103 75c-32 0 -64 -23 -100 -75zM15 0v8h29c39.5996 0 44 12.7002 44 127v331c0 112.5 -4.40039 125 -44 125h-29v8h214v-10h-29c-39.5996 0 -44 -12.5 -44 -125v-329
c0 -114.3 4.40039 -127 44 -127h29v-8h-214z" />
    <glyph glyph-name="uni020B" unicode="&#x20b;" horiz-adv-x="241" 
d="M6 567c37 69 77 97 115 97c48 0 91 -42 115 -97l-12 -8c-31 45 -65 75 -103 75c-32 0 -64 -23 -100 -75zM88 134v319c0 18 -10.7998 30 -27 30h-31v8h113c7.2998 0 10 -2.7002 10 -10v-347c0 -114 5 -126 45 -126h30v-8h-213v8h29c40 0 44 12 44 126z" />
    <glyph glyph-name="uni020C" unicode="&#x20c;" horiz-adv-x="644" 
d="M224 759l81 -94l-8 -8l-77 69l-14 16zM357 759l81 -94l-7 -8l-78 69l-14 16zM322 -7c-178 0 -296 123 -296 307c0 169 132 306 296 306c177 0 296 -122 296 -306c0 -169 -133 -307 -296 -307zM325 8c132 0 220 110 220 276c0 169 -101 307 -226 307
c-132 0 -221 -111 -221 -276c0 -169 102 -307 227 -307z" />
    <glyph glyph-name="uni020D" unicode="&#x20d;" horiz-adv-x="604" 
d="M196 666l81 -94l-8 -8l-77 69l-14 16zM329 666l81 -94l-7 -8l-78 69l-14 16zM302 -7c-160.8 0 -268 101.2 -268 253c0 138.6 121.14 252 268 252c160.53 0 268 -101.3 268 -252c0 -138.9 -120.06 -253 -268 -253zM304 8c116.22 0 195 90.0498 195 224
c0 137.5 -90.25 250 -201 250c-115.99 0 -193 -88.9805 -193 -223c0 -137.8 88.75 -251 199 -251z" />
    <glyph glyph-name="uni020E" unicode="&#x20e;" horiz-adv-x="644" 
d="M220 660c37 69 77 97 115 97c48 0 91 -42 115 -97l-12 -8c-31 45 -65 75 -103 75c-32 0 -64 -23 -100 -75zM322 -7c-178 0 -296 123 -296 307c0 169 132 306 296 306c177 0 296 -122 296 -306c0 -169 -133 -307 -296 -307zM325 8c132 0 220 110 220 276
c0 169 -101 307 -226 307c-132 0 -221 -111 -221 -276c0 -169 102 -307 227 -307z" />
    <glyph glyph-name="uni020F" unicode="&#x20f;" horiz-adv-x="604" 
d="M192 567c37 69 77 97 115 97c48 0 91 -42 115 -97l-12 -8c-31 45 -65 75 -103 75c-32 0 -64 -23 -100 -75zM302 -7c-160.8 0 -268 101.2 -268 253c0 138.6 121.14 252 268 252c160.53 0 268 -101.3 268 -252c0 -138.9 -120.06 -253 -268 -253zM304 8
c116.22 0 195 90.0498 195 224c0 137.5 -90.25 250 -201 250c-115.99 0 -193 -88.9805 -193 -223c0 -137.8 88.75 -251 199 -251z" />
    <glyph glyph-name="uni0210" unicode="&#x210;" horiz-adv-x="521" 
d="M15 0v8h29c40 0 44 12 44 127v329c0 115 -4 127 -44 127h-29v8h216c136 0 226 -71 226 -177c0 -96 -91 -157 -187 -169l-21 -3v-5c78.3701 -8.04004 116.37 -78.8096 149 -140c18.0996 -33.9404 51 -86 80 -86c8 0 17 3 25 10l19 16l4 -6l-18 -16
c-27 -23 -49 -32 -69 -32c-43 0 -74.0801 43.9502 -98 84c-86.2002 144.34 -104.94 171 -153 171h-8v14h38c92 0 167 73 167 163c0 89 -72 161 -160 161h-83v-1c10 -10 14 -24 14 -43v-405c0 -115 5 -127 45 -127h49v-8h-235zM111 758l81 -94l-8 -8l-77 69l-14 16zM244 758
l81 -94l-7 -8l-78 69l-14 16z" />
    <glyph glyph-name="uni0211" unicode="&#x211;" horiz-adv-x="371" 
d="M15 0v8h29c40 0 44 12 44 127v318c0 18 -10.7998 30 -27 30h-31v8h101c10.9502 0 15 -4.0498 15 -15v-62c0 -28 -3 -64 -7 -76v-2h7c22 103 79 162 151 162c48.0996 0 71 -16.4502 71 -47c0 -24.29 -18.3701 -44 -41 -44c-23.7402 0 -43 19.2598 -43 43c0 8 4 20 10 26v1
c-84 0 -141 -94 -141 -234v-109c0 -115 5 -127 45 -127h53v-7h-236zM101 666l81 -94l-8 -8l-77 69l-14 16zM234 666l81 -94l-7 -8l-78 69l-14 16z" />
    <glyph glyph-name="uni0212" unicode="&#x212;" horiz-adv-x="521" 
d="M15 0v8h29c40 0 44 12 44 127v329c0 115 -4 127 -44 127h-29v8h216c136 0 226 -71 226 -177c0 -96 -91 -157 -187 -169l-21 -3v-5c78.3701 -8.04004 116.37 -78.8096 149 -140c18.0996 -33.9404 51 -86 80 -86c8 0 17 3 25 10l19 16l4 -6l-18 -16
c-27 -23 -49 -32 -69 -32c-43 0 -74.0801 43.9502 -98 84c-86.2002 144.34 -104.94 171 -153 171h-8v14h38c92 0 167 73 167 163c0 89 -72 161 -160 161h-83v-1c10 -10 14 -24 14 -43v-405c0 -115 5 -127 45 -127h49v-8h-235zM107 659c37 69 77 97 115 97
c48 0 91 -42 115 -97l-12 -8c-31 45 -65 75 -103 75c-32 0 -64 -23 -100 -75z" />
    <glyph glyph-name="uni0213" unicode="&#x213;" horiz-adv-x="371" 
d="M15 0v8h29c40 0 44 12 44 127v318c0 18 -10.7998 30 -27 30h-31v8h101c10.9502 0 15 -4.0498 15 -15v-62c0 -28 -3 -64 -7 -76v-2h7c22 103 79 162 151 162c48.0996 0 71 -16.4502 71 -47c0 -24.29 -18.3701 -44 -41 -44c-23.7402 0 -43 19.2598 -43 43c0 8 4 20 10 26v1
c-84 0 -141 -94 -141 -234v-109c0 -115 5 -127 45 -127h53v-7h-236zM97 567c37 69 77 97 115 97c48 0 91 -42 115 -97l-12 -8c-31 45 -65 75 -103 75c-32 0 -64 -23 -100 -75z" />
    <glyph glyph-name="uni0214" unicode="&#x214;" horiz-adv-x="487" 
d="M152 758l81 -94l-8 -8l-77 69l-14 16zM285 758l81 -94l-7 -8l-78 69l-14 16zM82 137v327c0 115 -5 127 -45 127h-22v8h216v-8h-37c-40 0 -44 -12 -44 -127v-349c0 -64 35 -99 101 -99c89 0 136 43 136 121v312c0 104 -12 142 -47 142h-30v8h163v-8h-21
c-35 0 -48 -38 -48 -142v-312c0 -93 -54 -144 -153 -144c-100 0 -169 58 -169 144z" />
    <glyph glyph-name="uni0215" unicode="&#x215;" horiz-adv-x="514" 
d="M75 119v334c0 18 -10.7998 30 -27 30h-31v8h108c10.9502 0 15 -4.0498 15 -15v-349c0 -78 34 -119 82 -119c90 0 149 85 149 213v218c0 40 -5 44 -45 44h-15v8l131 3v-6c-2 -15 -4 -30 -4 -45v-396c0 -21 11 -28 23 -28c13 0 24 10 24 29v13h8v-13
c0 -32.7305 -29 -52 -56 -52c-25 0 -49 15.9199 -49 49v118h-7c-18 -120 -88 -170 -166 -170c-82 0 -140 44 -140 126zM139 666l81 -94l-8 -8l-77 69l-14 16zM272 666l81 -94l-7 -8l-78 69l-14 16z" />
    <glyph glyph-name="uni0216" unicode="&#x216;" horiz-adv-x="487" 
d="M148 659c37 69 77 97 115 97c48 0 91 -42 115 -97l-12 -8c-31 45 -65 75 -103 75c-32 0 -64 -23 -100 -75zM82 137v327c0 115 -5 127 -45 127h-22v8h216v-8h-37c-40 0 -44 -12 -44 -127v-349c0 -64 35 -99 101 -99c89 0 136 43 136 121v312c0 104 -12 142 -47 142h-30v8
h163v-8h-21c-35 0 -48 -38 -48 -142v-312c0 -93 -54 -144 -153 -144c-100 0 -169 58 -169 144z" />
    <glyph glyph-name="uni0217" unicode="&#x217;" horiz-adv-x="514" 
d="M75 119v334c0 18 -10.7998 30 -27 30h-31v8h108c10.9502 0 15 -4.0498 15 -15v-349c0 -78 34 -119 82 -119c90 0 149 85 149 213v218c0 40 -5 44 -45 44h-15v8l131 3v-6c-2 -15 -4 -30 -4 -45v-396c0 -21 11 -28 23 -28c13 0 24 10 24 29v13h8v-13
c0 -32.7305 -29 -52 -56 -52c-25 0 -49 15.9199 -49 49v118h-7c-18 -120 -88 -170 -166 -170c-82 0 -140 44 -140 126zM135 567c37 69 77 97 115 97c48 0 91 -42 115 -97l-12 -8c-31 45 -65 75 -103 75c-32 0 -64 -23 -100 -75z" />
    <glyph glyph-name="Scommaaccent" unicode="&#x218;" horiz-adv-x="398" 
d="M170 -182c22 0 44 23 48 46c1 7 1 16 3 19l-3 1c-2 -3 -10 -6 -16 -6c-24 0 -38 13 -38 37s14 38 38 38c22 0 36 -16 36 -38c0 -62 -27 -104 -68 -104v7zM25 204l15 1l3 -47c7 -98 68 -149 147 -149c75 0 125 48 125 121c0 72 -62 113 -127 152c-72 43 -150 92 -150 189
c0 81 67 135 165 135c44 0 73 -9 106 -9c9 0 18 0 29 2l9 -173l-15 -1l-2 35c-3 66 -45 131 -127 131c-68 0 -107 -36 -107 -102c0 -69 63 -107 128 -146c74 -44 154 -95 154 -200c0 -90 -75 -149 -186 -149c-47 0 -97 14 -129 14c-10 0 -22 -2 -29 -4z" />
    <glyph glyph-name="scommaaccent" unicode="&#x219;" horiz-adv-x="423" 
d="M171 -182c22 0 44 23 48 46c1 7 1 16 3 19l-3 1c-2 -3 -10 -6 -16 -6c-24 0 -38 13 -38 37s14 38 38 38c22 0 36 -16 36 -38c0 -62 -27 -104 -68 -104v7zM203 -7c-58 0 -95 17 -127 17c-10 0 -22 -3 -29 -5l-10 203h15l3 -58c4.75977 -92.0098 70 -142 148 -142
c74 0 124 46 124 114c0 53 -59 80 -123 106c-73 30 -155 65 -155 143c0 81 71 127 168 127c59 0 84 -11 106 -11c8 0 17 1 28 4l8 -173h-15l-2 34c-3.66992 62.3604 -43 130 -125 130c-66 0 -110 -27 -110 -93c0 -48 60 -73 122 -98c76 -31 161 -69 161 -155
c0 -85 -75 -143 -187 -143z" />
    <glyph glyph-name="uni021A" unicode="&#x21a;" horiz-adv-x="448" 
d="M193 -182c22 0 44 23 48 46c1 7 1 16 3 19l-3 1c-2 -3 -10 -6 -16 -6c-24 0 -38 13 -38 37s14 38 38 38c22 0 36 -16 36 -38c0 -62 -27 -104 -68 -104v7zM82 0v8h64c40 0 44 12 44 127v449h-27c-72 0 -127 -15 -133 -96l-3 -34l-15 1l10 144h405l9 -144l-15 -1l-3 34
c-6 80 -61 96 -133 96h-27v-449c0 -115 4 -127 44 -127h61v-8h-281z" />
    <glyph glyph-name="uni021B" unicode="&#x21b;" horiz-adv-x="382" 
d="M190 -182c22 0 44 23 48 46c1 7 1 16 3 19l-3 1c-2 -3 -10 -6 -16 -6c-24 0 -38 13 -38 37s14 38 38 38c22 0 36 -16 36 -38c0 -62 -27 -104 -68 -104v7zM108 122v341h-100v21h48c76 0 101 100 101 122v93h15v-172c0 -18 -3 -32 -10 -35v-1h197l-5 -28h-182v-355
c0 -54.5996 27.5996 -91 69 -91c55.2002 0 87 39.2002 87 98v25h15v-25c0 -73.2002 -42.7998 -122 -107 -122c-76.7998 0 -128 51.5996 -128 129z" />
    <glyph glyph-name="uni021E" unicode="&#x21e;" horiz-adv-x="542" 
d="M280 657h-24l-88 81l16 18l41 -42c24.7002 -25.2998 41 -45 41 -48h4c0 3 16.2998 22.7002 41 48l41 42l16 -18zM15 0v8h29c39.5996 0 44 12.5996 44 126v330c0 114.3 -4.40039 127 -44 127h-29v8h208v-8h-22c-40.5 0 -45 -12.7002 -45 -127v-141h229v138
c0 117 -4.5 130 -45 130h-22v8h209v-8h-30c-39.5996 0 -44 -13 -44 -130v-326c0 -114.3 4.40039 -127 44 -127h30v-8h-209v8h23c39.5996 0 44 12.7002 44 127v173h-229v-174c0 -113.4 4.5 -126 45 -126h22v-8h-208z" />
    <glyph glyph-name="uni021F" unicode="&#x21f;" horiz-adv-x="526" 
d="M280 657h-24l-88 81l16 18l41 -42c24.7002 -25.2998 41 -45 41 -48h4c0 3 16.2998 22.7002 41 48l41 42l16 -18zM11 0v8h29c40 0 44 12 44 127v433c0 98 -3 108 -25 108h-39v7h48c34 0 74 11 74 45v3h7v-188c0 -80 -14 -208 -15 -216h6c2 15 8 40 13 54
c24 71 84 117 153 117c90 0 140 -50 140 -126v-237c0 -115 4 -127 44 -127h30v-8h-212v8h29c40 0 44 12 44 127v214c0 82 -24 126 -82 126c-85 0 -150 -77 -150 -195v-145c0 -115 5 -127 45 -127h29v-8h-212z" />
    <glyph glyph-name="uni0226" unicode="&#x226;" horiz-adv-x="590" 
d="M297 750c22 0 37 -13 37 -36c0 -22 -14 -38 -37 -38c-22 0 -38 15 -38 38c0 22 15 36 38 36zM7 0v8c7 0 30 3 54 51l37 75l184 424c6.51953 15.0098 14 33 15 45h17l213 -544c16 -40 21 -51 49 -51h6v-8h-163v8h19c8.07031 0 27.8398 2.59961 27.8398 22.5
c0 4.76953 -1.12988 10.54 -3.83984 17.5l-51.1699 131h-178.83l-96 -1.74023l-21 -49.2598l-23 -69c-3 -8 -4 -15 -4 -21c0 -19 15 -30 40 -30h28v-8h-149zM144.24 196.57l91.7598 -2.57031h168.97l-108.97 279c-6 17 -8 31 -8 49h-5z" />
    <glyph glyph-name="uni0227" unicode="&#x227;" horiz-adv-x="459" 
d="M31 97c0 91 75 140 215 140h70v136c0 72 -35 109 -99 109c-82 0 -124 -49 -128 -114l-4 -50h-15l9 173c6.94043 -1.74023 16 -3 24 -3c27 0 64.8896 10 113 10c108 0 167 -48 167 -136v-315c0 -21 11 -28 23 -28c13 0 24 10 24 29v13h8v-13
c0 -28.7002 -23.7402 -52 -53 -52c-24.9502 0 -45.2598 21.5195 -47 49l-5 83h-8c-22 -102 -90 -135 -150 -135c-90 0 -144 42 -144 104zM98 97c0 -50 39 -81 87 -81c61 0 131 51 131 172v34h-66c-98 0 -152 -44 -152 -125zM218 658c22 0 37 -13 37 -36
c0 -22 -14 -38 -37 -38c-22 0 -38 15 -38 38c0 22 15 36 38 36z" />
    <glyph glyph-name="uni0228" unicode="&#x228;" horiz-adv-x="463" 
d="M15 0v8h29c40 0 44 12 44 127v329c0 115 -4 127 -44 127h-29v8h344c13 0 25 -1 31 -7l12 -187h-15l-4 58c-6 88 -48 121 -128 121h-117v-1c10 -10 18 -25 18 -43v-218h34c47 0 90 8 90 88v29h11v-267h-11v46c0 80 -43 89 -90 89h-34v-252c0 -27 9 -40 23 -40h121
c80 0 116 36 123 113l6 66h13l-11 -186c-6 -6 -18 -8 -31 -8h-152.11l-9.88965 -47.6299c8 3 17 5.62988 28 5.62988c47.21 0 74 -29.2002 74 -61.6299c0 -46.5703 -59.9004 -81 -134 -81l3 14.6299c48.9502 0 89 31.3896 89 73.3701c0 21.9805 -13 41 -33 41
c-12 0 -26 -3 -34 -10l-11 2l12.7305 63.6299h-217.73z" />
    <glyph glyph-name="uni0229" unicode="&#x229;" horiz-adv-x="516" 
d="M110.74 311l288.26 6c8 0 14 5 14 15c0 93 -52 150 -129 150c-90.0195 0 -154.35 -66.2002 -173.26 -171zM34 248c0 138 113.998 249.999 253.998 249.999c117 0 194 -65 194 -167c0 -21 -11 -35 -28 -35h-345.64c-2.21973 -16.5 -3.35938 -33.8604 -3.35938 -52
c0 -128 78 -227 198 -227c63 0 132 23 173 79l12 -9c-43.8701 -58.8301 -114.59 -93.7998 -202.24 -94l-9.75977 -47c8 3 17 6 28 6c47.21 0 74 -29.5703 74 -62c0 -46.5703 -59.9004 -81 -134 -81l3 15c48.9502 0 89 31.0195 89 73c0 21.9805 -13 41 -33 41
c-12 0 -26 -3 -34 -10l-11 2l12.6602 63.3203c-142.06 6.37012 -236.659 107.57 -236.659 254.681z" />
    <glyph glyph-name="uni022E" unicode="&#x22e;" horiz-adv-x="644" 
d="M335 751c22 0 37 -13 37 -36c0 -22 -14 -38 -37 -38c-22 0 -38 15 -38 38c0 22 15 36 38 36zM322 -7c-178 0 -296 123 -296 307c0 169 132 306 296 306c177 0 296 -122 296 -306c0 -169 -133 -307 -296 -307zM325 8c132 0 220 110 220 276c0 169 -101 307 -226 307
c-132 0 -221 -111 -221 -276c0 -169 102 -307 227 -307z" />
    <glyph glyph-name="uni022F" unicode="&#x22f;" horiz-adv-x="604" 
d="M298 658c22 0 37 -13 37 -36c0 -22 -14 -38 -37 -38c-22 0 -38 15 -38 38c0 22 15 36 38 36zM302 -7c-160.8 0 -268 101.2 -268 253c0 138.6 121.14 252 268 252c160.53 0 268 -101.3 268 -252c0 -138.9 -120.06 -253 -268 -253zM304 8c116.22 0 195 90.0498 195 224
c0 137.5 -90.25 250 -201 250c-115.99 0 -193 -88.9805 -193 -223c0 -137.8 88.75 -251 199 -251z" />
    <glyph glyph-name="uni0232" unicode="&#x232;" horiz-adv-x="479" 
d="M363 690h-227l2 21h227zM96 0v8h71c40 0 44 12 44 127v149l-130 250c-19.8096 38.0996 -31 57 -55 57h-18v8h158v-8h-52v-2c11 -4 21 -20 34 -45l108 -205c4 -8 10 -22 11 -27h5c1 5 7 19 11 27l69 133l27 60c7 15 11 27 11 37c0 14 -10 22 -36 22h-44v8h161v-8h-4
c-21 0 -37 -15 -62 -58l-40 -68l-86 -168v-162c0 -115 4 -127 44 -127h60v-8h-287z" />
    <glyph glyph-name="uni0233" unicode="&#x233;" horiz-adv-x="492" 
d="M371 597h-227l2 21h227zM241 -5c2.99023 7.53027 4.75 15.79 4.75 24.2002c0 7.62012 -1.4502 15.3701 -4.75 22.7998l-169 390c-16 38 -22 51 -50 51h-13v8h161v-8h-59v-1c11 -4 20.3701 -24.8701 27 -40l134 -306c5 -12 6 -30 6 -35v-2h3l104 265l20 68
c2.87988 9.33008 4.36035 17.2002 4.36035 23.7402c0 19.4697 -13.1006 27.2598 -41.3604 27.2598h-28v8h145v-7c-24 0 -34 -16 -50 -53l-32 -72l-177 -449c-22 -56 -62 -99 -111 -99c-35 0 -63 35 -63 78c24 -11 44 -19 70 -19c36 0 73.6602 10.7305 94 62z" />
    <glyph glyph-name="uni0237" unicode="&#x237;" horiz-adv-x="223" 
d="M88 453c0 18 -10.7998 30 -27 30h-31v8h113c7.2998 0 10 -2.7002 10 -10v-529c0 -84 -55 -141 -131 -141c-64 0 -107 41 -107 104h7c0 -54 40 -89 100 -89c43 0 66 30 66 88v539z" />
    <glyph glyph-name="circumflex" unicode="&#x2c6;" horiz-adv-x="238" 
d="M131 580.13l88 -81l-16 -18l-41 42c-24.7002 25.2998 -41 45 -41 48h-4c0 -3 -16.2998 -22.7002 -41 -48l-41 -42l-16 18l88 81h24z" />
    <glyph glyph-name="caron" unicode="&#x2c7;" horiz-adv-x="238" 
d="M131 478h-24l-88 81l16 18l41 -42c24.7002 -25.2998 41 -45 41 -48h4c0 3 16.2998 22.7002 41 48l41 42l16 -18z" />
    <glyph glyph-name="uni02C9" unicode="&#x2c9;" horiz-adv-x="273" 
d="M250 511h-227l2 21h227z" />
    <glyph glyph-name="uni02CA" unicode="&#x2ca;" horiz-adv-x="158" 
d="M28 453l-9 9l95 115c3 3 5 4 8 4s5.75977 -0.269531 9 -3l19 -16l-20 -25z" />
    <glyph glyph-name="uni02CB" unicode="&#x2cb;" horiz-adv-x="158" 
d="M131 453l-102 84l-20 25l19 16c3.24023 2.73047 6 3 9 3s5 -1 8 -4l95 -115z" />
    <glyph glyph-name="breve" unicode="&#x2d8;" horiz-adv-x="265" 
d="M18 571l15 7c36 -52 68 -74 100 -74c38 0 72 29 103 74l12 -7c-24 -55 -67 -97 -115 -97c-38 0 -78 28 -115 97z" />
    <glyph glyph-name="dotaccent" unicode="&#x2d9;" horiz-adv-x="103" 
d="M52 572c22 0 37 -13 37 -36c0 -22 -14 -38 -37 -38c-22 0 -38 15 -38 38c0 22 15 36 38 36z" />
    <glyph glyph-name="ring" unicode="&#x2da;" horiz-adv-x="176" 
d="M88 572c-24 0 -52 -23 -52 -51c0 -26 28 -52 52 -52s52 24 52 52s-28 51 -52 51zM88 595c36 0 74 -34 74 -74s-38 -74 -74 -74c-37 0 -73 36 -73 74c0 40 37 74 73 74z" />
    <glyph glyph-name="ogonek" unicode="&#x2db;" horiz-adv-x="311" 
d="M169 -189c-56 0 -94 30 -94 75c0 71 67 117 133 129v-15c-52 -9 -96 -50 -96 -111c0 -37 26 -61 64 -61c24.5596 0 53.7197 9.67969 76 19l5 -14c-8.70996 -4.11035 -52.7998 -22 -88 -22z" />
    <glyph glyph-name="tilde" unicode="&#x2dc;" horiz-adv-x="302" 
d="M263 540c-12 -48 -31 -58 -54 -58c-44 0 -97 61 -130 61c-11 0 -21 -8 -26 -28l-7 -26l-13 3l7 26c12 43 28 54 50 54c43 0 96 -61 130 -61c13 0 24 8 30 32l6 25l14 -3z" />
    <glyph glyph-name="hungarumlaut" unicode="&#x2dd;" horiz-adv-x="302" 
d="M249 580l18 -17l-14 -16l-77 -69l-8 8zM116 580l18 -17l-14 -16l-78 -69l-7 8z" />
    <glyph glyph-name="uni02F5" unicode="&#x2f5;" horiz-adv-x="280" 
d="M42 580l81 -94l-8 -8l-77 69l-14 16zM175 580l81 -94l-7 -8l-78 69l-14 16z" />
    <glyph glyph-name="gravecomb" unicode="&#x300;" horiz-adv-x="0" 
d="M36 453l-102 84l-20 25l19 16c3.24023 2.73047 6 3 9 3s5 -1 8 -4l95 -115z" />
    <glyph glyph-name="acutecomb" unicode="&#x301;" horiz-adv-x="0" 
d="M-36 453l-9 9l95 115c3 3 5 4 8 4s5.75977 -0.269531 9 -3l19 -16l-20 -25z" />
    <glyph glyph-name="uni0302" unicode="&#x302;" horiz-adv-x="0" 
d="M12 580.13l88 -81l-16 -18l-41 42c-24.7002 25.2998 -41 45 -41 48h-4c0 -3 -16.2998 -22.7002 -41 -48l-41 -42l-16 18l88 81h24z" />
    <glyph glyph-name="tildecomb" unicode="&#x303;" horiz-adv-x="0" 
d="M111 540c-12 -48 -31 -58 -54 -58c-44 0 -97 61 -130 61c-11 0 -21 -8 -26 -28l-7 -26l-13 3l7 26c12 43 28 54 50 54c43 0 96 -61 130 -61c13 0 24 8 30 32l6 25l14 -3z" />
    <glyph glyph-name="uni0304" unicode="&#x304;" horiz-adv-x="0" 
d="M113 511h-227l2 21h227z" />
    <glyph glyph-name="uni0305" unicode="&#x305;" horiz-adv-x="0" 
d="M80 511h-162l2 21h162z" />
    <glyph glyph-name="uni0306" unicode="&#x306;" horiz-adv-x="0" 
d="M-115 571l15 7c36 -52 68 -74 100 -74c38 0 72 29 103 74l12 -7c-24 -55 -67 -97 -115 -97c-38 0 -78 28 -115 97z" />
    <glyph glyph-name="uni0307" unicode="&#x307;" horiz-adv-x="0" 
d="M0 572c22 0 37 -13 37 -36c0 -22 -14 -38 -37 -38c-22 0 -38 15 -38 38c0 22 15 36 38 36z" />
    <glyph glyph-name="uni0308" unicode="&#x308;" horiz-adv-x="0" 
d="M-82 558c22 0 38 -14 38 -37c0 -22 -15 -37 -38 -37c-22 0 -36 14 -36 37c0 22 13 37 36 37zM82 558c22 0 36 -14 36 -37c0 -22 -13 -37 -36 -37c-22 0 -38 14 -38 37c0 22 15 37 38 37z" />
    <glyph glyph-name="uni030A" unicode="&#x30a;" horiz-adv-x="0" 
d="M0 572c-24 0 -52 -23 -52 -51c0 -26 28 -52 52 -52s52 24 52 52s-28 51 -52 51zM0 595c36 0 74 -34 74 -74s-38 -74 -74 -74c-37 0 -73 36 -73 74c0 40 37 74 73 74z" />
    <glyph glyph-name="uni030B" unicode="&#x30b;" horiz-adv-x="0" 
d="M111 580l18 -17l-14 -16l-77 -69l-8 8zM-22 580l18 -17l-14 -16l-78 -69l-7 8z" />
    <glyph glyph-name="uni030C" unicode="&#x30c;" horiz-adv-x="0" 
d="M12 478h-24l-88 81l16 18l41 -42c24.7002 -25.2998 41 -45 41 -48h4c0 3 16.2998 22.7002 41 48l41 42l16 -18z" />
    <glyph glyph-name="uni030D" unicode="&#x30d;" horiz-adv-x="0" 
d="M11 580v-106h-23v106h23z" />
    <glyph glyph-name="uni030E" unicode="&#x30e;" horiz-adv-x="0" 
d="M-22 580v-106h-22v106h22zM44 580v-106h-22v106h22z" />
    <glyph glyph-name="uni030F" unicode="&#x30f;" horiz-adv-x="0" 
d="M-111 580l81 -94l-8 -8l-77 69l-14 16zM22 580l81 -94l-7 -8l-78 69l-14 16z" />
    <glyph glyph-name="uni0311" unicode="&#x311;" horiz-adv-x="0" 
d="M-115 481c37 69 77 97 115 97c48 0 91 -42 115 -97l-12 -8c-31 45 -65 75 -103 75c-32 0 -64 -23 -100 -75z" />
    <glyph glyph-name="Wgrave" unicode="&#x1e80;" horiz-adv-x="844" 
d="M461 631l-102 84l-20 25l19 16c3.24023 2.73047 6 3 9 3s5 -1 8 -4l95 -115zM386 540c-12 39 -19 51 -49 51h-7v8h191v-8h-54c-12.9902 0 -18.1602 -11.9697 -18.1602 -24.6504c0 -4.89941 0.770508 -9.88965 2.16016 -14.3496l131 -440c3 -10 6 -23 6 -30h9
c0 2 2 17 8 33l126 355l17 71c1.63965 6.84961 2.62988 13.21 2.62988 18.9404c0 18.9795 -10.8301 31.0596 -44.6299 31.0596h-12v8h144v-8h-4c-23 0 -37 -19 -50 -51l-32 -75l-170 -468h-34l-124.01 416.02l-122.99 -416.02h-36l-197 543c-15 40 -18 51 -48 51h-12v8h120
v-11c0 -12 1 -25 5 -36l164 -440c1 -2 4 -18 4 -30h7c0 1 4 16 9 33l97.46 329.6z" />
    <glyph glyph-name="wgrave" unicode="&#x1e81;" horiz-adv-x="755" 
d="M420 539l-102 84l-20 25l19 16c3.24023 2.73047 6 3 9 3s5 -1 8 -4l95 -115zM233 -4l-165 436c-15 40 -20 51 -48 51h-12v8h120v-12c0 -12 0.450195 -24.5 5 -36l127 -321c2.53027 -6.38965 5 -26 5 -34h9c0 3 2 13 7 30l88.9502 294.21l-5.9502 19.79
c-12 39 -19 51 -49 51h-19v8h191v-8h-42c-11.7803 0 -18.6699 -9.2998 -18.6699 -23.4199c0 -4.99023 0.860352 -10.5801 2.66992 -16.5801l98 -325c4 -14 5 -24 5 -30h9c0 4 4 16 10 32l94.1201 245.5l15.8799 67.5c1.74023 7.40039 2.74023 14.0303 2.74023 19.8496
c0 19.6504 -11.3398 30.1504 -43.7402 30.1504h-15v8h143v-8h-5c-27 0 -36.29 -19.6904 -50 -51l-31.1904 -71.25l-138.81 -363.75l-28 -1l-115.32 384.15l-115.68 -384.15h-31z" />
    <glyph glyph-name="Wacute" unicode="&#x1e82;" horiz-adv-x="844" 
d="M389 631l-9 9l95 115c3 3 5 4 8 4s5.75977 -0.269531 9 -3l19 -16l-20 -25zM386 540c-12 39 -19 51 -49 51h-7v8h191v-8h-54c-12.9902 0 -18.1602 -11.9697 -18.1602 -24.6504c0 -4.89941 0.770508 -9.88965 2.16016 -14.3496l131 -440c3 -10 6 -23 6 -30h9
c0 2 2 17 8 33l126 355l17 71c1.63965 6.84961 2.62988 13.21 2.62988 18.9404c0 18.9795 -10.8301 31.0596 -44.6299 31.0596h-12v8h144v-8h-4c-23 0 -37 -19 -50 -51l-32 -75l-170 -468h-34l-124.01 416.02l-122.99 -416.02h-36l-197 543c-15 40 -18 51 -48 51h-12v8h120
v-11c0 -12 1 -25 5 -36l164 -440c1 -2 4 -18 4 -30h7c0 1 4 16 9 33l97.46 329.6z" />
    <glyph glyph-name="wacute" unicode="&#x1e83;" horiz-adv-x="755" 
d="M348 539l-9 9l95 115c3 3 5 4 8 4s5.75977 -0.269531 9 -3l19 -16l-20 -25zM233 -4l-165 436c-15 40 -20 51 -48 51h-12v8h120v-12c0 -12 0.450195 -24.5 5 -36l127 -321c2.53027 -6.38965 5 -26 5 -34h9c0 3 2 13 7 30l88.9502 294.21l-5.9502 19.79
c-12 39 -19 51 -49 51h-19v8h191v-8h-42c-11.7803 0 -18.6699 -9.2998 -18.6699 -23.4199c0 -4.99023 0.860352 -10.5801 2.66992 -16.5801l98 -325c4 -14 5 -24 5 -30h9c0 4 4 16 10 32l94.1201 245.5l15.8799 67.5c1.74023 7.40039 2.74023 14.0303 2.74023 19.8496
c0 19.6504 -11.3398 30.1504 -43.7402 30.1504h-15v8h143v-8h-5c-27 0 -36.29 -19.6904 -50 -51l-31.1904 -71.25l-138.81 -363.75l-28 -1l-115.32 384.15l-115.68 -384.15h-31z" />
    <glyph glyph-name="Wdieresis" unicode="&#x1e84;" horiz-adv-x="844" 
d="M343 736c22 0 38 -14 38 -37c0 -22 -15 -37 -38 -37c-22 0 -36 14 -36 37c0 22 13 37 36 37zM507 736c22 0 36 -14 36 -37c0 -22 -13 -37 -36 -37c-22 0 -38 14 -38 37c0 22 15 37 38 37zM386 540c-12 39 -19 51 -49 51h-7v8h191v-8h-54
c-12.9902 0 -18.1602 -11.9697 -18.1602 -24.6504c0 -4.89941 0.770508 -9.88965 2.16016 -14.3496l131 -440c3 -10 6 -23 6 -30h9c0 2 2 17 8 33l126 355l17 71c1.63965 6.84961 2.62988 13.21 2.62988 18.9404c0 18.9795 -10.8301 31.0596 -44.6299 31.0596h-12v8h144v-8
h-4c-23 0 -37 -19 -50 -51l-32 -75l-170 -468h-34l-124.01 416.02l-122.99 -416.02h-36l-197 543c-15 40 -18 51 -48 51h-12v8h120v-11c0 -12 1 -25 5 -36l164 -440c1 -2 4 -18 4 -30h7c0 1 4 16 9 33l97.46 329.6z" />
    <glyph glyph-name="wdieresis" unicode="&#x1e85;" horiz-adv-x="755" 
d="M302 644c22 0 38 -14 38 -37c0 -22 -15 -37 -38 -37c-22 0 -36 14 -36 37c0 22 13 37 36 37zM466 644c22 0 36 -14 36 -37c0 -22 -13 -37 -36 -37c-22 0 -38 14 -38 37c0 22 15 37 38 37zM233 -4l-165 436c-15 40 -20 51 -48 51h-12v8h120v-12
c0 -12 0.450195 -24.5 5 -36l127 -321c2.53027 -6.38965 5 -26 5 -34h9c0 3 2 13 7 30l88.9502 294.21l-5.9502 19.79c-12 39 -19 51 -49 51h-19v8h191v-8h-42c-11.7803 0 -18.6699 -9.2998 -18.6699 -23.4199c0 -4.99023 0.860352 -10.5801 2.66992 -16.5801l98 -325
c4 -14 5 -24 5 -30h9c0 4 4 16 10 32l94.1201 245.5l15.8799 67.5c1.74023 7.40039 2.74023 14.0303 2.74023 19.8496c0 19.6504 -11.3398 30.1504 -43.7402 30.1504h-15v8h143v-8h-5c-27 0 -36.29 -19.6904 -50 -51l-31.1904 -71.25l-138.81 -363.75l-28 -1l-115.32 384.15
l-115.68 -384.15h-31z" />
    <glyph glyph-name="uni1E86" unicode="&#x1e86;" horiz-adv-x="844" 
d="M425 750c22 0 37 -13 37 -36c0 -22 -14 -38 -37 -38c-22 0 -38 15 -38 38c0 22 15 36 38 36zM386 540c-12 39 -19 51 -49 51h-7v8h191v-8h-54c-12.9902 0 -18.1602 -11.9697 -18.1602 -24.6504c0 -4.89941 0.770508 -9.88965 2.16016 -14.3496l131 -440
c3 -10 6 -23 6 -30h9c0 2 2 17 8 33l126 355l17 71c1.63965 6.84961 2.62988 13.21 2.62988 18.9404c0 18.9795 -10.8301 31.0596 -44.6299 31.0596h-12v8h144v-8h-4c-23 0 -37 -19 -50 -51l-32 -75l-170 -468h-34l-124.01 416.02l-122.99 -416.02h-36l-197 543
c-15 40 -18 51 -48 51h-12v8h120v-11c0 -12 1 -25 5 -36l164 -440c1 -2 4 -18 4 -30h7c0 1 4 16 9 33l97.46 329.6z" />
    <glyph glyph-name="uni1E87" unicode="&#x1e87;" horiz-adv-x="755" 
d="M384 658c22 0 37 -13 37 -36c0 -22 -14 -38 -37 -38c-22 0 -38 15 -38 38c0 22 15 36 38 36zM233 -4l-165 436c-15 40 -20 51 -48 51h-12v8h120v-12c0 -12 0.450195 -24.5 5 -36l127 -321c2.53027 -6.38965 5 -26 5 -34h9c0 3 2 13 7 30l88.9502 294.21l-5.9502 19.79
c-12 39 -19 51 -49 51h-19v8h191v-8h-42c-11.7803 0 -18.6699 -9.2998 -18.6699 -23.4199c0 -4.99023 0.860352 -10.5801 2.66992 -16.5801l98 -325c4 -14 5 -24 5 -30h9c0 4 4 16 10 32l94.1201 245.5l15.8799 67.5c1.74023 7.40039 2.74023 14.0303 2.74023 19.8496
c0 19.6504 -11.3398 30.1504 -43.7402 30.1504h-15v8h143v-8h-5c-27 0 -36.29 -19.6904 -50 -51l-31.1904 -71.25l-138.81 -363.75l-28 -1l-115.32 384.15l-115.68 -384.15h-31z" />
    <glyph glyph-name="uni1E8E" unicode="&#x1e8e;" horiz-adv-x="479" 
d="M250 751c22 0 37 -13 37 -36c0 -22 -14 -38 -37 -38c-22 0 -38 15 -38 38c0 22 15 36 38 36zM96 0v8h71c40 0 44 12 44 127v149l-130 250c-19.8096 38.0996 -31 57 -55 57h-18v8h158v-8h-52v-2c11 -4 21 -20 34 -45l108 -205c4 -8 10 -22 11 -27h5c1 5 7 19 11 27l69 133
l27 60c7 15 11 27 11 37c0 14 -10 22 -36 22h-44v8h161v-8h-4c-21 0 -37 -15 -62 -58l-40 -68l-86 -168v-162c0 -115 4 -127 44 -127h60v-8h-287z" />
    </font>
</defs>
</svg>
